{
.appVersion = "983";
DisplayStrings = (
"ABCDEFGHIJKLMNOPQRSTUVWXYZ\012\012HANDGLOVE\012HUMBURGFONTIV\012CAMPAIGNH\012KIKKQZNVSMAN",
A
);
copyright = "Copyright © 2018 by Cadson Demak Co.,Ltd.. All rights reserved.";
customParameters = (
{
name = vendorID;
value = CDK;
},
{
name = description;
value = "Copyright (c) 2018, Cadson Demak (info@cadsondemak.com)";
},
{
name = license;

glyphs = (
{
glyphname = A;
lastChange = "2018-04-17 08:52:34 +0000";
layers = (
{
anchors = (
{
name = bottom;
position = "{311, 0}";
},
{
name = ogonek;
position = "{600, 0}";
},
{
name = top;
position = "{311, 700}";
}
);
background = {
paths = (
{
closed = 1;
nodes = (
"136 189 LINE",
"494 189 LINE",
"494 257 LINE",
"136 257 LINE"
);
},
{
closed = 1;
nodes = (
"352 700 LINE",
"270 700 LINE",
"20 0 LINE",
"99 0 LINE",
"323 648 LINE",
"299 648 LINE",
"522 0 LINE",
"601 0 LINE"
);
}
);
};
layerId = "39D11A97-A6D9-4B52-A6F5-15D5E4373676";
paths = (
{
closed = 1;
nodes = (
"135 189 LINE",
"493 189 LINE",
"493 257 LINE",
"135 257 LINE"
);
},
{
closed = 1;
nodes = (
"351 700 LINE",
"269 700 LINE",
"20 0 LINE",
"99 0 LINE",
"323 648 LINE",
"298 648 LINE",
"521 0 LINE",
"600 0 LINE"
);
}
);
width = 620;
},
{
anchors = (
{
name = bottom;
position = "{337, 0}";
},
{
name = ogonek;
position = "{626, 0}";
},
{
name = top;
position = "{337, 700}";
}
);
background = {
paths = (
{
closed = 1;
nodes = (
"652 0 LINE",
"383 700 LINE",
"259 700 LINE",
"-10 0 LINE",
"132 0 LINE",
"189 153 LINE",
"453 153 LINE",
"510 0 LINE"
);
},
{
closed = 1;
nodes = (
"333 557 LINE",
"309 557 LINE",
"413 267 LINE",
"229 267 LINE"
);
}
);
};
layerId = "5CD77783-8DB3-4580-A509-4627B8D22761";
paths = (
{
closed = 1;
nodes = (
"147 0 LINE",
"204 153 LINE",
"468 153 LINE",
"525 0 LINE",
"667 0 LINE",
"398 700 LINE",
"274 700 LINE",
"5 0 LINE"
);
},
{
closed = 1;
nodes = (
"346 557 LINE",
"326 557 LINE",
"428 267 LINE",
"244 267 LINE"
);
}
);
width = 672;
}
);
note = A;
rightMetricsKey = "=|";
unicode = 0041;
},
{
glyphname = B;
lastChange = "2018-04-17 08:42:42 +0000";
layers = (
{
anchors = (
{
name = bottom;
position = "{328, 0}";
},
{
name = top;
position = "{328, 700}";
}
);
background = {
paths = (
{
closed = 1;
nodes = (
"560 414 LINE",
"560 608 LINE",
"468 700 LINE",
"75 700 LINE",
"75 0 LINE",
"491 0 LINE",
"591 100 LINE",
"591 287 LINE",
"512 366 LINE"
);
},
{
closed = 1;
nodes = (
"436 634 LINE",
"486 584 LINE",
"486 434 LINE",
"436 384 LINE",
"149 384 LINE",
"149 634 LINE"
);
},
{
closed = 1;
nodes = (
"459 66 LINE",
"149 66 LINE",
"149 320 LINE",
"459 320 LINE",
"517 262 LINE",
"517 124 LINE"
);
}
);
};
layerId = "39D11A97-A6D9-4B52-A6F5-15D5E4373676";
paths = (
{
closed = 1;
nodes = (
"496 0 LINE",
"596 100 LINE",
"596 287 LINE",
"517 366 LINE",
"565 414 LINE",
"565 608 LINE",
"473 700 LINE",
"80 700 LINE",
"80 0 LINE"
);
},
{
closed = 1;
nodes = (
"154 320 LINE",
"464 320 LINE",
"522 263 LINE",
"522 123 LINE",
"464 66 LINE",
"154 66 LINE"
);
},
{
closed = 1;
nodes = (
"154 634 LINE",
"441 634 LINE",
"491 585 LINE",
"491 434 LINE",
"441 384 LINE",
"154 384 LINE"
);
}
);
width = 641;
},
{
anchors = (
{
name = bottom;
position = "{343, 0}";
},
{
name = top;
position = "{343, 700}";
}
);
background = {
paths = (
{
closed = 1;
nodes = (
"610 404 LINE",
"610 592 LINE",
"502 700 LINE",
"65 700 LINE",
"65 0 LINE",
"525 0 LINE",
"641 116 LINE",
"641 297 LINE",
"572 366 LINE"
);
},
{
closed = 1;
nodes = (
"443 584 LINE",
"476 551 LINE",
"476 442 LINE",
"442 408 LINE",
"199 408 LINE",
"199 584 LINE"
);
},
{
closed = 1;
nodes = (
"466 116 LINE",
"199 116 LINE",
"199 296 LINE",
"466 296 LINE",
"507 255 LINE",
"507 157 LINE"
);
}
);
};
layerId = "5CD77783-8DB3-4580-A509-4627B8D22761";
paths = (
{
closed = 1;
nodes = (
"527 0 LINE",
"641 114 LINE",
"641 291 LINE",
"569 363 LINE",
"610 404 LINE",
"610 594 LINE",
"504 700 LINE",
"65 700 LINE",
"65 0 LINE"
);
},
{
closed = 1;
nodes = (
"198 297 LINE",
"463 297 LINE",
"507 254 LINE",
"507 158 LINE",
"463 115 LINE",
"198 115 LINE"
);
},
{
closed = 1;
nodes = (
"198 585 LINE",
"440 585 LINE",
"476 550 LINE",
"476 443 LINE",
"439 407 LINE",
"198 407 LINE"
);
}
);
width = 671;
}
);
leftMetricsKey = H;
note = B;
unicode = 0042;
},
{
glyphname = C;
lastChange = "2018-04-17 08:04:59 +0000";
layers = (
{
anchors = (
{
name = bottom;
position = "{322, 0}";
},
{
name = top;
position = "{330, 700}";
}
);
background = {
paths = (
{
closed = 1;
nodes = (
"65 110 LINE",
"175 0 LINE",
"475 0 LINE",
"581 106 LINE",
"581 170 LINE",
"505 170 LINE",
"505 130 LINE",
"441 68 LINE",
"209 68 LINE",
"141 134 LINE",
"141 566 LINE",
"209 632 LINE",
"441 632 LINE",
"505 570 LINE",
"505 530 LINE",
"581 530 LINE",
"581 594 LINE",
"475 700 LINE",
"175 700 LINE",
"65 590 LINE"
);
}
);
};
layerId = "39D11A97-A6D9-4B52-A6F5-15D5E4373676";
paths = (
{
closed = 1;
nodes = (
"480 0 LINE",
"586 106 LINE",
"586 170 LINE",
"510 170 LINE",
"510 131 LINE",
"446 68 LINE",
"214 68 LINE",
"146 135 LINE",
"146 565 LINE",
"214 632 LINE",
"446 632 LINE",
"510 569 LINE",
"510 530 LINE",
"586 530 LINE",
"586 594 LINE",
"473 700 LINE",
"180 700 LINE",
"70 590 LINE",
"70 110 LINE",
"180 0 LINE"
);
}
);
width = 631;
},
{
anchors = (
{
name = bottom;
position = "{337, 0}";
},
{
name = top;
position = "{345, 700}";
}
);
background = {
paths = (
{
closed = 1;
nodes = (
"509 0 LINE",
"631 122 LINE",
"631 222 LINE",
"495 222 LINE",
"495 165 LINE",
"448 118 LINE",
"242 118 LINE",
"191 169 LINE",
"191 531 LINE",
"242 582 LINE",
"448 582 LINE",
"495 535 LINE",
"495 478 LINE",
"631 478 LINE",
"631 578 LINE",
"501 700 LINE",
"181 700 LINE",
"55 574 LINE",
"55 126 LINE",
"181 0 LINE"
);
}
);
};
layerId = "5CD77783-8DB3-4580-A509-4627B8D22761";
paths = (
{
closed = 1;
nodes = (
"509 0 LINE",
"631 122 LINE",
"631 222 LINE",
"495 222 LINE",
"495 167 LINE",
"445 118 LINE",
"245 118 LINE",
"191 171 LINE",
"191 529 LINE",
"245 582 LINE",
"445 582 LINE",
"495 533 LINE",
"495 478 LINE",
"631 478 LINE",
"631 578 LINE",
"501 700 LINE",
"181 700 LINE",
"55 574 LINE",
"55 126 LINE",
"181 0 LINE"
);
}
);
width = 661;
}
);
note = C;
unicode = 0043;
},
{
glyphname = D;
lastChange = "2018-04-17 07:45:32 +0000";
layers = (
{
anchors = (
{
name = bottom;
position = "{326, 0}";
},
{
name = center;
position = "{326, 350}";
},
{
name = top;
position = "{326, 700}";
}
);
background = {
paths = (
{
closed = 1;
nodes = (
"486 0 LINE",
"596 110 LINE",
"596 590 LINE",
"486 700 LINE",
"80 700 LINE",
"80 0 LINE"
);
},
{
closed = 1;
nodes = (
"156 632 LINE",
"452 632 LINE",
"520 565 LINE",
"520 135 LINE",
"452 68 LINE",
"156 68 LINE"
);
}
);
};
layerId = "39D11A97-A6D9-4B52-A6F5-15D5E4373676";
paths = (
{
closed = 1;
nodes = (
"484 0 LINE",
"594 110 LINE",
"594 590 LINE",
"484 700 LINE",
"80 700 LINE",
"80 0 LINE"
);
},
{
closed = 1;
nodes = (
"156 632 LINE",
"450 632 LINE",
"518 565 LINE",
"518 135 LINE",
"450 68 LINE",
"156 68 LINE"
);
}
);
width = 664;
},
{
anchors = (
{
name = bottom;
position = "{341, 0}";
},
{
name = center;
position = "{341, 350}";
},
{
name = top;
position = "{341, 700}";
}
);
background = {
paths = (
{
closed = 1;
nodes = (
"498 0 LINE",
"624 126 LINE",
"624 574 LINE",
"498 700 LINE",
"50 700 LINE",
"50 0 LINE"
);
},
{
closed = 1;
nodes = (
"186 582 LINE",
"436 582 LINE",
"488 531 LINE",
"488 169 LINE",
"436 118 LINE",
"186 118 LINE"
);
}
);
};
layerId = "5CD77783-8DB3-4580-A509-4627B8D22761";
paths = (
{
closed = 1;
nodes = (
"513 0 LINE",
"639 126 LINE",
"639 574 LINE",
"513 700 LINE",
"65 700 LINE",
"65 0 LINE"
);
},
{
closed = 1;
nodes = (
"201 582 LINE",
"449 582 LINE",
"503 529 LINE",
"503 171 LINE",
"449 118 LINE",
"201 118 LINE"
);
}
);
width = 694;
}
);
note = D;
unicode = 0044;
},
{
glyphname = E;
lastChange = "2018-04-17 08:02:42 +0000";
layers = (
{
anchors = (
{
name = bottom;
position = "{316, 0}";
},
{
name = ogonek;
position = "{540, 0}";
},
{
name = top;
position = "{312, 700}";
},
{
name = topleft;
position = "{20, 700}";
}
);
background = {
paths = (
{
closed = 1;
nodes = (
"540 0 LINE",
"540 68 LINE",
"156 68 LINE",
"156 316 LINE",
"511 316 LINE",
"511 384 LINE",
"156 384 LINE",
"156 632 LINE",
"540 632 LINE",
"540 700 LINE",
"80 700 LINE",
"81 0 LINE"
);
}
);
};
layerId = "39D11A97-A6D9-4B52-A6F5-15D5E4373676";
paths = (
{
closed = 1;
nodes = (
"540 0 LINE",
"540 68 LINE",
"156 68 LINE",
"156 318 LINE",
"511 318 LINE",
"511 386 LINE",
"156 386 LINE",
"156 632 LINE",
"540 632 LINE",
"540 700 LINE",
"80 700 LINE",
"80 0 LINE"
);
}
);
width = 590;
},
{
anchors = (
{
name = bottom;
position = "{310, 0}";
},
{
name = ogonek;
position = "{546, 10}";
},
{
name = top;
position = "{310, 700}";
},
{
name = topleft;
position = "{35, 700}";
}
);
background = {
paths = (
{
closed = 1;
nodes = (
"585 0 LINE",
"585 118 LINE",
"201 118 LINE",
"201 293 LINE",
"556 293 LINE",
"556 411 LINE",
"201 411 LINE",
"201 582 LINE",
"585 582 LINE",
"585 700 LINE",
"65 700 LINE",
"65 0 LINE"
);
}
);
};
layerId = "5CD77783-8DB3-4580-A509-4627B8D22761";
paths = (
{
closed = 1;
nodes = (
"585 0 LINE",
"585 118 LINE",
"201 118 LINE",
"201 294 LINE",
"556 294 LINE",
"556 410 LINE",
"201 410 LINE",
"201 582 LINE",
"585 582 LINE",
"585 700 LINE",
"65 700 LINE",
"65 0 LINE"
);
}
);
width = 620;
}
);
leftMetricsKey = H;
note = E;
unicode = 0045;
},
{
glyphname = F;
lastChange = "2018-04-17 08:02:25 +0000";
layers = (
{
anchors = (
{
name = bottom;
position = "{295, 0}";
},
{
name = top;
position = "{295, 700}";
}
);
background = {
paths = (
{
closed = 1;
nodes = (
"543 633 LINE",
"543 700 LINE",
"75 700 LINE",
"75 0 LINE",
"149 0 LINE",
"149 313 LINE",
"514 313 LINE",
"514 380 LINE",
"149 380 LINE",
"149 633 LINE"
);
}
);
};
layerId = "39D11A97-A6D9-4B52-A6F5-15D5E4373676";
paths = (
{
closed = 1;
nodes = (
"540 632 LINE",
"540 700 LINE",
"80 700 LINE",
"80 0 LINE",
"156 0 LINE",
"156 312 LINE",
"511 312 LINE",
"511 380 LINE",
"156 380 LINE",
"156 632 LINE"
);
}
);
width = 575;
},
{
anchors = (
{
name = bottom;
position = "{310, 0}";
},
{
name = top;
position = "{310, 700}";
}
);
background = {
paths = (
{
closed = 1;
nodes = (
"201 0 LINE",
"201 286 LINE",
"556 286 LINE",
"556 404 LINE",
"201 404 LINE",
"201 582 LINE",
"585 582 LINE",
"585 700 LINE",
"65 700 LINE",
"65 0 LINE"
);
}
);
};
layerId = "5CD77783-8DB3-4580-A509-4627B8D22761";
paths = (
{
closed = 1;
nodes = (
"201 0 LINE",
"201 286 LINE",
"556 286 LINE",
"556 404 LINE",
"201 404 LINE",
"201 582 LINE",
"585 582 LINE",
"585 700 LINE",
"65 700 LINE",
"65 0 LINE"
);
}
);
width = 605;
}
);
note = F;
unicode = 0046;
},
{
glyphname = G;
lastChange = "2018-04-17 07:45:32 +0000";
layers = (
{
anchors = (
{
name = bottom;
position = "{332, 0}";
},
{
name = top;
position = "{330, 700}";
}
);
background = {
paths = (
{
closed = 1;
nodes = (
"583 365 LINE",
"349 365 LINE",
"349 297 LINE",
"507 297 LINE",
"507 131 LINE",
"443 68 LINE",
"209 68 LINE",
"141 135 LINE",
"141 566 LINE",
"209 632 LINE",
"443 632 LINE",
"507 570 LINE",
"507 530 LINE",
"583 530 LINE",
"583 594 LINE",
"477 700 LINE",
"175 700 LINE",
"65 590 LINE",
"65 110 LINE",
"175 0 LINE",
"477 0 LINE",
"583 106 LINE"
);
}
);
};
layerId = "39D11A97-A6D9-4B52-A6F5-15D5E4373676";
paths = (
{
closed = 1;
nodes = (
"486 0 LINE",
"592 106 LINE",
"592 365 LINE",
"358 365 LINE",
"358 297 LINE",
"516 297 LINE",
"516 131 LINE",
"452 68 LINE",
"214 68 LINE",
"146 135 LINE",
"146 565 LINE",
"214 632 LINE",
"452 632 LINE",
"516 569 LINE",
"516 530 LINE",
"592 530 LINE",
"592 594 LINE",
"486 700 LINE",
"180 700 LINE",
"70 590 LINE",
"70 110 LINE",
"180 0 LINE"
);
}
);
width = 652;
},
{
anchors = (
{
name = bottom;
position = "{347, 0}";
},
{
name = top;
position = "{345, 700}";
}
);
background = {
paths = (
{
closed = 1;
nodes = (
"227 582 LINE",
"439 582 LINE",
"486 535 LINE",
"486 478 LINE",
"622 478 LINE",
"622 578 LINE",
"500 700 LINE",
"166 700 LINE",
"40 574 LINE",
"40 126 LINE",
"166 0 LINE",
"500 0 LINE",
"622 122 LINE",
"622 391 LINE",
"328 391 LINE",
"328 273 LINE",
"486 273 LINE",
"486 165 LINE",
"439 118 LINE",
"227 118 LINE",
"176 169 LINE",
"176 531 LINE"
);
}
);
};
layerId = "5CD77783-8DB3-4580-A509-4627B8D22761";
paths = (
{
closed = 1;
nodes = (
"515 0 LINE",
"637 122 LINE",
"637 390 LINE",
"353 390 LINE",
"353 274 LINE",
"505 274 LINE",
"505 167 LINE",
"455 118 LINE",
"245 118 LINE",
"191 171 LINE",
"191 529 LINE",
"245 582 LINE",
"451 582 LINE",
"501 533 LINE",
"501 478 LINE",
"637 478 LINE",
"637 578 LINE",
"515 700 LINE",
"181 700 LINE",
"55 574 LINE",
"55 126 LINE",
"181 0 LINE"
);
}
);
width = 682;
}
);
leftMetricsKey = O;
note = G;
unicode = 0047;
},
{
glyphname = H;
lastChange = "2018-04-17 07:45:32 +0000";
layers = (
{
anchors = (
{
name = bottom;
position = "{338, 0}";
},
{
name = center;
position = "{336, 350}";
},
{
name = top;
position = "{336, 700}";
},
{
name = topleft;
position = "{20, 700}";
}
);
background = {
paths = (
{
closed = 1;
nodes = (
"151 0 LINE",
"151 315 LINE",
"513 315 LINE",
"513 0 LINE",
"589 0 LINE",
"589 700 LINE",
"513 700 LINE",
"513 383 LINE",
"151 383 LINE",
"151 700 LINE",
"75 700 LINE",
"75 0 LINE"
);
}
);
};
layerId = "39D11A97-A6D9-4B52-A6F5-15D5E4373676";
paths = (
{
closed = 1;
nodes = (
"156 0 LINE",
"156 315 LINE",
"518 315 LINE",
"518 0 LINE",
"594 0 LINE",
"594 700 LINE",
"518 700 LINE",
"518 383 LINE",
"156 383 LINE",
"156 700 LINE",
"80 700 LINE",
"80 0 LINE"
);
}
);
width = 674;
},
{
anchors = (
{
name = bottom;
position = "{352, 0}";
},
{
name = center;
position = "{352, 350}";
},
{
name = top;
position = "{352, 700}";
},
{
name = topleft;
position = "{35, 700}";
}
);
layerId = "5CD77783-8DB3-4580-A509-4627B8D22761";
paths = (
{
closed = 1;
nodes = (
"201 0 LINE",
"201 290 LINE",
"503 290 LINE",
"503 0 LINE",
"639 0 LINE",
"639 700 LINE",
"503 700 LINE",
"503 408 LINE",
"201 408 LINE",
"201 700 LINE",
"65 700 LINE",
"65 0 LINE"
);
}
);
width = 704;
}
);
note = H;
rightMetricsKey = "=|";
unicode = 0048;
},
{
glyphname = I;
lastChange = "2018-04-17 07:45:32 +0000";
layers = (
{
anchors = (
{
name = bottom;
position = "{123, 0}";
},
{
name = ogonek;
position = "{161, 0}";
},
{
name = top;
position = "{123, 700}";
},
{
name = topleft;
position = "{15, 700}";
}
);
layerId = "39D11A97-A6D9-4B52-A6F5-15D5E4373676";
paths = (
{
closed = 1;
nodes = (
"161 700 LINE",
"85 700 LINE",
"85 0 LINE",
"161 0 LINE"
);
}
);
width = 246;
},
{
anchors = (
{
name = bottom;
position = "{138, 0}";
},
{
name = ogonek;
position = "{176, 0}";
},
{
name = top;
position = "{138, 700}";
},
{
name = topleft;
position = "{30, 700}";
}
);
layerId = "5CD77783-8DB3-4580-A509-4627B8D22761";
paths = (
{
closed = 1;
nodes = (
"206 700 LINE",
"70 700 LINE",
"70 0 LINE",
"206 0 LINE"
);
}
);
width = 276;
}
);
note = I;
rightMetricsKey = "=|";
unicode = 0049;
},
{
glyphname = J;
lastChange = "2018-04-17 08:04:03 +0000";
layers = (
{
anchors = (
{
name = bottom;
position = "{277, 0}";
},
{
name = top;
position = "{442, 700}";
}
);
background = {
paths = (
{
closed = 1;
nodes = (
"343 68 LINE",
"171 68 LINE",
"102 135 LINE",
"102 209 LINE",
"28 209 LINE",
"28 110 LINE",
"138 0 LINE",
"376 0 LINE",
"476 100 LINE",
"476 700 LINE",
"400 700 LINE",
"400 123 LINE"
);
}
);
};
layerId = "39D11A97-A6D9-4B52-A6F5-15D5E4373676";
paths = (
{
closed = 1;
nodes = (
"348 68 LINE",
"178 68 LINE",
"109 136 LINE",
"109 209 LINE",
"35 209 LINE",
"35 110 LINE",
"145 0 LINE",
"381 0 LINE",
"481 100 LINE",
"481 700 LINE",
"405 700 LINE",
"405 124 LINE"
);
}
);
width = 556;
},
{
anchors = (
{
name = bottom;
position = "{292, 0}";
},
{
name = top;
position = "{457, 700}";
}
);
background = {
paths = (
{
closed = 1;
nodes = (
"350 118 LINE",
"206 118 LINE",
"154 170 LINE",
"154 261 LINE",
"20 261 LINE",
"20 126 LINE",
"146 0 LINE",
"410 0 LINE",
"526 116 LINE",
"526 700 LINE",
"390 700 LINE",
"390 158 LINE"
);
}
);
};
layerId = "5CD77783-8DB3-4580-A509-4627B8D22761";
paths = (
{
closed = 1;
nodes = (
"410 0 LINE",
"526 116 LINE",
"526 700 LINE",
"390 700 LINE",
"390 160 LINE",
"347 118 LINE",
"207 118 LINE",
"152 172 LINE",
"152 261 LINE",
"20 261 LINE",
"20 126 LINE",
"146 0 LINE"
);
}
);
width = 586;
}
);
note = J;
unicode = 004A;
},
{
glyphname = K;
lastChange = "2018-04-17 08:11:49 +0000";
layers = (
{
anchors = (
{
name = bottom;
position = "{318, 0}";
},
{
name = top;
position = "{319, 700}";
}
);
background = {
paths = (
{
closed = 1;
nodes = (
"313 384 LINE",
"151 384 LINE",
"151 700 LINE",
"75 700 LINE",
"75 0 LINE",
"151 0 LINE",
"151 317 LINE",
"313 317 LINE",
"508 0 LINE",
"592 0 LINE",
"377 351 LINE",
"577 700 LINE",
"495 700 LINE"
);
}
);
};
layerId = "39D11A97-A6D9-4B52-A6F5-15D5E4373676";
paths = (
{
closed = 1;
nodes = (
"318 383 LINE",
"156 383 LINE",
"156 700 LINE",
"80 700 LINE",
"80 0 LINE",
"156 0 LINE",
"156 315 LINE",
"319 315 LINE",
"513 0 LINE",
"597 0 LINE",
"383 351 LINE",
"582 700 LINE",
"500 700 LINE"
);
}
);
width = 622;
},
{
anchors = (
{
name = bottom;
position = "{333, 0}";
},
{
name = top;
position = "{334, 700}";
}
);
background = {
paths = (
{
closed = 1;
nodes = (
"314 408 LINE",
"201 408 LINE",
"201 700 LINE",
"65 700 LINE",
"65 0 LINE",
"201 0 LINE",
"201 290 LINE",
"316 290 LINE",
"510 0 LINE",
"662 0 LINE",
"432 351 LINE",
"645 700 LINE",
"496 700 LINE"
);
}
);
};
layerId = "5CD77783-8DB3-4580-A509-4627B8D22761";
paths = (
{
closed = 1;
nodes = (
"313 408 LINE",
"201 408 LINE",
"201 700 LINE",
"65 700 LINE",
"65 0 LINE",
"201 0 LINE",
"201 290 LINE",
"312 290 LINE",
"508 0 LINE",
"662 0 LINE",
"426 351 LINE",
"645 700 LINE",
"493 700 LINE"
);
}
);
width = 662;
}
);
leftMetricsKey = "=H";
note = K;
unicode = 004B;
},
{
glyphname = L;
lastChange = "2018-04-17 07:45:32 +0000";
layers = (
{
anchors = (
{
name = bottom;
position = "{300, 0}";
},
{
name = center;
position = "{271, 350}";
},
{
name = top;
position = "{119, 700}";
},
{
name = topright;
position = "{522, 700}";
}
);
background = {
paths = (
{
closed = 1;
nodes = (
"507 0 LINE",
"507 68 LINE",
"151 68 LINE",
"151 700 LINE",
"75 700 LINE",
"75 0 LINE"
);
}
);
};
layerId = "39D11A97-A6D9-4B52-A6F5-15D5E4373676";
paths = (
{
closed = 1;
nodes = (
"512 0 LINE",
"512 68 LINE",
"156 68 LINE",
"156 700 LINE",
"80 700 LINE",
"80 0 LINE"
);
}
);
width = 537;
},
{
anchors = (
{
name = bottom;
position = "{315, 0}";
},
{
name = center;
position = "{286, 350}";
},
{
name = top;
position = "{134, 700}";
},
{
name = topright;
position = "{537, 700}";
}
);
background = {
paths = (
{
closed = 1;
nodes = (
"507 0 LINE",
"507 68 LINE",
"151 68 LINE",
"151 700 LINE",
"75 700 LINE",
"75 0 LINE"
);
}
);
};
layerId = "5CD77783-8DB3-4580-A509-4627B8D22761";
paths = (
{
closed = 1;
nodes = (
"557 0 LINE",
"557 118 LINE",
"201 118 LINE",
"201 700 LINE",
"65 700 LINE",
"65 0 LINE"
);
}
);
width = 572;
}
);
note = L;
unicode = 004C;
},
{
glyphname = M;
lastChange = "2018-04-17 08:39:32 +0000";
layers = (
{
anchors = (
{
name = bottom;
position = "{388, 0}";
},
{
name = top;
position = "{388, 700}";
}
);
background = {
paths = (
{
closed = 1;
nodes = (
"147 0 LINE",
"147 553 LINE",
"351 70 LINE",
"411 70 LINE",
"616 553 LINE",
"616 0 LINE",
"688 0 LINE",
"688 700 LINE",
"609 700 LINE",
"381 154 LINE",
"153 700 LINE",
"75 700 LINE",
"75 0 LINE"
);
}
);
};
layerId = "39D11A97-A6D9-4B52-A6F5-15D5E4373676";
paths = (
{
closed = 1;
nodes = (
"152 0 LINE",
"152 553 LINE",
"154 553 LINE",
"358 70 LINE",
"418 70 LINE",
"623 553 LINE",
"625 553 LINE",
"625 0 LINE",
"697 0 LINE",
"697 700 LINE",
"614 700 LINE",
"389 158 LINE",
"387 158 LINE",
"162 700 LINE",
"80 700 LINE",
"80 0 LINE"
);
}
);
width = 777;
},
{
anchors = (
{
name = bottom;
position = "{403, 0}";
},
{
name = top;
position = "{403, 700}";
}
);
background = {
paths = (
{
closed = 1;
nodes = (
"196 0 LINE",
"196 426 LINE",
"198 426 LINE",
"361 98 LINE",
"445 98 LINE",
"609 426 LINE",
"611 426 LINE",
"611 0 LINE",
"742 0 LINE",
"742 700 LINE",
"616 700 LINE",
"404 248 LINE",
"402 248 LINE",
"191 700 LINE",
"65 700 LINE",
"65 0 LINE"
);
}
);
};
layerId = "5CD77783-8DB3-4580-A509-4627B8D22761";
paths = (
{
closed = 1;
nodes = (
"196 0 LINE",
"196 426 LINE",
"198 426 LINE",
"361 98 LINE",
"445 98 LINE",
"609 426 LINE",
"611 426 LINE",
"611 0 LINE",
"742 0 LINE",
"742 700 LINE",
"616 700 LINE",
"404 248 LINE",
"402 248 LINE",
"191 700 LINE",
"65 700 LINE",
"65 0 LINE"
);
}
);
width = 807;
}
);
note = M;
rightMetricsKey = "=|";
unicode = 004D;
},
{
glyphname = N;
lastChange = "2018-04-17 08:40:16 +0000";
layers = (
{
anchors = (
{
name = bottom;
position = "{336, 0}";
},
{
name = top;
position = "{336, 700}";
}
);
background = {
paths = (
{
closed = 1;
nodes = (
"518 124 LINE",
"516 124 LINE",
"154 700 LINE",
"80 700 LINE",
"80 0 LINE",
"152 0 LINE",
"152 576 LINE",
"154 576 LINE",
"516 0 LINE",
"590 0 LINE",
"590 700 LINE",
"518 700 LINE"
);
}
);
};
layerId = "39D11A97-A6D9-4B52-A6F5-15D5E4373676";
paths = (
{
closed = 1;
nodes = (
"520 124 LINE",
"518 124 LINE",
"154 700 LINE",
"80 700 LINE",
"80 0 LINE",
"152 0 LINE",
"152 576 LINE",
"154 576 LINE",
"518 0 LINE",
"592 0 LINE",
"592 700 LINE",
"520 700 LINE"
);
}
);
width = 672;
},
{
anchors = (
{
name = bottom;
position = "{351, 0}";
},
{
name = top;
position = "{351, 700}";
}
);
background = {
paths = (
{
closed = 1;
nodes = (
"505 237 LINE",
"503 237 LINE",
"187 700 LINE",
"65 700 LINE",
"65 0 LINE",
"197 0 LINE",
"197 464 LINE",
"199 464 LINE",
"515 0 LINE",
"637 0 LINE",
"637 700 LINE",
"505 700 LINE"
);
}
);
};
layerId = "5CD77783-8DB3-4580-A509-4627B8D22761";
paths = (
{
closed = 1;
nodes = (
"506 225 LINE",
"504 225 LINE",
"187 700 LINE",
"65 700 LINE",
"65 0 LINE",
"196 0 LINE",
"196 474 LINE",
"198 474 LINE",
"515 0 LINE",
"637 0 LINE",
"637 700 LINE",
"506 700 LINE"
);
}
);
width = 702;
}
);
note = N;
rightMetricsKey = "=|";
unicode = 004E;
},
{
glyphname = O;
lastChange = "2018-04-17 07:45:32 +0000";
layers = (
{
anchors = (
{
name = bottom;
position = "{339, 0}";
},
{
name = center;
position = "{339, 350}";
},
{
name = ogonek;
position = "{614, 10}";
},
{
name = top;
position = "{339, 700}";
},
{
name = topleft;
position = "{15, 700}";
},
{
name = topright;
position = "{608, 518}";
}
);
background = {
paths = (
{
closed = 1;
nodes = (
"493 0 LINE",
"603 110 LINE",
"603 590 LINE",
"493 700 LINE",
"175 700 LINE",
"65 590 LINE",
"65 110 LINE",
"175 0 LINE"
);
},
{
closed = 1;
nodes = (
"141 134 LINE",
"141 566 LINE",
"209 632 LINE",
"459 632 LINE",
"527 566 LINE",
"527 134 LINE",
"459 68 LINE",
"209 68 LINE"
);
}
);
};
layerId = "39D11A97-A6D9-4B52-A6F5-15D5E4373676";
paths = (
{
closed = 1;
nodes = (
"498 0 LINE",
"608 110 LINE",
"608 590 LINE",
"498 700 LINE",
"180 700 LINE",
"70 590 LINE",
"70 110 LINE",
"180 0 LINE"
);
},
{
closed = 1;
nodes = (
"146 135 LINE",
"146 565 LINE",
"214 632 LINE",
"464 632 LINE",
"532 565 LINE",
"532 135 LINE",
"464 68 LINE",
"214 68 LINE"
);
}
);
width = 678;
},
{
anchors = (
{
name = bottom;
position = "{354, 0}";
},
{
name = center;
position = "{354, 350}";
},
{
name = ogonek;
position = "{629, 10}";
},
{
name = top;
position = "{354, 700}";
},
{
name = topleft;
position = "{30, 700}";
},
{
name = topright;
position = "{623, 518}";
}
);
background = {
paths = (
{
closed = 1;
nodes = (
"512 0 LINE",
"638 126 LINE",
"638 574 LINE",
"512 700 LINE",
"166 700 LINE",
"40 574 LINE",
"40 126 LINE",
"166 0 LINE"
);
},
{
closed = 1;
nodes = (
"176 171 LINE",
"176 529 LINE",
"227 580 LINE",
"451 580 LINE",
"502 529 LINE",
"502 171 LINE",
"451 120 LINE",
"227 120 LINE"
);
}
);
};
layerId = "5CD77783-8DB3-4580-A509-4627B8D22761";
paths = (
{
closed = 1;
nodes = (
"527 0 LINE",
"653 126 LINE",
"653 574 LINE",
"527 700 LINE",
"181 700 LINE",
"55 574 LINE",
"55 126 LINE",
"181 0 LINE"
);
},
{
closed = 1;
nodes = (
"191 171 LINE",
"191 529 LINE",
"245 582 LINE",
"463 582 LINE",
"517 529 LINE",
"517 171 LINE",
"463 118 LINE",
"245 118 LINE"
);
}
);
width = 708;
}
);
note = O;
rightMetricsKey = "=|";
unicode = 004F;
},
{
glyphname = P;
lastChange = "2018-04-17 08:05:35 +0000";
layers = (
{
anchors = (
{
name = bottom;
position = "{311, 0}";
},
{
name = top;
position = "{311, 700}";
}
);
background = {
paths = (
{
closed = 1;
nodes = (
"151 0 LINE",
"151 290 LINE",
"474 290 LINE",
"567 383 LINE",
"567 608 LINE",
"475 700 LINE",
"75 700 LINE",
"75 0 LINE"
);
},
{
closed = 1;
nodes = (
"151 634 LINE",
"443 634 LINE",
"493 584 LINE",
"493 406 LINE",
"443 356 LINE",
"151 356 LINE"
);
}
);
};
layerId = "39D11A97-A6D9-4B52-A6F5-15D5E4373676";
paths = (
{
closed = 1;
nodes = (
"156 0 LINE",
"156 290 LINE",
"479 290 LINE",
"572 383 LINE",
"572 608 LINE",
"480 700 LINE",
"80 700 LINE",
"80 0 LINE"
);
},
{
closed = 1;
nodes = (
"156 634 LINE",
"448 634 LINE",
"498 585 LINE",
"498 405 LINE",
"448 356 LINE",
"156 356 LINE"
);
}
);
width = 622;
},
{
anchors = (
{
name = bottom;
position = "{326, 0}";
},
{
name = top;
position = "{326, 700}";
}
);
background = {
paths = (
{
closed = 1;
nodes = (
"201 0 LINE",
"201 238 LINE",
"508 238 LINE",
"617 347 LINE",
"617 592 LINE",
"509 700 LINE",
"65 700 LINE",
"65 0 LINE"
);
},
{
closed = 1;
nodes = (
"201 584 LINE",
"450 584 LINE",
"483 551 LINE",
"483 387 LINE",
"450 354 LINE",
"201 354 LINE"
);
}
);
};
layerId = "5CD77783-8DB3-4580-A509-4627B8D22761";
paths = (
{
closed = 1;
nodes = (
"201 0 LINE",
"201 238 LINE",
"508 238 LINE",
"617 347 LINE",
"617 592 LINE",
"509 700 LINE",
"65 700 LINE",
"65 0 LINE"
);
},
{
closed = 1;
nodes = (
"201 584 LINE",
"447 584 LINE",
"483 549 LINE",
"483 389 LINE",
"447 354 LINE",
"201 354 LINE"
);
}
);
width = 652;
}
);
note = P;
unicode = 0050;
},
{
glyphname = Q;
lastChange = "2018-04-17 08:38:47 +0000";
layers = (
{
anchors = (
{
name = bottom;
position = "{344, 0}";
},
{
name = top;
position = "{344, 700}";
}
);
background = {
paths = (
{
closed = 1;
nodes = (
"579 -104 LINE",
"623 -60 LINE",
"510 52 LINE",
"475 0 LINE"
);
}
);
};
components = (
{
locked = 1;
name = O;
}
);
layerId = "39D11A97-A6D9-4B52-A6F5-15D5E4373676";
paths = (
{
closed = 1;
nodes = (
"584 -104 LINE",
"630 -58 LINE",
"517 54 LINE",
"480 0 LINE"
);
}
);
width = 678;
},
{
anchors = (
{
name = bottom;
position = "{359, 0}";
},
{
name = top;
position = "{359, 700}";
}
);
background = {
paths = (
{
closed = 1;
nodes = (
"599 -120 LINE",
"685 -34 LINE",
"529 122 LINE",
"458 21 LINE"
);
}
);
};
components = (
{
locked = 1;
name = O;
}
);
layerId = "5CD77783-8DB3-4580-A509-4627B8D22761";
paths = (
{
closed = 1;
nodes = (
"599 -120 LINE",
"685 -34 LINE",
"529 122 LINE",
"458 21 LINE"
);
}
);
width = 708;
}
);
leftMetricsKey = O;
note = Q;
unicode = 0051;
},
{
glyphname = R;
lastChange = "2018-04-17 08:40:57 +0000";
layers = (
{
anchors = (
{
name = bottom;
position = "{328, 0}";
},
{
name = top;
position = "{314, 700}";
}
);
background = {
paths = (
{
closed = 1;
nodes = (
"500 190 LINE",
"500 0 LINE",
"576 0 LINE",
"576 214 LINE",
"450 350 LINE",
"386 314 LINE"
);
},
{
closed = 1;
nodes = (
"156 0 LINE",
"156 294 LINE",
"479 294 LINE",
"572 387 LINE",
"572 608 LINE",
"480 700 LINE",
"80 700 LINE",
"80 0 LINE"
);
},
{
closed = 1;
nodes = (
"156 634 LINE",
"448 634 LINE",
"498 585 LINE",
"498 409 LINE",
"448 360 LINE",
"156 360 LINE"
);
}
);
};
layerId = "39D11A97-A6D9-4B52-A6F5-15D5E4373676";
paths = (
{
closed = 1;
nodes = (
"500 190 LINE",
"502 0 LINE",
"576 0 LINE",
"576 214 LINE",
"450 350 LINE",
"386 314 LINE"
);
},
{
closed = 1;
nodes = (
"156 0 LINE",
"156 294 LINE",
"479 294 LINE",
"572 387 LINE",
"572 608 LINE",
"480 700 LINE",
"80 700 LINE",
"80 0 LINE"
);
},
{
closed = 1;
nodes = (
"156 634 LINE",
"448 634 LINE",
"498 585 LINE",
"498 409 LINE",
"448 360 LINE",
"156 360 LINE"
);
}
);
width = 651;
},
{
anchors = (
{
name = bottom;
position = "{343, 0}";
},
{
name = top;
position = "{329, 700}";
}
);
background = {
paths = (
{
closed = 1;
nodes = (
"485 181 LINE",
"487 0 LINE",
"621 0 LINE",
"621 223 LINE",
"471 385 LINE",
"357 320 LINE"
);
},
{
closed = 1;
nodes = (
"201 0 LINE",
"201 268 LINE",
"508 268 LINE",
"617 377 LINE",
"617 592 LINE",
"509 700 LINE",
"65 700 LINE",
"65 0 LINE"
);
},
{
closed = 1;
nodes = (
"201 584 LINE",
"450 584 LINE",
"483 551 LINE",
"483 417 LINE",
"450 384 LINE",
"201 384 LINE"
);
}
);
};
layerId = "5CD77783-8DB3-4580-A509-4627B8D22761";
paths = (
{
closed = 1;
nodes = (
"483 201 LINE",
"485 0 LINE",
"621 0 LINE",
"621 232 LINE",
"480 385 LINE",
"375 320 LINE"
);
},
{
closed = 1;
nodes = (
"201 0 LINE",
"201 268 LINE",
"505 268 LINE",
"617 380 LINE",
"617 592 LINE",
"509 700 LINE",
"65 700 LINE",
"65 0 LINE"
);
},
{
closed = 1;
nodes = (
"201 584 LINE",
"447 584 LINE",
"483 549 LINE",
"483 417 LINE",
"447 382 LINE",
"201 382 LINE"
);
}
);
width = 681;
}
);
note = R;
unicode = 0052;
},
{
glyphname = S;
lastChange = "2018-04-17 08:14:23 +0000";
layers = (
{
anchors = (
{
name = bottom;
position = "{315, 0}";
},
{
name = top;
position = "{306, 700}";
}
);
background = {
paths = (
{
closed = 1;
nodes = (
"182 393 LINE",
"134 441 LINE",
"134 582 LINE",
"184 632 LINE",
"420 632 LINE",
"470 582 LINE",
"470 543 LINE",
"544 543 LINE",
"544 608 LINE",
"452 700 LINE",
"152 700 LINE",
"60 608 LINE",
"60 417 LINE",
"152 325 LINE",
"430 325 LINE",
"478 277 LINE",
"478 118 LINE",
"428 68 LINE",
"185 68 LINE",
"137 116 LINE",
"137 156 LINE",
"61 156 LINE",
"61 92 LINE",
"153 0 LINE",
"458 0 LINE",
"552 94 LINE",
"552 301 LINE",
"460 393 LINE"
);
}
);
};
layerId = "39D11A97-A6D9-4B52-A6F5-15D5E4373676";
paths = (
{
closed = 1;
nodes = (
"463 0 LINE",
"557 94 LINE",
"557 301 LINE",
"465 393 LINE",
"189 393 LINE",
"139 442 LINE",
"139 583 LINE",
"189 632 LINE",
"425 632 LINE",
"475 583 LINE",
"475 543 LINE",
"549 543 LINE",
"549 608 LINE",
"457 700 LINE",
"157 700 LINE",
"65 608 LINE",
"65 417 LINE",
"157 325 LINE",
"433 325 LINE",
"483 276 LINE",
"483 119 LINE",
"433 68 LINE",
"190 68 LINE",
"142 117 LINE",
"142 156 LINE",
"66 156 LINE",
"66 92 LINE",
"158 0 LINE"
);
}
);
width = 617;
},
{
anchors = (
{
name = bottom;
position = "{330, 0}";
},
{
name = top;
position = "{321, 700}";
}
);
background = {
paths = (
{
closed = 1;
nodes = (
"492 0 LINE",
"602 110 LINE",
"602 310 LINE",
"494 418 LINE",
"217 418 LINE",
"184 451 LINE",
"184 549 LINE",
"217 582 LINE",
"427 582 LINE",
"460 549 LINE",
"460 491 LINE",
"594 491 LINE",
"594 592 LINE",
"486 700 LINE",
"158 700 LINE",
"50 592 LINE",
"50 408 LINE",
"158 300 LINE",
"435 300 LINE",
"468 267 LINE",
"468 152 LINE",
"434 118 LINE",
"219 118 LINE",
"187 150 LINE",
"187 208 LINE",
"51 208 LINE",
"51 108 LINE",
"159 0 LINE"
);
}
);
};
layerId = "5CD77783-8DB3-4580-A509-4627B8D22761";
paths = (
{
closed = 1;
nodes = (
"492 0 LINE",
"602 110 LINE",
"602 309 LINE",
"494 417 LINE",
"217 417 LINE",
"184 450 LINE",
"184 549 LINE",
"218 582 LINE",
"426 582 LINE",
"460 549 LINE",
"460 491 LINE",
"594 491 LINE",
"594 592 LINE",
"486 700 LINE",
"158 700 LINE",
"50 592 LINE",
"50 407 LINE",
"158 299 LINE",
"435 299 LINE",
"468 266 LINE",
"468 152 LINE",
"433 118 LINE",
"219 118 LINE",
"185 151 LINE",
"185 208 LINE",
"51 208 LINE",
"51 108 LINE",
"159 0 LINE"
);
}
);
width = 647;
}
);
note = S;
unicode = 0053;
},
{
glyphname = T;
lastChange = "2018-04-17 07:45:32 +0000";
layers = (
{
anchors = (
{
name = bottom;
position = "{280, 0}";
},
{
name = center;
position = "{280, 350}";
},
{
name = top;
position = "{280, 700}";
}
);
background = {
paths = (
{
closed = 1;
nodes = (
"25 700 LINE",
"25 634 LINE",
"238 634 LINE",
"238 0 LINE",
"312 0 LINE",
"312 634 LINE",
"525 634 LINE",
"525 700 LINE"
);
}
);
};
layerId = "39D11A97-A6D9-4B52-A6F5-15D5E4373676";
paths = (
{
closed = 1;
nodes = (
"318 0 LINE",
"318 632 LINE",
"530 632 LINE",
"530 700 LINE",
"30 700 LINE",
"30 632 LINE",
"242 632 LINE",
"242 0 LINE"
);
}
);
width = 560;
},
{
anchors = (
{
name = bottom;
position = "{295, 0}";
},
{
name = center;
position = "{295, 350}";
},
{
name = top;
position = "{295, 700}";
}
);
background = {
paths = (
{
closed = 1;
nodes = (
"25 700 LINE",
"25 634 LINE",
"238 634 LINE",
"238 0 LINE",
"312 0 LINE",
"312 634 LINE",
"525 634 LINE",
"525 700 LINE"
);
}
);
};
layerId = "5CD77783-8DB3-4580-A509-4627B8D22761";
paths = (
{
closed = 1;
nodes = (
"363 0 LINE",
"363 582 LINE",
"575 582 LINE",
"575 700 LINE",
"15 700 LINE",
"15 582 LINE",
"227 582 LINE",
"227 0 LINE"
);
}
);
width = 590;
}
);
note = T;
rightMetricsKey = "=|";
unicode = 0054;
},
{
glyphname = U;
lastChange = "2018-04-17 08:42:29 +0000";
layers = (
{
anchors = (
{
name = bottom;
position = "{337, 0}";
},
{
name = ogonek;
position = "{486, 0}";
},
{
name = top;
position = "{338, 700}";
},
{
name = topright;
position = "{628, 518}";
}
);
background = {
paths = (
{
closed = 1;
nodes = (
"479 0 LINE",
"589 110 LINE",
"589 700 LINE",
"513 700 LINE",
"513 134 LINE",
"445 68 LINE",
"219 68 LINE",
"151 134 LINE",
"151 700 LINE",
"75 700 LINE",
"75 110 LINE",
"185 0 LINE"
);
}
);
};
layerId = "39D11A97-A6D9-4B52-A6F5-15D5E4373676";
paths = (
{
closed = 1;
nodes = (
"486 0 LINE",
"596 110 LINE",
"596 700 LINE",
"520 700 LINE",
"520 135 LINE",
"452 68 LINE",
"224 68 LINE",
"156 135 LINE",
"156 700 LINE",
"80 700 LINE",
"80 110 LINE",
"190 0 LINE"
);
}
);
width = 676;
},
{
anchors = (
{
name = bottom;
position = "{352, 0}";
},
{
name = ogonek;
position = "{501, 0}";
},
{
name = top;
position = "{353, 700}";
},
{
name = topright;
position = "{643, 518}";
}
);
background = {
paths = (
{
closed = 1;
nodes = (
"515 0 LINE",
"641 126 LINE",
"641 700 LINE",
"505 700 LINE",
"505 169 LINE",
"454 118 LINE",
"252 118 LINE",
"201 169 LINE",
"201 700 LINE",
"65 700 LINE",
"65 126 LINE",
"191 0 LINE"
);
}
);
};
layerId = "5CD77783-8DB3-4580-A509-4627B8D22761";
paths = (
{
closed = 1;
nodes = (
"515 0 LINE",
"641 126 LINE",
"641 700 LINE",
"505 700 LINE",
"505 171 LINE",
"451 118 LINE",
"255 118 LINE",
"201 171 LINE",
"201 700 LINE",
"65 700 LINE",
"65 126 LINE",
"191 0 LINE"
);
}
);
width = 706;
}
);
note = U;
rightMetricsKey = "=|";
unicode = 0055;
},
{
glyphname = V;
lastChange = "2018-04-17 08:43:23 +0000";
layers = (
{
anchors = (
{
name = bottom;
position = "{318, 0}";
},
{
name = top;
position = "{318, 700}";
}
);
background = {
paths = (
{
closed = 1;
nodes = (
"31 700 LINE",
"274 0 LINE",
"352 0 LINE",
"595 700 LINE",
"515 700 LINE",
"314 100 LINE",
"312 100 LINE",
"113 700 LINE"
);
}
);
};
layerId = "39D11A97-A6D9-4B52-A6F5-15D5E4373676";
paths = (
{
closed = 1;
nodes = (
"359 0 LINE",
"606 700 LINE",
"527 700 LINE",
"319 91 LINE",
"317 91 LINE",
"109 700 LINE",
"30 700 LINE",
"277 0 LINE"
);
}
);
width = 636;
},
{
anchors = (
{
name = bottom;
position = "{334, 0}";
},
{
name = top;
position = "{334, 700}";
}
);
background = {
paths = (
{
closed = 1;
nodes = (
"397 0 LINE",
"663 700 LINE",
"521 700 LINE",
"335 165 LINE",
"333 165 LINE",
"147 700 LINE",
"5 700 LINE",
"271 0 LINE"
);
}
);
};
layerId = "5CD77783-8DB3-4580-A509-4627B8D22761";
paths = (
{
closed = 1;
nodes = (
"396 0 LINE",
"663 700 LINE",
"521 700 LINE",
"335 173 LINE",
"333 173 LINE",
"147 700 LINE",
"5 700 LINE",
"272 0 LINE"
);
}
);
width = 668;
}
);
note = V;
rightMetricsKey = "=|";
unicode = 0056;
},
{
glyphname = W;
lastChange = "2018-04-17 08:26:53 +0000";
layers = (
{
anchors = (
{
name = bottom;
position = "{432, 0}";
},
{
name = top;
position = "{432, 700}";
}
);
background = {
paths = (
{
closed = 1;
nodes = (
"631 90 LINE",
"629 90 LINE",
"461 640 LINE",
"393 640 LINE",
"224 100 LINE",
"222 100 LINE",
"111 700 LINE",
"35 700 LINE",
"176 0 LINE",
"258 0 LINE",
"426 540 LINE",
"428 540 LINE",
"595 0 LINE",
"677 0 LINE",
"818 700 LINE",
"742 700 LINE"
);
}
);
};
layerId = "39D11A97-A6D9-4B52-A6F5-15D5E4373676";
paths = (
{
closed = 1;
nodes = (
"636 96 LINE",
"634 96 LINE",
"466 640 LINE",
"398 640 LINE",
"231 106 LINE",
"229 106 LINE",
"117 700 LINE",
"40 700 LINE",
"181 0 LINE",
"263 0 LINE",
"431 537 LINE",
"433 537 LINE",
"600 0 LINE",
"682 0 LINE",
"823 700 LINE",
"746 700 LINE"
);
}
);
width = 863;
},
{
anchors = (
{
name = bottom;
position = "{447, 0}";
},
{
name = top;
position = "{447, 700}";
}
);
background = {
paths = (
{
closed = 1;
nodes = (
"644 201 LINE",
"642 201 LINE",
"502 640 LINE",
"392 640 LINE",
"251 201 LINE",
"249 201 LINE",
"157 700 LINE",
"19 700 LINE",
"173 0 LINE",
"299 0 LINE",
"446 448 LINE",
"448 448 LINE",
"594 0 LINE",
"720 0 LINE",
"874 700 LINE",
"736 700 LINE"
);
}
);
};
layerId = "5CD77783-8DB3-4580-A509-4627B8D22761";
paths = (
{
closed = 1;
nodes = (
"642 206 LINE",
"640 206 LINE",
"501 640 LINE",
"393 640 LINE",
"253 206 LINE",
"251 206 LINE",
"157 700 LINE",
"19 700 LINE",
"175 0 LINE",
"299 0 LINE",
"446 447 LINE",
"448 447 LINE",
"594 0 LINE",
"718 0 LINE",
"874 700 LINE",
"736 700 LINE"
);
}
);
width = 893;
}
);
note = W;
rightMetricsKey = "=|";
unicode = 0057;
},
{
glyphname = X;
lastChange = "2018-04-17 08:29:02 +0000";
layers = (
{
anchors = (
{
name = bottom;
position = "{307, 0}";
},
{
name = top;
position = "{307, 700}";
}
);
background = {
paths = (
{
closed = 1;
nodes = (
"579 0 LINE",
"121 700 LINE",
"37 700 LINE",
"495 0 LINE"
);
},
{
closed = 1;
nodes = (
"109 0 LINE",
"567 700 LINE",
"483 700 LINE",
"25 0 LINE"
);
}
);
};
layerId = "39D11A97-A6D9-4B52-A6F5-15D5E4373676";
paths = (
{
closed = 1;
nodes = (
"350 358 LINE",
"572 700 LINE",
"488 700 LINE",
"307 421 LINE",
"126 700 LINE",
"42 700 LINE",
"263 360 LINE",
"30 0 LINE",
"114 0 LINE",
"307 297 LINE",
"500 0 LINE",
"584 0 LINE"
);
}
);
width = 614;
},
{
anchors = (
{
name = bottom;
position = "{343, 0}";
},
{
name = top;
position = "{343, 700}";
}
);
background = {
paths = (
{
closed = 1;
nodes = (
"519 0 LINE",
"671 0 LINE",
"179 700 LINE",
"27 700 LINE"
);
},
{
closed = 1;
nodes = (
"507 700 LINE",
"15 0 LINE",
"167 0 LINE",
"659 700 LINE"
);
}
);
};
layerId = "5CD77783-8DB3-4580-A509-4627B8D22761";
paths = (
{
closed = 1;
nodes = (
"422 359 LINE",
"659 700 LINE",
"507 700 LINE",
"343 458 LINE",
"179 700 LINE",
"27 700 LINE",
"264 359 LINE",
"15 0 LINE",
"167 0 LINE",
"343 259 LINE",
"519 0 LINE",
"671 0 LINE"
);
}
);
width = 686;
}
);
note = X;
rightMetricsKey = "=|";
unicode = 0058;
},
{
glyphname = Y;
lastChange = "2018-04-17 08:33:06 +0000";
layers = (
{
anchors = (
{
name = bottom;
position = "{310, 0}";
},
{
name = top;
position = "{310, 700}";
},
{
name = topleft;
position = "{15, 700}";
}
);
background = {
paths = (
{
closed = 1;
nodes = (
"348 0 LINE",
"348 292 LINE",
"590 700 LINE",
"508 700 LINE",
"311 361 LINE",
"309 361 LINE",
"112 700 LINE",
"30 700 LINE",
"272 292 LINE",
"272 0 LINE"
);
}
);
};
layerId = "39D11A97-A6D9-4B52-A6F5-15D5E4373676";
paths = (
{
closed = 1;
nodes = (
"348 0 LINE",
"348 292 LINE",
"590 700 LINE",
"508 700 LINE",
"311 361 LINE",
"309 361 LINE",
"112 700 LINE",
"30 700 LINE",
"272 292 LINE",
"272 0 LINE"
);
}
);
width = 620;
},
{
anchors = (
{
name = bottom;
position = "{344, 0}";
},
{
name = top;
position = "{344, 700}";
},
{
name = topleft;
position = "{49, 700}";
}
);
background = {
paths = (
{
closed = 1;
nodes = (
"412 0 LINE",
"412 286 LINE",
"673 700 LINE",
"524 700 LINE",
"345 397 LINE",
"343 397 LINE",
"164 700 LINE",
"15 700 LINE",
"276 286 LINE",
"276 0 LINE"
);
}
);
};
layerId = "5CD77783-8DB3-4580-A509-4627B8D22761";
paths = (
{
closed = 1;
nodes = (
"412 0 LINE",
"412 280 LINE",
"673 700 LINE",
"524 700 LINE",
"345 396 LINE",
"343 396 LINE",
"164 700 LINE",
"15 700 LINE",
"276 280 LINE",
"276 0 LINE"
);
}
);
width = 688;
}
);
note = Y;
rightMetricsKey = "=|";
unicode = 0059;
},
{
color = 6;
glyphname = Z;
lastChange = "2018-04-17 08:33:38 +0000";
layers = (
{
anchors = (
{
name = bottom;
position = "{290, 0}";
},
{
name = top;
position = "{294, 700}";
}
);
background = {
paths = (
{
closed = 1;
nodes = (
"60 634 LINE",
"442 634 LINE",
"442 583 LINE",
"50 139 LINE",
"50 0 LINE",
"518 0 LINE",
"518 66 LINE",
"124 66 LINE",
"124 117 LINE",
"518 561 LINE",
"518 700 LINE",
"60 700 LINE"
);
}
);
};
layerId = "39D11A97-A6D9-4B52-A6F5-15D5E4373676";
paths = (
{
closed = 1;
nodes = (
"65 634 LINE",
"447 634 LINE",
"447 582 LINE",
"55 136 LINE",
"55 0 LINE",
"523 0 LINE",
"523 66 LINE",
"131 66 LINE",
"131 118 LINE",
"523 564 LINE",
"523 700 LINE",
"65 700 LINE"
);
}
);
width = 578;
},
{
anchors = (
{
name = bottom;
position = "{305, 0}";
},
{
name = top;
position = "{309, 700}";
}
);
background = {
paths = (
{
closed = 1;
nodes = (
"50 585 LINE",
"429 585 LINE",
"429 573 LINE",
"40 161 LINE",
"40 0 LINE",
"568 0 LINE",
"568 115 LINE",
"179 115 LINE",
"179 127 LINE",
"568 539 LINE",
"568 700 LINE",
"50 700 LINE"
);
}
);
};
layerId = "5CD77783-8DB3-4580-A509-4627B8D22761";
paths = (
{
closed = 1;
nodes = (
"50 585 LINE",
"428 585 LINE",
"428 573 LINE",
"40 161 LINE",
"40 0 LINE",
"568 0 LINE",
"568 115 LINE",
"180 115 LINE",
"180 127 LINE",
"568 539 LINE",
"568 700 LINE",
"50 700 LINE"
);
}
);
width = 608;
}
);
note = Z;
unicode = 005A;
},
{
glyphname = a;
lastChange = "2018-04-17 08:45:20 +0000";
layers = (
{
anchors = (
{
name = bottom;
position = "{291, 0}";
},
{
name = ogonek;
position = "{502, 0}";
},
{
name = top;
position = "{291, 498}";
}
);
background = {
paths = (
{
closed = 1;
nodes = (
"333 0 LINE",
"425 88 LINE",
"425 0 LINE",
"497 0 LINE",
"497 406 LINE",
"405 498 LINE",
"157 498 LINE",
"65 406 LINE",
"65 344 LINE",
"139 344 LINE",
"139 385 LINE",
"189 434 LINE",
"373 434 LINE",
"423 385 LINE",
"423 290 LINE",
"147 290 LINE",
"65 209 LINE",
"65 82 LINE",
"147 0 LINE"
);
},
{
closed = 1;
nodes = (
"139 103 LINE",
"139 187 LINE",
"179 226 LINE",
"423 226 LINE",
"423 167 LINE",
"316 64 LINE",
"179 64 LINE"
);
}
);
};
layerId = "39D11A97-A6D9-4B52-A6F5-15D5E4373676";
paths = (
{
closed = 1;
nodes = (
"338 0 LINE",
"430 88 LINE",
"430 0 LINE",
"502 0 LINE",
"502 406 LINE",
"410 498 LINE",
"166 498 LINE",
"74 406 LINE",
"74 344 LINE",
"148 344 LINE",
"148 385 LINE",
"198 434 LINE",
"378 434 LINE",
"428 385 LINE",
"428 290 LINE",
"152 290 LINE",
"70 209 LINE",
"70 82 LINE",
"152 0 LINE"
);
},
{
closed = 1;
nodes = (
"144 103 LINE",
"144 187 LINE",
"184 226 LINE",
"428 226 LINE",
"428 165 LINE",
"323 64 LINE",
"184 64 LINE"
);
}
);
width = 572;
},
{
anchors = (
{
name = bottom;
position = "{291, 0}";
},
{
name = ogonek;
position = "{502, 0}";
},
{
name = top;
position = "{291, 498}";
}
);
background = {
paths = (
{
closed = 1;
nodes = (
"351 0 LINE",
"400 47 LINE",
"400 0 LINE",
"532 0 LINE",
"532 390 LINE",
"424 498 LINE",
"152 498 LINE",
"44 390 LINE",
"44 328 LINE",
"176 328 LINE",
"176 353 LINE",
"209 386 LINE",
"365 386 LINE",
"398 353 LINE",
"398 314 LINE",
"139 314 LINE",
"40 217 LINE",
"40 98 LINE",
"138 0 LINE"
);
},
{
closed = 1;
nodes = (
"174 137 LINE",
"174 177 LINE",
"197 200 LINE",
"398 200 LINE",
"398 173 LINE",
"337 114 LINE",
"197 114 LINE"
);
}
);
};
layerId = "5CD77783-8DB3-4580-A509-4627B8D22761";
paths = (
{
closed = 1;
nodes = (
"341 0 LINE",
"404 61 LINE",
"404 0 LINE",
"532 0 LINE",
"532 390 LINE",
"424 498 LINE",
"152 498 LINE",
"44 390 LINE",
"44 328 LINE",
"176 328 LINE",
"176 353 LINE",
"209 386 LINE",
"365 386 LINE",
"398 353 LINE",
"398 314 LINE",
"139 314 LINE",
"40 217 LINE",
"40 98 LINE",
"138 0 LINE"
);
},
{
closed = 1;
nodes = (
"174 137 LINE",
"174 177 LINE",
"197 200 LINE",
"398 200 LINE",
"398 173 LINE",
"337 114 LINE",
"197 114 LINE"
);
}
);
width = 572;
}
);
note = a;
rightMetricsKey = n;
unicode = 0061;
},
{
glyphname = b;
lastChange = "2018-04-17 08:45:35 +0000";
layers = (
{
anchors = (
{
name = bottom;
position = "{289, 0}";
},
{
name = top;
position = "{289, 498}";
}
);
background = {
paths = (
{
closed = 1;
nodes = (
"416 0 LINE",
"508 92 LINE",
"508 406 LINE",
"416 498 LINE",
"241 498 LINE",
"144 401 LINE",
"144 710 LINE",
"70 710 LINE",
"70 92 LINE",
"162 0 LINE"
);
},
{
closed = 1;
nodes = (
"144 116 LINE",
"144 314 LINE",
"262 432 LINE",
"384 432 LINE",
"434 382 LINE",
"434 116 LINE",
"384 66 LINE",
"194 66 LINE"
);
}
);
};
layerId = "39D11A97-A6D9-4B52-A6F5-15D5E4373676";
paths = (
{
closed = 1;
nodes = (
"421 0 LINE",
"513 92 LINE",
"513 406 LINE",
"421 498 LINE",
"246 498 LINE",
"149 401 LINE",
"149 714 LINE",
"75 714 LINE",
"75 92 LINE",
"167 0 LINE"
);
},
{
closed = 1;
nodes = (
"149 115 LINE",
"149 314 LINE",
"267 432 LINE",
"389 432 LINE",
"439 383 LINE",
"439 115 LINE",
"389 66 LINE",
"199 66 LINE"
);
}
);
width = 578;
},
{
anchors = (
{
name = bottom;
position = "{289, 0}";
},
{
name = top;
position = "{289, 498}";
}
);
background = {
paths = (
{
closed = 1;
nodes = (
"416 0 LINE",
"508 92 LINE",
"508 406 LINE",
"416 498 LINE",
"241 498 LINE",
"144 401 LINE",
"144 710 LINE",
"70 710 LINE",
"70 92 LINE",
"162 0 LINE"
);
},
{
closed = 1;
nodes = (
"144 116 LINE",
"144 314 LINE",
"262 432 LINE",
"384 432 LINE",
"434 382 LINE",
"434 116 LINE",
"384 66 LINE",
"194 66 LINE"
);
}
);
};
layerId = "5CD77783-8DB3-4580-A509-4627B8D22761";
paths = (
{
closed = 1;
nodes = (
"435 0 LINE",
"543 108 LINE",
"543 390 LINE",
"435 498 LINE",
"232 498 LINE",
"179 445 LINE",
"179 714 LINE",
"45 714 LINE",
"45 108 LINE",
"153 0 LINE"
);
},
{
closed = 1;
nodes = (
"179 151 LINE",
"179 278 LINE",
"281 380 LINE",
"376 380 LINE",
"409 347 LINE",
"409 151 LINE",
"376 118 LINE",
"212 118 LINE"
);
}
);
width = 578;
}
);
leftMetricsKey = n;
note = b;
rightMetricsKey = o;
unicode = 0062;
},
{
glyphname = c;
lastChange = "2018-04-17 08:45:45 +0000";
layers = (
{
anchors = (
{
name = bottom;
position = "{282, 0}";
},
{
name = top;
position = "{277, 498}";
}
);
background = {
paths = (
{
closed = 1;
nodes = (
"392 0 LINE",
"484 92 LINE",
"484 153 LINE",
"410 153 LINE",
"410 116 LINE",
"360 66 LINE",
"184 66 LINE",
"134 116 LINE",
"134 382 LINE",
"184 432 LINE",
"360 432 LINE",
"410 382 LINE",
"410 345 LINE",
"484 345 LINE",
"484 406 LINE",
"392 498 LINE",
"152 498 LINE",
"60 406 LINE",
"60 92 LINE",
"152 0 LINE"
);
}
);
};
layerId = "39D11A97-A6D9-4B52-A6F5-15D5E4373676";
paths = (
{
closed = 1;
nodes = (
"397 0 LINE",
"489 92 LINE",
"489 153 LINE",
"415 153 LINE",
"415 115 LINE",
"365 66 LINE",
"189 66 LINE",
"139 115 LINE",
"139 383 LINE",
"189 432 LINE",
"365 432 LINE",
"415 383 LINE",
"415 345 LINE",
"489 345 LINE",
"489 406 LINE",
"397 498 LINE",
"157 498 LINE",
"65 406 LINE",
"65 92 LINE",
"157 0 LINE"
);
}
);
width = 534;
},
{
anchors = (
{
name = bottom;
position = "{282, 0}";
},
{
name = top;
position = "{277, 498}";
}
);
background = {
paths = (
{
closed = 1;
nodes = (
"392 0 LINE",
"484 92 LINE",
"484 153 LINE",
"410 153 LINE",
"410 116 LINE",
"360 66 LINE",
"184 66 LINE",
"134 116 LINE",
"134 382 LINE",
"184 432 LINE",
"360 432 LINE",
"410 382 LINE",
"410 345 LINE",
"484 345 LINE",
"484 406 LINE",
"392 498 LINE",
"152 498 LINE",
"60 406 LINE",
"60 92 LINE",
"152 0 LINE"
);
}
);
};
layerId = "5CD77783-8DB3-4580-A509-4627B8D22761";
paths = (
{
closed = 1;
nodes = (
"411 0 LINE",
"519 108 LINE",
"519 205 LINE",
"385 205 LINE",
"385 151 LINE",
"352 118 LINE",
"202 118 LINE",
"169 151 LINE",
"169 347 LINE",
"202 380 LINE",
"352 380 LINE",
"385 347 LINE",
"385 293 LINE",
"519 293 LINE",
"519 390 LINE",
"411 498 LINE",
"143 498 LINE",
"35 390 LINE",
"35 108 LINE",
"143 0 LINE"
);
}
);
width = 534;
}
);
leftMetricsKey = o;
note = c;
unicode = 0063;
},
{
glyphname = d;
lastChange = "2018-04-17 08:45:54 +0000";
layers = (
{
anchors = (
{
name = bottom;
position = "{290, 0}";
},
{
name = center;
position = "{290, 249}";
},
{
name = top;
position = "{290, 498}";
},
{
name = topright;
position = "{560, 498}";
}
);
background = {
paths = (
{
closed = 1;
nodes = (
"409 -208 LINE",
"500 -117 LINE",
"500 498 LINE",
"428 498 LINE",
"428 411 LINE",
"341 498 LINE",
"152 498 LINE",
"60 406 LINE",
"60 92 LINE",
"152 0 LINE",
"334 0 LINE",
"426 83 LINE",
"426 -92 LINE",
"376 -142 LINE",
"144 -142 LINE",
"144 -208 LINE"
);
},
{
closed = 1;
nodes = (
"134 115 LINE",
"134 383 LINE",
"184 432 LINE",
"321 432 LINE",
"426 327 LINE",
"426 163 LINE",
"322 66 LINE",
"184 66 LINE"
);
}
);
};
layerId = "39D11A97-A6D9-4B52-A6F5-15D5E4373676";
paths = (
{
closed = 1;
nodes = (
"433 0 LINE",
"505 0 LINE",
"505 714 LINE",
"431 714 LINE",
"431 426 LINE",
"349 498 LINE",
"157 498 LINE",
"65 406 LINE",
"65 92 LINE",
"157 0 LINE",
"342 0 LINE",
"433 91 LINE"
);
},
{
closed = 1;
nodes = (
"326 66 LINE",
"189 66 LINE",
"139 115 LINE",
"139 383 LINE",
"189 432 LINE",
"335 432 LINE",
"431 348 LINE",
"431 171 LINE"
);
}
);
width = 580;
},
{
anchors = (
{
name = bottom;
position = "{290, 0}";
},
{
name = center;
position = "{290, 249}";
},
{
name = top;
position = "{290, 498}";
},
{
name = topright;
position = "{560, 498}";
}
);
background = {
paths = (
{
closed = 1;
nodes = (
"409 -208 LINE",
"500 -117 LINE",
"500 498 LINE",
"428 498 LINE",
"428 411 LINE",
"341 498 LINE",
"152 498 LINE",
"60 406 LINE",
"60 92 LINE",
"152 0 LINE",
"334 0 LINE",
"426 83 LINE",
"426 -92 LINE",
"376 -142 LINE",
"144 -142 LINE",
"144 -208 LINE"
);
},
{
closed = 1;
nodes = (
"134 115 LINE",
"134 383 LINE",
"184 432 LINE",
"321 432 LINE",
"426 327 LINE",
"426 163 LINE",
"322 66 LINE",
"184 66 LINE"
);
}
);
};
layerId = "5CD77783-8DB3-4580-A509-4627B8D22761";
paths = (
{
closed = 1;
nodes = (
"403 0 LINE",
"535 0 LINE",
"535 714 LINE",
"401 714 LINE",
"401 463 LINE",
"361 498 LINE",
"143 498 LINE",
"35 390 LINE",
"35 108 LINE",
"143 0 LINE",
"356 0 LINE",
"403 47 LINE"
);
},
{
closed = 1;
nodes = (
"312 118 LINE",
"202 118 LINE",
"169 151 LINE",
"169 347 LINE",
"202 380 LINE",
"323 380 LINE",
"401 311 LINE",
"401 207 LINE"
);
}
);
width = 580;
}
);
leftMetricsKey = o;
note = d;
rightMetricsKey = u;
unicode = 0064;
},
{
glyphname = e;
lastChange = "2018-04-17 08:46:25 +0000";
layers = (
{
anchors = (
{
name = bottom;
position = "{283, 0}";
},
{
name = ogonek;
position = "{408, 0}";
},
{
name = top;
position = "{283, 498}";
}
);
background = {
paths = (
{
closed = 1;
nodes = (
"403 0 LINE",
"495 92 LINE",
"495 154 LINE",
"421 154 LINE",
"421 116 LINE",
"371 66 LINE",
"184 66 LINE",
"134 116 LINE",
"134 227 LINE",
"495 227 LINE",
"495 406 LINE",
"403 498 LINE",
"152 498 LINE",
"60 406 LINE",
"60 92 LINE",
"152 0 LINE"
);
},
{
closed = 1;
nodes = (
"134 382 LINE",
"184 432 LINE",
"371 432 LINE",
"421 382 LINE",
"421 291 LINE",
"134 291 LINE"
);
}
);
};
layerId = "39D11A97-A6D9-4B52-A6F5-15D5E4373676";
paths = (
{
closed = 1;
nodes = (
"408 0 LINE",
"500 92 LINE",
"500 154 LINE",
"426 154 LINE",
"426 115 LINE",
"376 66 LINE",
"189 66 LINE",
"139 115 LINE",
"139 227 LINE",
"500 227 LINE",
"501 406 LINE",
"408 498 LINE",
"157 498 LINE",
"65 406 LINE",
"65 92 LINE",
"157 0 LINE"
);
},
{
closed = 1;
nodes = (
"139 383 LINE",
"189 432 LINE",
"376 432 LINE",
"426 383 LINE",
"426 291 LINE",
"139 291 LINE"
);
}
);
width = 561;
},
{
anchors = (
{
name = bottom;
position = "{283, 0}";
},
{
name = ogonek;
position = "{408, 0}";
},
{
name = top;
position = "{283, 498}";
}
);
background = {
paths = (
{
closed = 1;
nodes = (
"403 0 LINE",
"495 92 LINE",
"495 154 LINE",
"421 154 LINE",
"421 116 LINE",
"371 66 LINE",
"184 66 LINE",
"134 116 LINE",
"134 227 LINE",
"495 227 LINE",
"495 406 LINE",
"403 498 LINE",
"152 498 LINE",
"60 406 LINE",
"60 92 LINE",
"152 0 LINE"
);
},
{
closed = 1;
nodes = (
"134 382 LINE",
"184 432 LINE",
"371 432 LINE",
"421 382 LINE",
"421 291 LINE",
"134 291 LINE"
);
}
);
};
layerId = "5CD77783-8DB3-4580-A509-4627B8D22761";
paths = (
{
closed = 1;
nodes = (
"422 0 LINE",
"530 108 LINE",
"530 180 LINE",
"396 180 LINE",
"396 149 LINE",
"363 116 LINE",
"202 116 LINE",
"169 149 LINE",
"169 203 LINE",
"530 203 LINE",
"531 390 LINE",
"422 498 LINE",
"143 498 LINE",
"35 390 LINE",
"35 108 LINE",
"143 0 LINE"
);
},
{
closed = 1;
nodes = (
"169 349 LINE",
"202 382 LINE",
"363 382 LINE",
"396 349 LINE",
"396 293 LINE",
"169 293 LINE"
);
}
);
width = 561;
}
);
leftMetricsKey = o;
note = e;
unicode = 0065;
},
{
glyphname = f;
lastChange = "2018-04-17 08:46:41 +0000";
layers = (
{
anchors = (
{
name = bottom;
position = "{188, 0}";
},
{
name = top;
position = "{188, 498}";
}
);
background = {
paths = (
{
closed = 1;
nodes = (
"189 0 LINE",
"189 432 LINE",
"346 432 LINE",
"346 498 LINE",
"189 498 LINE",
"189 601 LINE",
"234 646 LINE",
"346 646 LINE",
"346 710 LINE",
"202 710 LINE",
"115 623 LINE",
"115 498 LINE",
"25 498 LINE",
"25 432 LINE",
"115 432 LINE",
"115 0 LINE"
);
}
);
};
layerId = "39D11A97-A6D9-4B52-A6F5-15D5E4373676";
paths = (
{
closed = 1;
nodes = (
"194 0 LINE",
"194 432 LINE",
"351 432 LINE",
"351 498 LINE",
"194 498 LINE",
"194 588 LINE",
"239 632 LINE",
"351 632 LINE",
"351 696 LINE",
"207 696 LINE",
"120 609 LINE",
"120 498 LINE",
"30 498 LINE",
"30 432 LINE",
"120 432 LINE",
"120 0 LINE"
);
}
);
width = 381;
},
{
anchors = (
{
name = bottom;
position = "{188, 0}";
},
{
name = top;
position = "{188, 498}";
}
);
background = {
paths = (
{
closed = 1;
nodes = (
"189 0 LINE",
"189 432 LINE",
"346 432 LINE",
"346 498 LINE",
"189 498 LINE",
"189 601 LINE",
"234 646 LINE",
"346 646 LINE",
"346 710 LINE",
"202 710 LINE",
"115 623 LINE",
"115 498 LINE",
"25 498 LINE",
"25 432 LINE",
"115 432 LINE",
"115 0 LINE"
);
}
);
};
layerId = "5CD77783-8DB3-4580-A509-4627B8D22761";
paths = (
{
closed = 1;
nodes = (
"224 0 LINE",
"224 380 LINE",
"381 380 LINE",
"381 498 LINE",
"224 498 LINE",
"224 566 LINE",
"252 594 LINE",
"381 594 LINE",
"381 710 LINE",
"193 710 LINE",
"90 607 LINE",
"90 498 LINE",
"0 498 LINE",
"0 380 LINE",
"90 380 LINE",
"90 0 LINE"
);
}
);
width = 381;
}
);
note = f;
unicode = 0066;
},
{
color = 6;
glyphname = g;
lastChange = "2018-04-17 08:47:38 +0000";
layers = (
{
anchors = (
{
name = bottom;
position = "{288, 0}";
},
{
name = top;
position = "{288, 498}";
}
);
background = {
paths = (
{
closed = 1;
nodes = (
"409 -208 LINE",
"500 -117 LINE",
"500 498 LINE",
"428 498 LINE",
"428 411 LINE",
"341 498 LINE",
"152 498 LINE",
"60 406 LINE",
"60 92 LINE",
"152 0 LINE",
"334 0 LINE",
"426 83 LINE",
"426 -93 LINE",
"376 -142 LINE",
"144 -142 LINE",
"144 -208 LINE"
);
},
{
closed = 1;
nodes = (
"134 115 LINE",
"134 383 LINE",
"184 432 LINE",
"321 432 LINE",
"426 327 LINE",
"426 163 LINE",
"322 66 LINE",
"184 66 LINE"
);
}
);
};
layerId = "39D11A97-A6D9-4B52-A6F5-15D5E4373676";
paths = (
{
closed = 1;
nodes = (
"414 -218 LINE",
"505 -127 LINE",
"505 498 LINE",
"433 498 LINE",
"433 411 LINE",
"346 498 LINE",
"157 498 LINE",
"65 406 LINE",
"65 92 LINE",
"157 0 LINE",
"339 0 LINE",
"431 83 LINE",
"431 -103 LINE",
"381 -152 LINE",
"149 -152 LINE",
"149 -218 LINE"
);
},
{
closed = 1;
nodes = (
"139 115 LINE",
"139 383 LINE",
"189 432 LINE",
"326 432 LINE",
"431 327 LINE",
"431 163 LINE",
"327 66 LINE",
"189 66 LINE"
);
}
);
width = 580;
},
{
anchors = (
{
name = bottom;
position = "{288, 0}";
},
{
name = top;
position = "{288, 498}";
}
);
background = {
paths = (
{
closed = 1;
nodes = (
"409 -208 LINE",
"500 -117 LINE",
"500 498 LINE",
"428 498 LINE",
"428 411 LINE",
"341 498 LINE",
"152 498 LINE",
"60 406 LINE",
"60 92 LINE",
"152 0 LINE",
"334 0 LINE",
"426 83 LINE",
"426 -93 LINE",
"376 -142 LINE",
"144 -142 LINE",
"144 -208 LINE"
);
},
{
closed = 1;
nodes = (
"134 115 LINE",
"134 383 LINE",
"184 432 LINE",
"321 432 LINE",
"426 327 LINE",
"426 163 LINE",
"322 66 LINE",
"184 66 LINE"
);
}
);
};
layerId = "5CD77783-8DB3-4580-A509-4627B8D22761";
paths = (
{
closed = 1;
nodes = (
"428 -208 LINE",
"535 -101 LINE",
"535 498 LINE",
"403 498 LINE",
"403 455 LINE",
"360 498 LINE",
"143 498 LINE",
"35 390 LINE",
"35 108 LINE",
"143 0 LINE",
"352 0 LINE",
"401 45 LINE",
"401 -57 LINE",
"368 -90 LINE",
"119 -90 LINE",
"119 -208 LINE"
);
},
{
closed = 1;
nodes = (
"169 151 LINE",
"169 347 LINE",
"202 380 LINE",
"312 380 LINE",
"401 291 LINE",
"401 199 LINE",
"314 118 LINE",
"202 118 LINE"
);
}
);
width = 580;
}
);
leftMetricsKey = o;
note = g;
rightMetricsKey = u;
unicode = 0067;
},
{
glyphname = h;
lastChange = "2018-04-17 08:47:19 +0000";
layers = (
{
anchors = (
{
name = bottom;
position = "{287, 0}";
},
{
name = center;
position = "{287, 249}";
},
{
name = top;
position = "{289, 700}";
}
);
background = {
paths = (
{
closed = 1;
nodes = (
"149 0 LINE",
"149 308 LINE",
"273 432 LINE",
"373 432 LINE",
"423 383 LINE",
"423 0 LINE",
"497 0 LINE",
"497 406 LINE",
"405 498 LINE",
"253 498 LINE",
"149 394 LINE",
"149 724 LINE",
"75 724 LINE",
"75 0 LINE"
);
}
);
};
layerId = "39D11A97-A6D9-4B52-A6F5-15D5E4373676";
paths = (
{
closed = 1;
nodes = (
"149 0 LINE",
"149 308 LINE",
"273 432 LINE",
"375 432 LINE",
"425 383 LINE",
"425 0 LINE",
"499 0 LINE",
"499 406 LINE",
"407 498 LINE",
"253 498 LINE",
"149 394 LINE",
"149 724 LINE",
"75 724 LINE",
"75 0 LINE"
);
}
);
width = 569;
},
{
anchors = (
{
name = bottom;
position = "{287, 0}";
},
{
name = center;
position = "{287, 249}";
},
{
name = top;
position = "{289, 700}";
}
);
background = {
paths = (
{
closed = 1;
nodes = (
"149 0 LINE",
"149 308 LINE",
"273 432 LINE",
"373 432 LINE",
"423 383 LINE",
"423 0 LINE",
"497 0 LINE",
"497 406 LINE",
"405 498 LINE",
"253 498 LINE",
"149 394 LINE",
"149 724 LINE",
"75 724 LINE",
"75 0 LINE"
);
}
);
};
layerId = "5CD77783-8DB3-4580-A509-4627B8D22761";
paths = (
{
closed = 1;
nodes = (
"179 0 LINE",
"179 272 LINE",
"287 380 LINE",
"362 380 LINE",
"395 347 LINE",
"395 0 LINE",
"529 0 LINE",
"529 390 LINE",
"421 498 LINE",
"239 498 LINE",
"179 438 LINE",
"179 724 LINE",
"45 724 LINE",
"45 0 LINE"
);
}
);
width = 569;
}
);
leftMetricsKey = n;
note = h;
rightMetricsKey = n;
unicode = 0068;
},
{
glyphname = i;
lastChange = "2018-04-17 08:47:30 +0000";
layers = (
{
anchors = (
{
name = bottom;
position = "{122, 0}";
},
{
name = ogonek;
position = "{159, 0}";
}
);
background = {
paths = (
{
closed = 1;
nodes = (
"154 0 LINE",
"154 498 LINE",
"80 498 LINE",
"80 0 LINE"
);
},
{
closed = 1;
nodes = (
"95 700 LINE",
"65 670 LINE",
"65 626 LINE",
"95 596 LINE",
"139 596 LINE",
"169 626 LINE",
"169 670 LINE",
"139 700 LINE"
);
}
);
};
layerId = "39D11A97-A6D9-4B52-A6F5-15D5E4373676";
paths = (
{
closed = 1;
nodes = (
"159 0 LINE",
"159 498 LINE",
"85 498 LINE",
"85 0 LINE"
);
},
{
closed = 1;
nodes = (
"100 686 LINE",
"70 656 LINE",
"70 612 LINE",
"100 582 LINE",
"144 582 LINE",
"174 612 LINE",
"174 656 LINE",
"144 686 LINE"
);
}
);
width = 244;
},
{
anchors = (
{
name = bottom;
position = "{122, 0}";
},
{
name = ogonek;
position = "{159, 0}";
}
);
background = {
paths = (
{
closed = 1;
nodes = (
"154 0 LINE",
"154 498 LINE",
"80 498 LINE",
"80 0 LINE"
);
},
{
closed = 1;
nodes = (
"95 700 LINE",
"65 670 LINE",
"65 626 LINE",
"95 596 LINE",
"139 596 LINE",
"169 626 LINE",
"169 670 LINE",
"139 700 LINE"
);
}
);
};
layerId = "5CD77783-8DB3-4580-A509-4627B8D22761";
paths = (
{
closed = 1;
nodes = (
"189 0 LINE",
"189 498 LINE",
"55 498 LINE",
"55 0 LINE"
);
},
{
closed = 1;
nodes = (
"86 686 LINE",
"40 640 LINE",
"40 576 LINE",
"86 530 LINE",
"158 530 LINE",
"204 576 LINE",
"204 640 LINE",
"158 686 LINE"
);
}
);
width = 244;
}
);
note = i;
unicode = 0069;
},
{
glyphname = j;
lastChange = "2018-04-17 08:47:44 +0000";
layers = (
{
background = {
paths = (
{
closed = 1;
nodes = (
"40 -152 LINE",
"-60 -152 LINE",
"-60 -218 LINE",
"73 -218 LINE",
"164 -127 LINE",
"164 497 LINE",
"90 497 LINE",
"90 -102 LINE"
);
},
{
closed = 1;
nodes = (
"105 700 LINE",
"75 670 LINE",
"75 626 LINE",
"105 596 LINE",
"149 596 LINE",
"179 626 LINE",
"179 670 LINE",
"149 700 LINE"
);
}
);
};
layerId = "39D11A97-A6D9-4B52-A6F5-15D5E4373676";
paths = (
{
closed = 1;
nodes = (
"78 -218 LINE",
"169 -127 LINE",
"169 498 LINE",
"95 498 LINE",
"95 -103 LINE",
"45 -152 LINE",
"-55 -152 LINE",
"-55 -218 LINE"
);
},
{
closed = 1;
nodes = (
"154 582 LINE",
"184 612 LINE",
"184 656 LINE",
"154 686 LINE",
"110 686 LINE",
"80 656 LINE",
"80 612 LINE",
"110 582 LINE"
);
}
);
width = 254;
},
{
background = {
paths = (
{
closed = 1;
nodes = (
"40 -152 LINE",
"-60 -152 LINE",
"-60 -218 LINE",
"73 -218 LINE",
"164 -127 LINE",
"164 497 LINE",
"90 497 LINE",
"90 -102 LINE"
);
},
{
closed = 1;
nodes = (
"105 700 LINE",
"75 670 LINE",
"75 626 LINE",
"105 596 LINE",
"149 596 LINE",
"179 626 LINE",
"179 670 LINE",
"149 700 LINE"
);
}
);
};
layerId = "5CD77783-8DB3-4580-A509-4627B8D22761";
paths = (
{
closed = 1;
nodes = (
"92 -218 LINE",
"199 -111 LINE",
"199 498 LINE",
"65 498 LINE",
"65 -67 LINE",
"32 -100 LINE",
"-85 -100 LINE",
"-85 -218 LINE"
);
},
{
closed = 1;
nodes = (
"168 530 LINE",
"214 576 LINE",
"214 640 LINE",
"168 686 LINE",
"96 686 LINE",
"50 640 LINE",
"50 576 LINE",
"96 530 LINE"
);
}
);
width = 254;
}
);
note = j;
unicode = 006A;
},
{
glyphname = k;
lastChange = "2018-04-17 08:47:55 +0000";
layers = (
{
anchors = (
{
name = bottom;
position = "{274, 0}";
},
{
name = top;
position = "{267, 498}";
}
);
background = {
paths = (
{
closed = 1;
nodes = (
"144 0 LINE",
"144 226 LINE",
"260 226 LINE",
"417 0 LINE",
"499 0 LINE",
"321 258 LINE",
"489 498 LINE",
"407 498 LINE",
"260 292 LINE",
"144 292 LINE",
"144 710 LINE",
"70 710 LINE",
"70 0 LINE"
);
}
);
};
layerId = "39D11A97-A6D9-4B52-A6F5-15D5E4373676";
paths = (
{
closed = 1;
nodes = (
"149 0 LINE",
"149 226 LINE",
"266 226 LINE",
"422 0 LINE",
"504 0 LINE",
"326 258 LINE",
"494 498 LINE",
"412 498 LINE",
"266 292 LINE",
"149 292 LINE",
"149 724 LINE",
"75 724 LINE",
"75 0 LINE"
);
}
);
width = 524;
},
{
anchors = (
{
name = bottom;
position = "{274, 0}";
},
{
name = top;
position = "{267, 498}";
}
);
background = {
paths = (
{
closed = 1;
nodes = (
"144 0 LINE",
"144 226 LINE",
"260 226 LINE",
"417 0 LINE",
"499 0 LINE",
"321 258 LINE",
"489 498 LINE",
"407 498 LINE",
"260 292 LINE",
"144 292 LINE",
"144 710 LINE",
"70 710 LINE",
"70 0 LINE"
);
}
);
};
layerId = "5CD77783-8DB3-4580-A509-4627B8D22761";
paths = (
{
closed = 1;
nodes = (
"179 0 LINE",
"179 200 LINE",
"249 200 LINE",
"405 0 LINE",
"557 0 LINE",
"361 258 LINE",
"547 498 LINE",
"395 498 LINE",
"249 318 LINE",
"179 318 LINE",
"179 724 LINE",
"45 724 LINE",
"45 0 LINE"
);
}
);
width = 524;
}
);
leftMetricsKey = n;
note = k;
unicode = 006B;
},
{
glyphname = l;
lastChange = "2018-04-17 08:48:15 +0000";
layers = (
{
anchors = (
{
name = bottom;
position = "{117, 0}";
},
{
name = center;
position = "{117, 249}";
},
{
name = top;
position = "{117, 724}";
},
{
name = topright;
position = "{219, 498}";
}
);
layerId = "39D11A97-A6D9-4B52-A6F5-15D5E4373676";
paths = (
{
closed = 1;
nodes = (
"154 -4 LINE",
"154 724 LINE",
"80 724 LINE",
"80 -4 LINE"
);
}
);
width = 234;
},
{
anchors = (
{
name = bottom;
position = "{117, 0}";
},
{
name = center;
position = "{117, 249}";
},
{
name = top;
position = "{117, 724}";
},
{
name = topright;
position = "{219, 498}";
}
);
layerId = "5CD77783-8DB3-4580-A509-4627B8D22761";
paths = (
{
closed = 1;
nodes = (
"184 0 LINE",
"184 724 LINE",
"50 724 LINE",
"50 0 LINE"
);
}
);
width = 234;
}
);
note = l;
unicode = 006C;
},
{
color = 6;
glyphname = m;
lastChange = "2018-04-17 08:48:26 +0000";
layers = (
{
anchors = (
{
name = bottom;
position = "{407, 0}";
},
{
name = top;
position = "{399, 498}";
}
);
background = {
paths = (
{
closed = 1;
nodes = (
"653 383 LINE",
"653 0 LINE",
"727 0 LINE",
"727 406 LINE",
"635 498 LINE",
"498 498 LINE",
"420 420 LINE",
"342 498 LINE",
"243 498 LINE",
"147 402 LINE",
"147 498 LINE",
"75 498 LINE",
"75 0 LINE",
"149 0 LINE",
"149 324 LINE",
"257 432 LINE",
"321 432 LINE",
"371 383 LINE",
"371 0 LINE",
"443 0 LINE",
"443 362 LINE",
"513 432 LINE",
"603 432 LINE"
);
}
);
};
layerId = "39D11A97-A6D9-4B52-A6F5-15D5E4373676";
paths = (
{
closed = 1;
nodes = (
"693 383 LINE",
"693 0 LINE",
"767 0 LINE",
"767 406 LINE",
"675 498 LINE",
"518 498 LINE",
"440 420 LINE",
"362 498 LINE",
"243 498 LINE",
"147 402 LINE",
"147 498 LINE",
"75 498 LINE",
"75 0 LINE",
"149 0 LINE",
"149 324 LINE",
"257 432 LINE",
"341 432 LINE",
"391 383 LINE",
"391 0 LINE",
"463 0 LINE",
"463 362 LINE",
"533 432 LINE",
"643 432 LINE"
);
}
);
width = 837;
},
{
anchors = (
{
name = bottom;
position = "{407, 0}";
},
{
name = top;
position = "{399, 498}";
}
);
background = {
paths = (
{
closed = 1;
nodes = (
"653 383 LINE",
"653 0 LINE",
"727 0 LINE",
"727 406 LINE",
"635 498 LINE",
"498 498 LINE",
"420 420 LINE",
"342 498 LINE",
"243 498 LINE",
"147 402 LINE",
"147 498 LINE",
"75 498 LINE",
"75 0 LINE",
"149 0 LINE",
"149 324 LINE",
"257 432 LINE",
"321 432 LINE",
"371 383 LINE",
"371 0 LINE",
"443 0 LINE",
"443 362 LINE",
"513 432 LINE",
"603 432 LINE"
);
}
);
};
layerId = "5CD77783-8DB3-4580-A509-4627B8D22761";
paths = (
{
closed = 1;
nodes = (
"663 347 LINE",
"663 0 LINE",
"797 0 LINE",
"797 390 LINE",
"689 498 LINE",
"504 498 LINE",
"440 434 LINE",
"376 498 LINE",
"229 498 LINE",
"177 446 LINE",
"177 498 LINE",
"45 498 LINE",
"45 0 LINE",
"179 0 LINE",
"179 288 LINE",
"271 380 LINE",
"328 380 LINE",
"361 347 LINE",
"361 0 LINE",
"493 0 LINE",
"493 326 LINE",
"547 380 LINE",
"630 380 LINE"
);
}
);
width = 837;
}
);
leftMetricsKey = n;
note = m;
rightMetricsKey = n;
unicode = 006D;
},
{
glyphname = n;
lastChange = "2018-04-17 08:48:37 +0000";
layers = (
{
anchors = (
{
name = bottom;
position = "{286, 0}";
},
{
name = top;
position = "{289, 498}";
}
);
background = {
paths = (
{
closed = 1;
nodes = (
"144 0 LINE",
"144 308 LINE",
"268 432 LINE",
"368 432 LINE",
"418 382 LINE",
"418 0 LINE",
"492 0 LINE",
"492 406 LINE",
"400 498 LINE",
"248 498 LINE",
"142 392 LINE",
"142 498 LINE",
"70 498 LINE",
"70 0 LINE"
);
}
);
};
layerId = "39D11A97-A6D9-4B52-A6F5-15D5E4373676";
paths = (
{
closed = 1;
nodes = (
"149 0 LINE",
"149 308 LINE",
"273 432 LINE",
"373 432 LINE",
"423 383 LINE",
"423 0 LINE",
"497 0 LINE",
"497 406 LINE",
"405 498 LINE",
"253 498 LINE",
"147 392 LINE",
"147 498 LINE",
"75 498 LINE",
"75 0 LINE"
);
}
);
width = 567;
},
{
anchors = (
{
name = bottom;
position = "{286, 0}";
},
{
name = top;
position = "{289, 498}";
}
);
background = {
paths = (
{
closed = 1;
nodes = (
"144 0 LINE",
"144 308 LINE",
"268 432 LINE",
"368 432 LINE",
"418 382 LINE",
"418 0 LINE",
"492 0 LINE",
"492 406 LINE",
"400 498 LINE",
"248 498 LINE",
"142 392 LINE",
"142 498 LINE",
"70 498 LINE",
"70 0 LINE"
);
}
);
};
layerId = "5CD77783-8DB3-4580-A509-4627B8D22761";
paths = (
{
closed = 1;
nodes = (
"179 0 LINE",
"179 272 LINE",
"287 380 LINE",
"360 380 LINE",
"393 347 LINE",
"393 0 LINE",
"527 0 LINE",
"527 390 LINE",
"419 498 LINE",
"239 498 LINE",
"177 436 LINE",
"177 498 LINE",
"45 498 LINE",
"45 0 LINE"
);
}
);
width = 567;
}
);
note = n;
unicode = 006E;
},
{
glyphname = o;
lastChange = "2018-04-17 08:48:45 +0000";
layers = (
{
anchors = (
{
name = bottom;
position = "{285, 0}";
},
{
name = center;
position = "{285, 249}";
},
{
name = ogonek;
position = "{513, 10}";
},
{
name = top;
position = "{285, 498}";
},
{
name = topright;
position = "{520, 307}";
}
);
background = {
paths = (
{
closed = 1;
nodes = (
"408 0 LINE",
"500 92 LINE",
"500 406 LINE",
"408 498 LINE",
"152 498 LINE",
"60 406 LINE",
"60 92 LINE",
"152 0 LINE"
);
},
{
closed = 1;
nodes = (
"134 116 LINE",
"134 382 LINE",
"184 432 LINE",
"376 432 LINE",
"426 382 LINE",
"426 116 LINE",
"376 66 LINE",
"184 66 LINE"
);
}
);
};
layerId = "39D11A97-A6D9-4B52-A6F5-15D5E4373676";
paths = (
{
closed = 1;
nodes = (
"413 0 LINE",
"505 92 LINE",
"505 406 LINE",
"413 498 LINE",
"157 498 LINE",
"65 406 LINE",
"65 92 LINE",
"157 0 LINE"
);
},
{
closed = 1;
nodes = (
"139 115 LINE",
"139 383 LINE",
"189 432 LINE",
"381 432 LINE",
"431 383 LINE",
"431 115 LINE",
"381 66 LINE",
"189 66 LINE"
);
}
);
width = 570;
},
{
anchors = (
{
name = bottom;
position = "{285, 0}";
},
{
name = center;
position = "{285, 249}";
},
{
name = ogonek;
position = "{513, 10}";
},
{
name = top;
position = "{285, 498}";
},
{
name = topright;
position = "{520, 307}";
}
);
background = {
paths = (
{
closed = 1;
nodes = (
"408 0 LINE",
"500 92 LINE",
"500 406 LINE",
"408 498 LINE",
"152 498 LINE",
"60 406 LINE",
"60 92 LINE",
"152 0 LINE"
);
},
{
closed = 1;
nodes = (
"134 116 LINE",
"134 382 LINE",
"184 432 LINE",
"376 432 LINE",
"426 382 LINE",
"426 116 LINE",
"376 66 LINE",
"184 66 LINE"
);
}
);
};
layerId = "5CD77783-8DB3-4580-A509-4627B8D22761";
paths = (
{
closed = 1;
nodes = (
"427 0 LINE",
"535 108 LINE",
"535 390 LINE",
"427 498 LINE",
"143 498 LINE",
"35 390 LINE",
"35 108 LINE",
"143 0 LINE"
);
},
{
closed = 1;
nodes = (
"169 151 LINE",
"169 347 LINE",
"202 380 LINE",
"368 380 LINE",
"401 347 LINE",
"401 151 LINE",
"368 118 LINE",
"202 118 LINE"
);
}
);
width = 570;
}
);
note = o;
rightMetricsKey = "=|";
unicode = 006F;
},
{
glyphname = p;
lastChange = "2018-04-17 08:49:02 +0000";
layers = (
{
anchors = (
{
name = bottom;
position = "{290, 0}";
},
{
name = top;
position = "{290, 498}";
}
);
background = {
paths = (
{
closed = 1;
nodes = (
"418 0 LINE",
"510 92 LINE",
"510 406 LINE",
"418 498 LINE",
"229 498 LINE",
"134 403 LINE",
"96 351 LINE",
"70 135 LINE",
"229 0 LINE"
);
},
{
closed = 1;
nodes = (
"144 -212 LINE",
"144 197 LINE",
"140 300 LINE",
"140 498 LINE",
"70 498 LINE",
"70 300 LINE",
"70 -212 LINE"
);
},
{
closed = 1;
nodes = (
"144 151 LINE",
"144 324 LINE",
"251 432 LINE",
"386 432 LINE",
"436 382 LINE",
"436 116 LINE",
"386 66 LINE",
"244 66 LINE"
);
}
);
};
layerId = "39D11A97-A6D9-4B52-A6F5-15D5E4373676";
paths = (
{
closed = 1;
nodes = (
"147 498 LINE",
"75 498 LINE",
"75 -212 LINE",
"149 -212 LINE",
"149 72 LINE",
"231 0 LINE",
"423 0 LINE",
"515 92 LINE",
"515 406 LINE",
"423 498 LINE",
"236 498 LINE",
"147 409 LINE"
);
},
{
closed = 1;
nodes = (
"256 432 LINE",
"391 432 LINE",
"441 383 LINE",
"441 115 LINE",
"391 66 LINE",
"245 66 LINE",
"149 153 LINE",
"149 325 LINE"
);
}
);
width = 580;
},
{
anchors = (
{
name = bottom;
position = "{290, 0}";
},
{
name = top;
position = "{290, 498}";
}
);
background = {
paths = (
{
closed = 1;
nodes = (
"418 0 LINE",
"510 92 LINE",
"510 406 LINE",
"418 498 LINE",
"229 498 LINE",
"134 403 LINE",
"96 351 LINE",
"70 135 LINE",
"229 0 LINE"
);
},
{
closed = 1;
nodes = (
"144 -212 LINE",
"144 197 LINE",
"140 300 LINE",
"140 498 LINE",
"70 498 LINE",
"70 300 LINE",
"70 -212 LINE"
);
},
{
closed = 1;
nodes = (
"144 151 LINE",
"144 324 LINE",
"251 432 LINE",
"386 432 LINE",
"436 382 LINE",
"436 116 LINE",
"386 66 LINE",
"244 66 LINE"
);
}
);
};
layerId = "5CD77783-8DB3-4580-A509-4627B8D22761";
paths = (
{
closed = 1;
nodes = (
"177 498 LINE",
"45 498 LINE",
"45 -212 LINE",
"179 -212 LINE",
"179 35 LINE",
"219 0 LINE",
"437 0 LINE",
"545 108 LINE",
"545 390 LINE",
"437 498 LINE",
"222 498 LINE",
"177 453 LINE"
);
},
{
closed = 1;
nodes = (
"270 380 LINE",
"378 380 LINE",
"411 347 LINE",
"411 151 LINE",
"378 118 LINE",
"258 118 LINE",
"179 189 LINE",
"179 289 LINE"
);
}
);
width = 580;
}
);
leftMetricsKey = n;
note = p;
rightMetricsKey = o;
unicode = 0070;
},
{
glyphname = q;
lastChange = "2018-04-17 08:49:14 +0000";
layers = (
{
anchors = (
{
name = bottom;
position = "{287, 0}";
},
{
name = top;
position = "{287, 498}";
}
);
background = {
paths = (
{
closed = 1;
nodes = (
"498 -212 LINE",
"498 406 LINE",
"406 498 LINE",
"152 498 LINE",
"60 406 LINE",
"60 92 LINE",
"152 0 LINE",
"327 0 LINE",
"424 97 LINE",
"424 -212 LINE"
);
},
{
closed = 1;
nodes = (
"134 116 LINE",
"134 382 LINE",
"184 432 LINE",
"374 432 LINE",
"424 382 LINE",
"424 184 LINE",
"306 66 LINE",
"184 66 LINE"
);
}
);
};
layerId = "39D11A97-A6D9-4B52-A6F5-15D5E4373676";
paths = (
{
closed = 1;
nodes = (
"503 -212 LINE",
"503 406 LINE",
"411 498 LINE",
"157 498 LINE",
"65 406 LINE",
"65 92 LINE",
"157 0 LINE",
"332 0 LINE",
"429 97 LINE",
"429 -212 LINE"
);
},
{
closed = 1;
nodes = (
"139 115 LINE",
"139 383 LINE",
"189 432 LINE",
"379 432 LINE",
"429 383 LINE",
"429 184 LINE",
"314 66 LINE",
"189 66 LINE"
);
}
);
width = 573;
},
{
anchors = (
{
name = bottom;
position = "{287, 0}";
},
{
name = top;
position = "{287, 498}";
}
);
background = {
paths = (
{
closed = 1;
nodes = (
"498 -212 LINE",
"498 406 LINE",
"406 498 LINE",
"152 498 LINE",
"60 406 LINE",
"60 92 LINE",
"152 0 LINE",
"327 0 LINE",
"424 97 LINE",
"424 -212 LINE"
);
},
{
closed = 1;
nodes = (
"134 116 LINE",
"134 382 LINE",
"184 432 LINE",
"374 432 LINE",
"424 382 LINE",
"424 184 LINE",
"306 66 LINE",
"184 66 LINE"
);
}
);
};
layerId = "5CD77783-8DB3-4580-A509-4627B8D22761";
paths = (
{
closed = 1;
nodes = (
"533 -212 LINE",
"533 390 LINE",
"425 498 LINE",
"143 498 LINE",
"35 390 LINE",
"35 108 LINE",
"143 0 LINE",
"346 0 LINE",
"399 53 LINE",
"399 -212 LINE"
);
},
{
closed = 1;
nodes = (
"169 151 LINE",
"169 347 LINE",
"202 380 LINE",
"366 380 LINE",
"399 347 LINE",
"399 219 LINE",
"300 118 LINE",
"202 118 LINE"
);
}
);
width = 573;
}
);
leftMetricsKey = o;
note = q;
unicode = 0071;
},
{
glyphname = r;
lastChange = "2018-04-17 08:49:26 +0000";
layers = (
{
anchors = (
{
name = bottom;
position = "{112, 0}";
},
{
name = top;
position = "{217, 498}";
}
);
background = {
paths = (
{
closed = 1;
nodes = (
"144 0 LINE",
"144 326 LINE",
"250 432 LINE",
"358 432 LINE",
"358 498 LINE",
"231 498 LINE",
"142 409 LINE",
"142 498 LINE",
"70 498 LINE",
"70 0 LINE"
);
}
);
};
layerId = "39D11A97-A6D9-4B52-A6F5-15D5E4373676";
paths = (
{
closed = 1;
nodes = (
"149 0 LINE",
"149 326 LINE",
"255 432 LINE",
"365 432 LINE",
"365 498 LINE",
"236 498 LINE",
"147 409 LINE",
"147 498 LINE",
"75 498 LINE",
"75 0 LINE"
);
}
);
width = 390;
},
{
anchors = (
{
name = bottom;
position = "{112, 0}";
},
{
name = top;
position = "{217, 498}";
}
);
background = {
paths = (
{
closed = 1;
nodes = (
"144 0 LINE",
"144 326 LINE",
"250 432 LINE",
"358 432 LINE",
"358 498 LINE",
"231 498 LINE",
"142 409 LINE",
"142 498 LINE",
"70 498 LINE",
"70 0 LINE"
);
}
);
};
layerId = "5CD77783-8DB3-4580-A509-4627B8D22761";
paths = (
{
closed = 1;
nodes = (
"179 0 LINE",
"179 290 LINE",
"269 380 LINE",
"395 380 LINE",
"395 498 LINE",
"222 498 LINE",
"177 453 LINE",
"177 498 LINE",
"45 498 LINE",
"45 0 LINE"
);
}
);
width = 390;
}
);
leftMetricsKey = n;
note = r;
unicode = 0072;
},
{
glyphname = s;
lastChange = "2018-04-17 08:49:38 +0000";
layers = (
{
anchors = (
{
name = bottom;
position = "{264, 0}";
},
{
name = top;
position = "{255, 498}";
}
);
background = {
paths = (
{
closed = 1;
nodes = (
"379 282 LINE",
"163 282 LINE",
"123 322 LINE",
"123 394 LINE",
"163 434 LINE",
"337 434 LINE",
"377 394 LINE",
"377 354 LINE",
"451 354 LINE",
"451 416 LINE",
"369 498 LINE",
"131 498 LINE",
"49 416 LINE",
"49 299 LINE",
"128 220 LINE",
"347 220 LINE",
"387 180 LINE",
"387 104 LINE",
"347 64 LINE",
"159 64 LINE",
"119 104 LINE",
"119 144 LINE",
"45 144 LINE",
"45 82 LINE",
"127 0 LINE",
"379 0 LINE",
"461 82 LINE",
"461 200 LINE"
);
}
);
};
layerId = "39D11A97-A6D9-4B52-A6F5-15D5E4373676";
paths = (
{
closed = 1;
nodes = (
"384 282 LINE",
"168 282 LINE",
"128 322 LINE",
"128 395 LINE",
"168 434 LINE",
"342 434 LINE",
"382 395 LINE",
"382 354 LINE",
"456 354 LINE",
"456 416 LINE",
"374 498 LINE",
"136 498 LINE",
"54 416 LINE",
"54 299 LINE",
"133 220 LINE",
"352 220 LINE",
"392 180 LINE",
"392 103 LINE",
"352 64 LINE",
"164 64 LINE",
"124 103 LINE",
"124 144 LINE",
"50 144 LINE",
"50 82 LINE",
"132 0 LINE",
"384 0 LINE",
"466 82 LINE",
"466 200 LINE"
);
}
);
width = 511;
},
{
anchors = (
{
name = bottom;
position = "{264, 0}";
},
{
name = top;
position = "{255, 498}";
}
);
background = {
paths = (
{
closed = 1;
nodes = (
"379 282 LINE",
"163 282 LINE",
"123 322 LINE",
"123 394 LINE",
"163 434 LINE",
"337 434 LINE",
"377 394 LINE",
"377 354 LINE",
"451 354 LINE",
"451 416 LINE",
"369 498 LINE",
"131 498 LINE",
"49 416 LINE",
"49 299 LINE",
"128 220 LINE",
"347 220 LINE",
"387 180 LINE",
"387 104 LINE",
"347 64 LINE",
"159 64 LINE",
"119 104 LINE",
"119 144 LINE",
"45 144 LINE",
"45 82 LINE",
"127 0 LINE",
"379 0 LINE",
"461 82 LINE",
"461 200 LINE"
);
}
);
};
layerId = "5CD77783-8DB3-4580-A509-4627B8D22761";
paths = (
{
closed = 1;
nodes = (
"398 308 LINE",
"182 308 LINE",
"158 332 LINE",
"158 359 LINE",
"181 382 LINE",
"329 382 LINE",
"352 359 LINE",
"352 328 LINE",
"486 328 LINE",
"486 400 LINE",
"388 498 LINE",
"122 498 LINE",
"24 400 LINE",
"24 289 LINE",
"119 194 LINE",
"338 194 LINE",
"362 170 LINE",
"362 139 LINE",
"339 116 LINE",
"177 116 LINE",
"154 139 LINE",
"154 170 LINE",
"20 170 LINE",
"20 98 LINE",
"118 0 LINE",
"398 0 LINE",
"496 98 LINE",
"496 210 LINE"
);
}
);
width = 511;
}
);
note = s;
unicode = 0073;
},
{
glyphname = t;
lastChange = "2018-04-17 08:50:38 +0000";
layers = (
{
anchors = (
{
name = bottom;
position = "{222, 0}";
},
{
name = center;
position = "{193, 249}";
},
{
name = top;
position = "{157, 638}";
},
{
name = topright;
position = "{365, 498}";
}
);
background = {
paths = (
{
closed = 1;
nodes = (
"350 497 LINE",
"194 497 LINE",
"194 660 LINE",
"120 660 LINE",
"120 92 LINE",
"212 0 LINE",
"350 0 LINE",
"350 65 LINE",
"244 65 LINE",
"194 115 LINE",
"194 431 LINE",
"350 431 LINE"
);
},
{
closed = 1;
nodes = (
"30 432 LINE",
"30 498 LINE",
"120 498 LINE",
"120 432 LINE"
);
}
);
};
layerId = "39D11A97-A6D9-4B52-A6F5-15D5E4373676";
paths = (
{
closed = 1;
nodes = (
"350 498 LINE",
"194 498 LINE",
"194 660 LINE",
"122 660 LINE",
"122 498 LINE",
"30 498 LINE",
"30 432 LINE",
"120 432 LINE",
"120 92 LINE",
"212 0 LINE",
"350 0 LINE",
"350 65 LINE",
"244 65 LINE",
"194 115 LINE",
"194 431 LINE",
"350 431 LINE"
);
}
);
width = 390;
},
{
anchors = (
{
name = bottom;
position = "{222, 0}";
},
{
name = center;
position = "{193, 249}";
},
{
name = top;
position = "{157, 638}";
},
{
name = topright;
position = "{365, 498}";
}
);
background = {
paths = (
{
closed = 1;
nodes = (
"350 497 LINE",
"194 497 LINE",
"194 660 LINE",
"120 660 LINE",
"120 92 LINE",
"212 0 LINE",
"350 0 LINE",
"350 65 LINE",
"244 65 LINE",
"194 115 LINE",
"194 431 LINE",
"350 431 LINE"
);
},
{
closed = 1;
nodes = (
"30 432 LINE",
"30 498 LINE",
"120 498 LINE",
"120 432 LINE"
);
}
);
};
layerId = "5CD77783-8DB3-4580-A509-4627B8D22761";
paths = (
{
closed = 1;
nodes = (
"380 498 LINE",
"224 498 LINE",
"224 661 LINE",
"92 661 LINE",
"92 498 LINE",
"0 498 LINE",
"0 380 LINE",
"90 380 LINE",
"90 108 LINE",
"198 0 LINE",
"380 0 LINE",
"380 117 LINE",
"258 117 LINE",
"224 151 LINE",
"224 380 LINE",
"380 380 LINE"
);
}
);
width = 390;
}
);
note = t;
unicode = 0074;
},
{
glyphname = u;
lastChange = "2018-04-17 08:50:47 +0000";
layers = (
{
anchors = (
{
name = bottom;
position = "{283, 0}";
},
{
name = ogonek;
position = "{490, 0}";
},
{
name = top;
position = "{281, 498}";
},
{
name = topright;
position = "{520, 307}";
}
);
background = {
paths = (
{
closed = 1;
nodes = (
"411 498 LINE",
"411 190 LINE",
"287 66 LINE",
"189 66 LINE",
"139 116 LINE",
"139 498 LINE",
"65 498 LINE",
"65 92 LINE",
"157 0 LINE",
"307 0 LINE",
"413 106 LINE",
"413 0 LINE",
"485 0 LINE",
"485 498 LINE"
);
}
);
};
layerId = "39D11A97-A6D9-4B52-A6F5-15D5E4373676";
paths = (
{
closed = 1;
nodes = (
"416 498 LINE",
"416 190 LINE",
"292 66 LINE",
"194 66 LINE",
"144 115 LINE",
"144 498 LINE",
"70 498 LINE",
"70 92 LINE",
"162 0 LINE",
"312 0 LINE",
"418 106 LINE",
"418 0 LINE",
"490 0 LINE",
"490 498 LINE"
);
}
);
width = 565;
},
{
anchors = (
{
name = bottom;
position = "{283, 0}";
},
{
name = ogonek;
position = "{490, 0}";
},
{
name = top;
position = "{281, 498}";
},
{
name = topright;
position = "{520, 307}";
}
);
background = {
paths = (
{
closed = 1;
nodes = (
"411 498 LINE",
"411 190 LINE",
"287 66 LINE",
"189 66 LINE",
"139 116 LINE",
"139 498 LINE",
"65 498 LINE",
"65 92 LINE",
"157 0 LINE",
"307 0 LINE",
"413 106 LINE",
"413 0 LINE",
"485 0 LINE",
"485 498 LINE"
);
}
);
};
layerId = "5CD77783-8DB3-4580-A509-4627B8D22761";
paths = (
{
closed = 1;
nodes = (
"386 498 LINE",
"386 226 LINE",
"278 118 LINE",
"207 118 LINE",
"174 151 LINE",
"174 498 LINE",
"40 498 LINE",
"40 108 LINE",
"148 0 LINE",
"326 0 LINE",
"388 62 LINE",
"388 0 LINE",
"520 0 LINE",
"520 498 LINE"
);
}
);
width = 565;
}
);
note = u;
unicode = 0075;
},
{
glyphname = v;
lastChange = "2018-04-17 08:50:56 +0000";
layers = (
{
anchors = (
{
name = bottom;
position = "{256, 0}";
},
{
name = top;
position = "{256, 498}";
}
);
background = {
paths = (
{
closed = 1;
nodes = (
"253 72 LINE",
"249 72 LINE",
"99 498 LINE",
"25 498 LINE",
"207 0 LINE",
"295 0 LINE",
"477 498 LINE",
"403 498 LINE"
);
}
);
};
layerId = "39D11A97-A6D9-4B52-A6F5-15D5E4373676";
paths = (
{
closed = 1;
nodes = (
"299 0 LINE",
"482 498 LINE",
"406 498 LINE",
"258 74 LINE",
"254 74 LINE",
"106 498 LINE",
"30 498 LINE",
"213 0 LINE"
);
}
);
width = 512;
},
{
anchors = (
{
name = bottom;
position = "{256, 0}";
},
{
name = top;
position = "{256, 498}";
}
);
background = {
paths = (
{
closed = 1;
nodes = (
"253 72 LINE",
"249 72 LINE",
"99 498 LINE",
"25 498 LINE",
"207 0 LINE",
"295 0 LINE",
"477 498 LINE",
"403 498 LINE"
);
}
);
};
layerId = "5CD77783-8DB3-4580-A509-4627B8D22761";
paths = (
{
closed = 1;
nodes = (
"321 0 LINE",
"523 498 LINE",
"384 498 LINE",
"236 126 LINE",
"276 126 LINE",
"128 498 LINE",
"-11 498 LINE",
"191 0 LINE"
);
}
);
width = 512;
}
);
note = v;
rightMetricsKey = "=|";
unicode = 0076;
},
{
glyphname = w;
lastChange = "2018-04-17 08:51:05 +0000";
layers = (
{
anchors = (
{
name = bottom;
position = "{354, 0}";
},
{
name = top;
position = "{354, 498}";
}
);
background = {
paths = (
{
closed = 1;
nodes = (
"503 84 LINE",
"499 84 LINE",
"396 478 LINE",
"312 478 LINE",
"200 84 LINE",
"196 84 LINE",
"109 498 LINE",
"35 498 LINE",
"153 0 LINE",
"237 0 LINE",
"352 394 LINE",
"356 394 LINE",
"459 0 LINE",
"545 0 LINE",
"672 498 LINE",
"598 498 LINE"
);
}
);
};
layerId = "39D11A97-A6D9-4B52-A6F5-15D5E4373676";
paths = (
{
closed = 1;
nodes = (
"503 84 LINE",
"499 84 LINE",
"395 478 LINE",
"313 478 LINE",
"200 84 LINE",
"196 84 LINE",
"109 498 LINE",
"35 498 LINE",
"153 0 LINE",
"237 0 LINE",
"352 394 LINE",
"356 394 LINE",
"459 0 LINE",
"545 0 LINE",
"672 498 LINE",
"598 498 LINE"
);
}
);
width = 707;
},
{
anchors = (
{
name = bottom;
position = "{354, 0}";
},
{
name = top;
position = "{354, 498}";
}
);
background = {
paths = (
{
closed = 1;
nodes = (
"503 84 LINE",
"499 84 LINE",
"396 478 LINE",
"312 478 LINE",
"200 84 LINE",
"196 84 LINE",
"109 498 LINE",
"35 498 LINE",
"153 0 LINE",
"237 0 LINE",
"352 394 LINE",
"356 394 LINE",
"459 0 LINE",
"545 0 LINE",
"672 498 LINE",
"598 498 LINE"
);
}
);
};
layerId = "5CD77783-8DB3-4580-A509-4627B8D22761";
paths = (
{
closed = 1;
nodes = (
"478 136 LINE",
"523 136 LINE",
"419 478 LINE",
"290 478 LINE",
"177 136 LINE",
"221 136 LINE",
"134 498 LINE",
"-2 498 LINE",
"129 0 LINE",
"260 0 LINE",
"375 342 LINE",
"332 342 LINE",
"435 0 LINE",
"569 0 LINE",
"709 498 LINE",
"573 498 LINE"
);
}
);
width = 707;
}
);
note = w;
rightMetricsKey = "=|";
unicode = 0077;
},
{
glyphname = x;
lastChange = "2018-04-17 08:51:13 +0000";
layers = (
{
anchors = (
{
name = bottom;
position = "{254, 0}";
},
{
name = top;
position = "{254, 498}";
}
);
background = {
paths = (
{
closed = 1;
nodes = (
"390 0 LINE",
"473 0 LINE",
"113 498 LINE",
"30 498 LINE"
);
},
{
closed = 1;
nodes = (
"385 498 LINE",
"25 0 LINE",
"108 0 LINE",
"468 498 LINE"
);
}
);
};
layerId = "39D11A97-A6D9-4B52-A6F5-15D5E4373676";
paths = (
{
closed = 1;
nodes = (
"396 0 LINE",
"478 0 LINE",
"117 498 LINE",
"35 498 LINE"
);
},
{
closed = 1;
nodes = (
"391 498 LINE",
"30 0 LINE",
"112 0 LINE",
"473 498 LINE"
);
}
);
width = 508;
},
{
anchors = (
{
name = bottom;
position = "{254, 0}";
},
{
name = top;
position = "{254, 498}";
}
);
background = {
paths = (
{
closed = 1;
nodes = (
"390 0 LINE",
"473 0 LINE",
"113 498 LINE",
"30 498 LINE"
);
},
{
closed = 1;
nodes = (
"385 498 LINE",
"25 0 LINE",
"108 0 LINE",
"468 498 LINE"
);
}
);
};
layerId = "5CD77783-8DB3-4580-A509-4627B8D22761";
paths = (
{
closed = 1;
nodes = (
"379 0 LINE",
"532 0 LINE",
"134 498 LINE",
"-19 498 LINE"
);
},
{
closed = 1;
nodes = (
"374 498 LINE",
"-24 0 LINE",
"129 0 LINE",
"527 498 LINE"
);
}
);
width = 508;
}
);
note = x;
unicode = 0078;
},
{
glyphname = y;
lastChange = "2018-04-17 08:51:24 +0000";
layers = (
{
anchors = (
{
name = bottom;
position = "{286, -218}";
},
{
name = top;
position = "{282, 498}";
}
);
background = {
paths = (
{
closed = 1;
nodes = (
"397 -208 LINE",
"489 -117 LINE",
"489 498 LINE",
"415 498 LINE",
"415 192 LINE",
"289 66 LINE",
"191 66 LINE",
"141 116 LINE",
"141 498 LINE",
"67 498 LINE",
"67 92 LINE",
"159 0 LINE",
"309 0 LINE",
"415 106 LINE",
"415 -92 LINE",
"365 -142 LINE",
"132 -142 LINE",
"132 -208 LINE"
);
}
);
};
layerId = "39D11A97-A6D9-4B52-A6F5-15D5E4373676";
paths = (
{
closed = 1;
nodes = (
"402 -218 LINE",
"494 -127 LINE",
"494 498 LINE",
"420 498 LINE",
"420 192 LINE",
"294 66 LINE",
"194 66 LINE",
"144 115 LINE",
"144 498 LINE",
"70 498 LINE",
"70 92 LINE",
"162 0 LINE",
"314 0 LINE",
"420 106 LINE",
"420 -103 LINE",
"370 -152 LINE",
"137 -152 LINE",
"137 -218 LINE"
);
}
);
width = 569;
},
{
anchors = (
{
name = bottom;
position = "{286, -218}";
},
{
name = top;
position = "{282, 498}";
}
);
background = {
paths = (
{
closed = 1;
nodes = (
"397 -208 LINE",
"489 -117 LINE",
"489 498 LINE",
"415 498 LINE",
"415 192 LINE",
"289 66 LINE",
"191 66 LINE",
"141 116 LINE",
"141 498 LINE",
"67 498 LINE",
"67 92 LINE",
"159 0 LINE",
"309 0 LINE",
"415 106 LINE",
"415 -92 LINE",
"365 -142 LINE",
"132 -142 LINE",
"132 -208 LINE"
);
}
);
};
layerId = "5CD77783-8DB3-4580-A509-4627B8D22761";
paths = (
{
closed = 1;
nodes = (
"415 -208 LINE",
"524 -101 LINE",
"524 498 LINE",
"390 498 LINE",
"390 228 LINE",
"280 118 LINE",
"207 118 LINE",
"174 151 LINE",
"174 498 LINE",
"40 498 LINE",
"40 108 LINE",
"148 0 LINE",
"328 0 LINE",
"390 62 LINE",
"390 -57 LINE",
"357 -90 LINE",
"107 -90 LINE",
"107 -208 LINE"
);
}
);
width = 569;
}
);
leftMetricsKey = u;
note = y;
rightMetricsKey = u;
unicode = 0079;
},
{
color = 6;
glyphname = z;
lastChange = "2018-04-17 08:52:16 +0000";
layers = (
{
anchors = (
{
name = bottom;
position = "{246, 0}";
},
{
name = top;
position = "{247, 498}";
}
);
background = {
paths = (
{
closed = 1;
nodes = (
"50 434 LINE",
"360 434 LINE",
"360 419 LINE",
"40 101 LINE",
"40 0 LINE",
"434 0 LINE",
"434 64 LINE",
"114 64 LINE",
"114 79 LINE",
"434 397 LINE",
"434 498 LINE",
"50 498 LINE"
);
}
);
};
layerId = "39D11A97-A6D9-4B52-A6F5-15D5E4373676";
paths = (
{
closed = 1;
nodes = (
"55 434 LINE",
"365 434 LINE",
"365 416 LINE",
"45 98 LINE",
"45 0 LINE",
"439 0 LINE",
"439 64 LINE",
"119 64 LINE",
"119 82 LINE",
"439 400 LINE",
"439 498 LINE",
"55 498 LINE"
);
}
);
width = 484;
},
{
anchors = (
{
name = bottom;
position = "{246, 0}";
},
{
name = top;
position = "{247, 498}";
}
);
background = {
paths = (
{
closed = 1;
nodes = (
"50 434 LINE",
"360 434 LINE",
"360 419 LINE",
"40 101 LINE",
"40 0 LINE",
"434 0 LINE",
"434 64 LINE",
"114 64 LINE",
"114 79 LINE",
"434 397 LINE",
"434 498 LINE",
"50 498 LINE"
);
}
);
};
layerId = "5CD77783-8DB3-4580-A509-4627B8D22761";
paths = (
{
closed = 1;
nodes = (
"25 390 LINE",
"325 390 LINE",
"325 388 LINE",
"15 134 LINE",
"15 0 LINE",
"469 0 LINE",
"469 108 LINE",
"159 108 LINE",
"159 110 LINE",
"469 364 LINE",
"469 498 LINE",
"25 498 LINE"
);
}
);
width = 484;
}
);
note = z;
unicode = 007A;
},
{
glyphname = AE;
lastChange = "2018-04-17 05:49:00 +0000";
layers = (
{
anchors = (
{
name = bottom;
position = "{470, 0}";
},
{
name = top;
position = "{504, 700}";
}
);
background = {
paths = (
{
closed = 1;
nodes = (
"129 189 LINE",
"487 189 LINE",
"487 257 LINE",
"129 257 LINE"
);
},
{
closed = 1;
nodes = (
"880 700 LINE",
"324 700 LINE",
"15 0 LINE",
"95 0 LINE",
"370 632 LINE",
"440 632 LINE",
"441 0 LINE",
"880 0 LINE",
"880 68 LINE",
"516 68 LINE",
"516 316 LINE",
"851 316 LINE",
"851 384 LINE",
"516 384 LINE",
"516 632 LINE",
"880 632 LINE"
);
}
);
};
layerId = "39D11A97-A6D9-4B52-A6F5-15D5E4373676";
paths = (
{
closed = 1;
nodes = (
"129 189 LINE",
"487 189 LINE",
"487 257 LINE",
"129 257 LINE"
);
},
{
closed = 1;
nodes = (
"880 700 LINE",
"324 700 LINE",
"15 0 LINE",
"95 0 LINE",
"370 632 LINE",
"440 632 LINE",
"440 0 LINE",
"880 0 LINE",
"880 68 LINE",
"516 68 LINE",
"516 316 LINE",
"851 316 LINE",
"851 384 LINE",
"516 384 LINE",
"516 632 LINE",
"880 632 LINE"
);
}
);
width = 940;
},
{
anchors = (
{
name = bottom;
position = "{470, 0}";
},
{
name = top;
position = "{504, 700}";
}
);
background = {
paths = (
{
closed = 1;
nodes = (
"129 189 LINE",
"487 189 LINE",
"487 257 LINE",
"129 257 LINE"
);
},
{
closed = 1;
nodes = (
"880 700 LINE",
"324 700 LINE",
"15 0 LINE",
"95 0 LINE",
"370 632 LINE",
"440 632 LINE",
"441 0 LINE",
"880 0 LINE",
"880 68 LINE",
"516 68 LINE",
"516 316 LINE",
"851 316 LINE",
"851 384 LINE",
"516 384 LINE",
"516 632 LINE",
"880 632 LINE"
);
}
);
};
layerId = "5CD77783-8DB3-4580-A509-4627B8D22761";
paths = (
{
closed = 1;
nodes = (
"129 189 LINE",
"487 189 LINE",
"487 257 LINE",
"129 257 LINE"
);
},
{
closed = 1;
nodes = (
"880 700 LINE",
"324 700 LINE",
"15 0 LINE",
"95 0 LINE",
"370 632 LINE",
"440 632 LINE",
"440 0 LINE",
"880 0 LINE",
"880 68 LINE",
"516 68 LINE",
"516 316 LINE",
"851 316 LINE",
"851 384 LINE",
"516 384 LINE",
"516 632 LINE",
"880 632 LINE"
);
}
);
width = 940;
}
);
note = AE;
rightMetricsKey = E;
unicode = 00C6;
},
{
glyphname = Eth;
lastChange = "2018-04-17 05:49:00 +0000";
layers = (
{
components = (
{
name = D;
transform = "{1, 0, 0, 1, 45, 0}";
}
);
layerId = "39D11A97-A6D9-4B52-A6F5-15D5E4373676";
paths = (
{
closed = 1;
nodes = (
"35 318 LINE",
"370 318 LINE",
"370 384 LINE",
"35 384 LINE"
);
}
);
width = 706;
},
{
components = (
{
name = D;
transform = "{1, 0, 0, 1, 45, 0}";
}
);
layerId = "5CD77783-8DB3-4580-A509-4627B8D22761";
paths = (
{
closed = 1;
nodes = (
"35 318 LINE",
"370 318 LINE",
"370 384 LINE",
"35 384 LINE"
);
}
);
width = 706;
}
);
note = Eth;
unicode = 00D0;
},
{
glyphname = Dcroat;
lastChange = "2018-04-17 05:49:00 +0000";
layers = (
{
components = (
{
name = D;
transform = "{1, 0, 0, 1, 45, 0}";
}
);
layerId = "39D11A97-A6D9-4B52-A6F5-15D5E4373676";
paths = (
{
closed = 1;
nodes = (
"35 318 LINE",
"370 318 LINE",
"370 384 LINE",
"35 384 LINE"
);
}
);
width = 706;
},
{
components = (
{
name = D;
transform = "{1, 0, 0, 1, 45, 0}";
}
);
layerId = "5CD77783-8DB3-4580-A509-4627B8D22761";
paths = (
{
closed = 1;
nodes = (
"35 318 LINE",
"370 318 LINE",
"370 384 LINE",
"35 384 LINE"
);
}
);
width = 706;
}
);
note = Dcroat;
rightKerningGroup = D;
unicode = 0110;
},
{
glyphname = Hbar;
lastChange = "2018-04-17 05:49:00 +0000";
layers = (
{
components = (
{
name = H;
transform = "{1, 0, 0, 1, 55, 0}";
}
);
layerId = "39D11A97-A6D9-4B52-A6F5-15D5E4373676";
paths = (
{
closed = 1;
nodes = (
"35 509 LINE",
"749 509 LINE",
"749 569 LINE",
"35 569 LINE"
);
}
);
width = 784;
},
{
components = (
{
name = H;
transform = "{1, 0, 0, 1, 55, 0}";
}
);
layerId = "5CD77783-8DB3-4580-A509-4627B8D22761";
paths = (
{
closed = 1;
nodes = (
"35 509 LINE",
"749 509 LINE",
"749 569 LINE",
"35 569 LINE"
);
}
);
width = 784;
}
);
note = Hbar;
unicode = 0126;
},
{
glyphname = Lslash;
lastChange = "2018-04-17 05:49:00 +0000";
layers = (
{
components = (
{
name = L;
transform = "{1, 0, 0, 1, 20, 0}";
}
);
layerId = "39D11A97-A6D9-4B52-A6F5-15D5E4373676";
paths = (
{
closed = 1;
nodes = (
"0 210 LINE",
"297 410 LINE",
"297 480 LINE",
"0 280 LINE"
);
}
);
width = 562;
},
{
components = (
{
name = L;
transform = "{1, 0, 0, 1, 20, 0}";
}
);
layerId = "5CD77783-8DB3-4580-A509-4627B8D22761";
paths = (
{
closed = 1;
nodes = (
"0 210 LINE",
"297 410 LINE",
"297 480 LINE",
"0 280 LINE"
);
}
);
width = 562;
}
);
note = Lslash;
unicode = 0141;
},
{
glyphname = Eng;
lastChange = "2018-04-17 05:49:00 +0000";
layers = (
{
layerId = "39D11A97-A6D9-4B52-A6F5-15D5E4373676";
paths = (
{
closed = 1;
nodes = (
"518 124 LINE",
"516 124 LINE",
"154 700 LINE",
"80 700 LINE",
"80 0 LINE",
"152 0 LINE",
"152 576 LINE",
"154 576 LINE",
"516 0 LINE",
"590 0 LINE",
"590 700 LINE",
"518 700 LINE"
);
},
{
closed = 1;
nodes = (
"499 -218 LINE",
"590 -127 LINE",
"590 98 LINE",
"516 98 LINE",
"516 -103 LINE",
"466 -152 LINE",
"366 -152 LINE",
"366 -218 LINE"
);
}
);
width = 670;
},
{
layerId = "5CD77783-8DB3-4580-A509-4627B8D22761";
paths = (
{
closed = 1;
nodes = (
"518 124 LINE",
"516 124 LINE",
"154 700 LINE",
"80 700 LINE",
"80 0 LINE",
"152 0 LINE",
"152 576 LINE",
"154 576 LINE",
"516 0 LINE",
"590 0 LINE",
"590 700 LINE",
"518 700 LINE"
);
},
{
closed = 1;
nodes = (
"499 -218 LINE",
"590 -127 LINE",
"590 98 LINE",
"516 98 LINE",
"516 -103 LINE",
"466 -152 LINE",
"366 -152 LINE",
"366 -218 LINE"
);
}
);
width = 670;
}
);
leftMetricsKey = N;
note = Eng;
rightMetricsKey = N;
unicode = 014A;
},
{
glyphname = Oslash;
lastChange = "2018-04-17 05:49:00 +0000";
layers = (
{
background = {
paths = (
{
closed = 1;
nodes = (
"38 -30 LINE",
"116 -30 LINE",
"650 730 LINE",
"572 730 LINE"
);
}
);
};
components = (
{
name = O;
}
);
layerId = "39D11A97-A6D9-4B52-A6F5-15D5E4373676";
paths = (
{
closed = 1;
nodes = (
"35 -30 LINE",
"113 -30 LINE",
"653 730 LINE",
"575 730 LINE"
);
}
);
width = 688;
},
{
background = {
paths = (
{
closed = 1;
nodes = (
"38 -30 LINE",
"116 -30 LINE",
"650 730 LINE",
"572 730 LINE"
);
}
);
};
components = (
{
name = O;
}
);
layerId = "5CD77783-8DB3-4580-A509-4627B8D22761";
paths = (
{
closed = 1;
nodes = (
"35 -30 LINE",
"113 -30 LINE",
"653 730 LINE",
"575 730 LINE"
);
}
);
width = 688;
}
);
note = Oslash;
unicode = 00D8;
},
{
glyphname = OE;
lastChange = "2018-04-17 05:49:00 +0000";
layers = (
{
background = {
paths = (
{
closed = 1;
nodes = (
"894 643 LINE",
"894 701 LINE",
"135 701 LINE",
"47 613 LINE",
"47 88 LINE",
"135 0 LINE",
"894 0 LINE",
"894 58 LINE",
"568 58 LINE",
"514 112 LINE",
"514 321 LINE",
"865 321 LINE",
"865 380 LINE",
"514 380 LINE",
"514 589 LINE",
"568 643 LINE"
);
},
{
closed = 1;
nodes = (
"105 589 LINE",
"159 643 LINE",
"485 643 LINE",
"456 613 LINE",
"456 88 LINE",
"485 58 LINE",
"159 58 LINE",
"105 112 LINE"
);
}
);
};
layerId = "39D11A97-A6D9-4B52-A6F5-15D5E4373676";
paths = (
{
closed = 1;
nodes = (
"478 0 LINE",
"608 130 LINE",
"608 570 LINE",
"478 700 LINE",
"180 700 LINE",
"70 590 LINE",
"70 110 LINE",
"180 0 LINE"
);
},
{
closed = 1;
nodes = (
"146 135 LINE",
"146 565 LINE",
"214 632 LINE",
"454 632 LINE",
"532 555 LINE",
"532 145 LINE",
"454 68 LINE",
"214 68 LINE"
);
},
{
closed = 1;
nodes = (
"972 0 LINE",
"972 68 LINE",
"608 68 LINE",
"608 316 LINE",
"943 316 LINE",
"943 384 LINE",
"608 384 LINE",
"608 632 LINE",
"972 632 LINE",
"972 700 LINE",
"542 700 LINE",
"542 603 LINE",
"532 585 LINE",
"532 88 LINE",
"542 77 LINE",
"542 0 LINE"
);
}
);
width = 1022;
},
{
background = {
paths = (
{
closed = 1;
nodes = (
"894 643 LINE",
"894 701 LINE",
"135 701 LINE",
"47 613 LINE",
"47 88 LINE",
"135 0 LINE",
"894 0 LINE",
"894 58 LINE",
"568 58 LINE",
"514 112 LINE",
"514 321 LINE",
"865 321 LINE",
"865 380 LINE",
"514 380 LINE",
"514 589 LINE",
"568 643 LINE"
);
},
{
closed = 1;
nodes = (
"105 589 LINE",
"159 643 LINE",
"485 643 LINE",
"456 613 LINE",
"456 88 LINE",
"485 58 LINE",
"159 58 LINE",
"105 112 LINE"
);
}
);
};
layerId = "5CD77783-8DB3-4580-A509-4627B8D22761";
paths = (
{
closed = 1;
nodes = (
"478 0 LINE",
"608 130 LINE",
"608 570 LINE",
"478 700 LINE",
"180 700 LINE",
"70 590 LINE",
"70 110 LINE",
"180 0 LINE"
);
},
{
closed = 1;
nodes = (
"146 135 LINE",
"146 565 LINE",
"214 632 LINE",
"454 632 LINE",
"532 555 LINE",
"532 145 LINE",
"454 68 LINE",
"214 68 LINE"
);
},
{
closed = 1;
nodes = (
"972 0 LINE",
"972 68 LINE",
"608 68 LINE",
"608 316 LINE",
"943 316 LINE",
"943 384 LINE",
"608 384 LINE",
"608 632 LINE",
"972 632 LINE",
"972 700 LINE",
"542 700 LINE",
"542 603 LINE",
"532 585 LINE",
"532 88 LINE",
"542 77 LINE",
"542 0 LINE"
);
}
);
width = 1022;
}
);
leftMetricsKey = O;
note = OE;
rightMetricsKey = E;
unicode = 0152;
},
{
glyphname = Thorn;
lastChange = "2018-04-17 05:49:00 +0000";
layers = (
{
background = {
paths = (
{
closed = 0;
nodes = (
"156 145 LINE",
"479 145 LINE",
"572 238 LINE",
"572 463 LINE",
"480 555 LINE",
"80 555 LINE"
);
},
{
closed = 1;
nodes = (
"156 489 LINE",
"448 489 LINE",
"498 440 LINE",
"498 260 LINE",
"448 211 LINE",
"156 211 LINE"
);
}
);
};
layerId = "39D11A97-A6D9-4B52-A6F5-15D5E4373676";
paths = (
{
closed = 1;
nodes = (
"156 0 LINE",
"156 145 LINE",
"479 145 LINE",
"572 238 LINE",
"572 463 LINE",
"480 555 LINE",
"80 555 LINE",
"80 0 LINE"
);
},
{
closed = 1;
nodes = (
"156 489 LINE",
"448 489 LINE",
"498 440 LINE",
"498 260 LINE",
"448 211 LINE",
"156 211 LINE"
);
},
{
closed = 1;
nodes = (
"80 479 LINE",
"156 479 LINE",
"156 700 LINE",
"80 700 LINE"
);
}
);
width = 622;
},
{
background = {
paths = (
{
closed = 0;
nodes = (
"156 145 LINE",
"479 145 LINE",
"572 238 LINE",
"572 463 LINE",
"480 555 LINE",
"80 555 LINE"
);
},
{
closed = 1;
nodes = (
"156 489 LINE",
"448 489 LINE",
"498 440 LINE",
"498 260 LINE",
"448 211 LINE",
"156 211 LINE"
);
}
);
};
layerId = "5CD77783-8DB3-4580-A509-4627B8D22761";
paths = (
{
closed = 1;
nodes = (
"156 0 LINE",
"156 145 LINE",
"479 145 LINE",
"572 238 LINE",
"572 463 LINE",
"480 555 LINE",
"80 555 LINE",
"80 0 LINE"
);
},
{
closed = 1;
nodes = (
"156 489 LINE",
"448 489 LINE",
"498 440 LINE",
"498 260 LINE",
"448 211 LINE",
"156 211 LINE"
);
},
{
closed = 1;
nodes = (
"80 479 LINE",
"156 479 LINE",
"156 700 LINE",
"80 700 LINE"
);
}
);
width = 622;
}
);
leftMetricsKey = P;
note = Thorn;
rightMetricsKey = P;
unicode = 00DE;
},
{
glyphname = Germandbls;
lastChange = "2018-04-17 05:49:00 +0000";
layers = (
{
background = {
paths = (
{
closed = 1;
nodes = (
"156 0 LINE",
"156 592 LINE",
"201 636 LINE",
"546 636 LINE",
"546 700 LINE",
"169 700 LINE",
"82 613 LINE",
"82 0 LINE"
);
},
{
closed = 1;
nodes = (
"519 392 LINE",
"413 392 LINE",
"546 636 LINE",
"468 636 LINE",
"339 398 LINE",
"339 330 LINE",
"487 330 LINE",
"527 290 LINE",
"527 103 LINE",
"487 64 LINE",
"363 64 LINE",
"323 103 LINE",
"323 144 LINE",
"251 144 LINE",
"251 80 LINE",
"331 0 LINE",
"519 0 LINE",
"601 82 LINE",
"601 310 LINE"
);
}
);
};
layerId = "39D11A97-A6D9-4B52-A6F5-15D5E4373676";
paths = (
{
closed = 1;
nodes = (
"156 0 LINE",
"156 588 LINE",
"201 632 LINE",
"554 632 LINE",
"554 700 LINE",
"167 700 LINE",
"80 613 LINE",
"80 0 LINE"
);
},
{
closed = 1;
nodes = (
"529 392 LINE",
"423 392 LINE",
"554 632 LINE",
"474 632 LINE",
"349 402 LINE",
"349 326 LINE",
"495 326 LINE",
"535 286 LINE",
"535 105 LINE",
"495 66 LINE",
"373 66 LINE",
"333 105 LINE",
"333 144 LINE",
"259 144 LINE",
"259 80 LINE",
"339 0 LINE",
"529 0 LINE",
"611 82 LINE",
"611 310 LINE"
);
}
);
width = 666;
},
{
background = {
paths = (
{
closed = 1;
nodes = (
"156 0 LINE",
"156 592 LINE",
"201 636 LINE",
"546 636 LINE",
"546 700 LINE",
"169 700 LINE",
"82 613 LINE",
"82 0 LINE"
);
},
{
closed = 1;
nodes = (
"519 392 LINE",
"413 392 LINE",
"546 636 LINE",
"468 636 LINE",
"339 398 LINE",
"339 330 LINE",
"487 330 LINE",
"527 290 LINE",
"527 103 LINE",
"487 64 LINE",
"363 64 LINE",
"323 103 LINE",
"323 144 LINE",
"251 144 LINE",
"251 80 LINE",
"331 0 LINE",
"519 0 LINE",
"601 82 LINE",
"601 310 LINE"
);
}
);
};
layerId = "5CD77783-8DB3-4580-A509-4627B8D22761";
paths = (
{
closed = 1;
nodes = (
"156 0 LINE",
"156 588 LINE",
"201 632 LINE",
"554 632 LINE",
"554 700 LINE",
"167 700 LINE",
"80 613 LINE",
"80 0 LINE"
);
},
{
closed = 1;
nodes = (
"529 392 LINE",
"423 392 LINE",
"554 632 LINE",
"474 632 LINE",
"349 402 LINE",
"349 326 LINE",
"495 326 LINE",
"535 286 LINE",
"535 105 LINE",
"495 66 LINE",
"373 66 LINE",
"333 105 LINE",
"333 144 LINE",
"259 144 LINE",
"259 80 LINE",
"339 0 LINE",
"529 0 LINE",
"611 82 LINE",
"611 310 LINE"
);
}
);
width = 666;
}
);
leftMetricsKey = H;
note = uni1E9E;
unicode = 1E9E;
},
{
glyphname = Schwa;
lastChange = "2018-04-17 05:49:00 +0000";
layers = (
{
background = {
paths = (
{
closed = 1;
nodes = (
"196 700 LINE",
"67 571 LINE",
"67 483 LINE",
"143 483 LINE",
"143 563 LINE",
"213 632 LINE",
"472 632 LINE",
"542 563 LINE",
"542 381 LINE",
"67 381 LINE",
"67 129 LINE",
"196 0 LINE",
"489 0 LINE",
"618 129 LINE",
"618 571 LINE",
"489 700 LINE"
);
},
{
closed = 1;
nodes = (
"542 137 LINE",
"472 68 LINE",
"213 68 LINE",
"143 137 LINE",
"143 315 LINE",
"542 315 LINE"
);
}
);
};
layerId = "39D11A97-A6D9-4B52-A6F5-15D5E4373676";
paths = (
{
closed = 1;
nodes = (
"199 700 LINE",
"70 571 LINE",
"70 483 LINE",
"146 483 LINE",
"146 545 LINE",
"234 632 LINE",
"464 632 LINE",
"552 545 LINE",
"552 382 LINE",
"70 382 LINE",
"70 129 LINE",
"199 0 LINE",
"499 0 LINE",
"628 129 LINE",
"628 571 LINE",
"499 700 LINE"
);
},
{
closed = 1;
nodes = (
"552 157 LINE",
"462 68 LINE",
"236 68 LINE",
"146 157 LINE",
"146 314 LINE",
"552 314 LINE"
);
}
);
width = 698;
},
{
background = {
paths = (
{
closed = 1;
nodes = (
"196 700 LINE",
"67 571 LINE",
"67 483 LINE",
"143 483 LINE",
"143 563 LINE",
"213 632 LINE",
"472 632 LINE",
"542 563 LINE",
"542 381 LINE",
"67 381 LINE",
"67 129 LINE",
"196 0 LINE",
"489 0 LINE",
"618 129 LINE",
"618 571 LINE",
"489 700 LINE"
);
},
{
closed = 1;
nodes = (
"542 137 LINE",
"472 68 LINE",
"213 68 LINE",
"143 137 LINE",
"143 315 LINE",
"542 315 LINE"
);
}
);
};
layerId = "5CD77783-8DB3-4580-A509-4627B8D22761";
paths = (
{
closed = 1;
nodes = (
"199 700 LINE",
"70 571 LINE",
"70 483 LINE",
"146 483 LINE",
"146 545 LINE",
"234 632 LINE",
"464 632 LINE",
"552 545 LINE",
"552 382 LINE",
"70 382 LINE",
"70 129 LINE",
"199 0 LINE",
"499 0 LINE",
"628 129 LINE",
"628 571 LINE",
"499 700 LINE"
);
},
{
closed = 1;
nodes = (
"552 157 LINE",
"462 68 LINE",
"236 68 LINE",
"146 157 LINE",
"146 314 LINE",
"552 314 LINE"
);
}
);
width = 698;
}
);
note = uni018F;
unicode = 018F;
},
{
glyphname = Tbar;
lastChange = "2018-04-17 05:49:00 +0000";
layers = (
{
components = (
{
name = T;
}
);
layerId = "39D11A97-A6D9-4B52-A6F5-15D5E4373676";
paths = (
{
closed = 1;
nodes = (
"493 301 LINE",
"493 363 LINE",
"79 363 LINE",
"79 301 LINE"
);
}
);
width = 560;
},
{
associatedMasterId = "0B1DFD06-3317-40CA-B510-4969A0718C16";
layerId = "8AF6BA7E-4672-4BE4-A9AE-4DB948958C2C";
name = "new Layer";
width = 600;
},
{
associatedMasterId = "0B1DFD06-3317-40CA-B510-4969A0718C16";
layerId = "7F6AF056-48B6-4F53-BC9A-D34BFBE15044";
name = "new Layer";
width = 600;
},
{
associatedMasterId = "0B1DFD06-3317-40CA-B510-4969A0718C16";
layerId = "F73E8325-8E12-4C51-8F58-F416F66A4A1B";
name = "new Layer";
width = 600;
},
{
components = (
{
name = T;
}
);
layerId = "5CD77783-8DB3-4580-A509-4627B8D22761";
paths = (
{
closed = 1;
nodes = (
"493 301 LINE",
"493 363 LINE",
"79 363 LINE",
"79 301 LINE"
);
}
);
width = 560;
}
);
leftKerningGroup = T;
leftMetricsKey = T;
note = Tbar;
rightKerningGroup = T;
rightMetricsKey = T;
unicode = 0166;
},
{
color = 0;
glyphname = A.001;
lastChange = "2018-04-17 05:49:00 +0000";
layers = (
{
layerId = "39D11A97-A6D9-4B52-A6F5-15D5E4373676";
paths = (
{
closed = 1;
nodes = (
"139 -4 LINE",
"139 190 LINE",
"497 190 LINE",
"497 -4 LINE",
"571 -4 LINE",
"571 358 LINE",
"367 700 LINE",
"269 700 LINE",
"65 358 LINE",
"65 -4 LINE"
);
},
{
closed = 1;
nodes = (
"139 344 LINE",
"313 644 LINE",
"321 644 LINE",
"497 342 LINE",
"497 257 LINE",
"139 257 LINE"
);
}
);
width = 636;
},
{
layerId = "5CD77783-8DB3-4580-A509-4627B8D22761";
paths = (
{
closed = 1;
nodes = (
"139 -4 LINE",
"139 190 LINE",
"497 190 LINE",
"497 -4 LINE",
"571 -4 LINE",
"571 358 LINE",
"367 700 LINE",
"269 700 LINE",
"65 358 LINE",
"65 -4 LINE"
);
},
{
closed = 1;
nodes = (
"139 344 LINE",
"313 644 LINE",
"321 644 LINE",
"497 342 LINE",
"497 257 LINE",
"139 257 LINE"
);
}
);
width = 636;
}
);
note = A;
rightMetricsKey = "=|";
},
{
color = 0;
glyphname = E.001;
lastChange = "2018-04-17 05:49:00 +0000";
layers = (
{
background = {
paths = (
{
closed = 1;
nodes = (
"545 0 LINE",
"545 66 LINE",
"197 66 LINE",
"149 114 LINE",
"149 317 LINE",
"516 317 LINE",
"516 384 LINE",
"149 384 LINE",
"149 583 LINE",
"199 633 LINE",
"545 633 LINE",
"545 700 LINE",
"165 700 LINE",
"75 608 LINE",
"75 92 LINE",
"165 0 LINE"
);
}
);
};
layerId = "39D11A97-A6D9-4B52-A6F5-15D5E4373676";
paths = (
{
closed = 1;
nodes = (
"545 0 LINE",
"545 66 LINE",
"197 66 LINE",
"149 114 LINE",
"149 317 LINE",
"516 317 LINE",
"516 384 LINE",
"149 384 LINE",
"149 583 LINE",
"199 633 LINE",
"545 633 LINE",
"545 700 LINE",
"165 700 LINE",
"75 608 LINE",
"75 92 LINE",
"165 0 LINE"
);
}
);
width = 590;
},
{
background = {
paths = (
{
closed = 1;
nodes = (
"545 0 LINE",
"545 66 LINE",
"197 66 LINE",
"149 114 LINE",
"149 317 LINE",
"516 317 LINE",
"516 384 LINE",
"149 384 LINE",
"149 583 LINE",
"199 633 LINE",
"545 633 LINE",
"545 700 LINE",
"165 700 LINE",
"75 608 LINE",
"75 92 LINE",
"165 0 LINE"
);
}
);
};
layerId = "5CD77783-8DB3-4580-A509-4627B8D22761";
paths = (
{
closed = 1;
nodes = (
"545 0 LINE",
"545 66 LINE",
"197 66 LINE",
"149 114 LINE",
"149 317 LINE",
"516 317 LINE",
"516 384 LINE",
"149 384 LINE",
"149 583 LINE",
"199 633 LINE",
"545 633 LINE",
"545 700 LINE",
"165 700 LINE",
"75 608 LINE",
"75 92 LINE",
"165 0 LINE"
);
}
);
width = 590;
}
);
note = E;
},
{
color = 0;
glyphname = V.001;
lastChange = "2018-04-17 05:49:00 +0000";
layers = (
{
background = {
paths = (
{
closed = 1;
nodes = (
"489 336 LINE",
"315 66 LINE",
"306 66 LINE",
"131 338 LINE",
"131 700 LINE",
"57 700 LINE",
"57 321 LINE",
"266 0 LINE",
"355 0 LINE",
"563 321 LINE",
"563 700 LINE",
"489 700 LINE"
);
}
);
};
layerId = "39D11A97-A6D9-4B52-A6F5-15D5E4373676";
paths = (
{
closed = 1;
nodes = (
"312 100 LINE",
"310 100 LINE",
"110 700 LINE",
"30 700 LINE",
"270 0 LINE",
"352 0 LINE",
"594 700 LINE",
"512 700 LINE"
);
}
);
width = 624;
},
{
background = {
paths = (
{
closed = 1;
nodes = (
"489 336 LINE",
"315 66 LINE",
"306 66 LINE",
"131 338 LINE",
"131 700 LINE",
"57 700 LINE",
"57 321 LINE",
"266 0 LINE",
"355 0 LINE",
"563 321 LINE",
"563 700 LINE",
"489 700 LINE"
);
}
);
};
layerId = "5CD77783-8DB3-4580-A509-4627B8D22761";
paths = (
{
closed = 1;
nodes = (
"312 100 LINE",
"310 100 LINE",
"110 700 LINE",
"30 700 LINE",
"270 0 LINE",
"352 0 LINE",
"594 700 LINE",
"512 700 LINE"
);
}
);
width = 624;
}
);
note = V;
rightMetricsKey = "=|";
},
{
color = 0;
glyphname = W.001;
lastChange = "2018-04-17 05:49:00 +0000";
layers = (
{
background = {
paths = (
{
closed = 1;
nodes = (
"708 333 LINE",
"583 66 LINE",
"582 66 LINE",
"455 333 LINE",
"455 700 LINE",
"383 700 LINE",
"383 333 LINE",
"256 65 LINE",
"255 65 LINE",
"130 333 LINE",
"130 700 LINE",
"55 700 LINE",
"55 324 LINE",
"207 0 LINE",
"303 0 LINE",
"419 243 LINE",
"534 0 LINE",
"631 0 LINE",
"782 324 LINE",
"782 700 LINE",
"708 700 LINE"
);
}
);
};
layerId = "39D11A97-A6D9-4B52-A6F5-15D5E4373676";
paths = (
{
closed = 1;
nodes = (
"292 100 LINE",
"290 100 LINE",
"110 700 LINE",
"30 700 LINE",
"250 0 LINE",
"332 0 LINE",
"534 700 LINE",
"452 700 LINE"
);
},
{
closed = 1;
nodes = (
"452 700 LINE",
"654 0 LINE",
"736 0 LINE",
"956 700 LINE",
"876 700 LINE",
"696 100 LINE",
"694 100 LINE",
"534 700 LINE"
);
}
);
width = 986;
},
{
background = {
paths = (
{
closed = 1;
nodes = (
"708 333 LINE",
"583 66 LINE",
"582 66 LINE",
"455 333 LINE",
"455 700 LINE",
"383 700 LINE",
"383 333 LINE",
"256 65 LINE",
"255 65 LINE",
"130 333 LINE",
"130 700 LINE",
"55 700 LINE",
"55 324 LINE",
"207 0 LINE",
"303 0 LINE",
"419 243 LINE",
"534 0 LINE",
"631 0 LINE",
"782 324 LINE",
"782 700 LINE",
"708 700 LINE"
);
}
);
};
layerId = "5CD77783-8DB3-4580-A509-4627B8D22761";
paths = (
{
closed = 1;
nodes = (
"292 100 LINE",
"290 100 LINE",
"110 700 LINE",
"30 700 LINE",
"250 0 LINE",
"332 0 LINE",
"534 700 LINE",
"452 700 LINE"
);
},
{
closed = 1;
nodes = (
"452 700 LINE",
"654 0 LINE",
"736 0 LINE",
"956 700 LINE",
"876 700 LINE",
"696 100 LINE",
"694 100 LINE",
"534 700 LINE"
);
}
);
width = 986;
}
);
note = W;
rightMetricsKey = "=|";
},
{
glyphname = "alpha-latin";
lastChange = "2018-04-17 05:49:00 +0000";
layers = (
{
background = {
paths = (
{
closed = 1;
nodes = (
"433 0 LINE",
"505 0 LINE",
"505 498 LINE",
"431 498 LINE",
"431 426 LINE",
"349 498 LINE",
"157 498 LINE",
"65 406 LINE",
"65 92 LINE",
"157 0 LINE",
"342 0 LINE",
"433 91 LINE"
);
},
{
closed = 1;
nodes = (
"326 66 LINE",
"189 66 LINE",
"139 115 LINE",
"139 383 LINE",
"189 432 LINE",
"335 432 LINE",
"431 348 LINE",
"431 171 LINE"
);
}
);
};
layerId = "39D11A97-A6D9-4B52-A6F5-15D5E4373676";
paths = (
{
closed = 1;
nodes = (
"505 498 LINE",
"433 498 LINE",
"433 432 LINE",
"356 498 LINE",
"157 498 LINE",
"65 406 LINE",
"65 92 LINE",
"157 0 LINE",
"342 0 LINE",
"433 91 LINE",
"433 49 LINE",
"476 0 LINE",
"575 0 LINE",
"575 62 LINE",
"505 62 LINE"
);
},
{
closed = 1;
nodes = (
"326 66 LINE",
"189 66 LINE",
"139 115 LINE",
"139 383 LINE",
"189 432 LINE",
"340 432 LINE",
"431 354 LINE",
"431 171 LINE"
);
}
);
width = 600;
},
{
background = {
paths = (
{
closed = 1;
nodes = (
"433 0 LINE",
"505 0 LINE",
"505 498 LINE",
"431 498 LINE",
"431 426 LINE",
"349 498 LINE",
"157 498 LINE",
"65 406 LINE",
"65 92 LINE",
"157 0 LINE",
"342 0 LINE",
"433 91 LINE"
);
},
{
closed = 1;
nodes = (
"326 66 LINE",
"189 66 LINE",
"139 115 LINE",
"139 383 LINE",
"189 432 LINE",
"335 432 LINE",
"431 348 LINE",
"431 171 LINE"
);
}
);
};
layerId = "5CD77783-8DB3-4580-A509-4627B8D22761";
paths = (
{
closed = 1;
nodes = (
"505 498 LINE",
"433 498 LINE",
"433 432 LINE",
"356 498 LINE",
"157 498 LINE",
"65 406 LINE",
"65 92 LINE",
"157 0 LINE",
"342 0 LINE",
"433 91 LINE",
"433 49 LINE",
"476 0 LINE",
"575 0 LINE",
"575 62 LINE",
"505 62 LINE"
);
},
{
closed = 1;
nodes = (
"326 66 LINE",
"189 66 LINE",
"139 115 LINE",
"139 383 LINE",
"189 432 LINE",
"340 432 LINE",
"431 354 LINE",
"431 171 LINE"
);
}
);
width = 600;
}
);
leftKerningGroup = a;
note = ascript;
rightKerningGroup = a;
unicode = 0251;
},
{
glyphname = ae;
lastChange = "2018-04-17 05:49:00 +0000";
layers = (
{
anchors = (
{
name = bottom;
position = "{452, 0}";
},
{
name = top;
position = "{454, 498}";
}
);
background = {
paths = (
{
closed = 1;
nodes = (
"328 0 LINE",
"420 88 LINE",
"420 100 LINE",
"492 100 LINE",
"492 406 LINE",
"400 498 LINE",
"152 498 LINE",
"60 406 LINE",
"60 344 LINE",
"134 344 LINE",
"134 385 LINE",
"184 434 LINE",
"368 434 LINE",
"418 385 LINE",
"418 290 LINE",
"142 290 LINE",
"60 209 LINE",
"60 82 LINE",
"142 0 LINE"
);
},
{
closed = 1;
nodes = (
"134 103 LINE",
"134 187 LINE",
"174 226 LINE",
"418 226 LINE",
"418 165 LINE",
"313 64 LINE",
"174 64 LINE"
);
},
{
closed = 1;
nodes = (
"761 0 LINE",
"853 92 LINE",
"853 154 LINE",
"779 154 LINE",
"779 115 LINE",
"729 66 LINE",
"542 66 LINE",
"492 115 LINE",
"492 227 LINE",
"853 227 LINE",
"853 406 LINE",
"761 498 LINE",
"510 498 LINE",
"418 406 LINE",
"418 92 LINE",
"510 0 LINE"
);
},
{
closed = 1;
nodes = (
"492 383 LINE",
"542 432 LINE",
"729 432 LINE",
"779 383 LINE",
"779 291 LINE",
"492 291 LINE"
);
}
);
};
layerId = "39D11A97-A6D9-4B52-A6F5-15D5E4373676";
paths = (
{
closed = 1;
nodes = (
"348 0 LINE",
"492 144 LINE",
"492 406 LINE",
"400 498 LINE",
"152 498 LINE",
"60 406 LINE",
"60 344 LINE",
"134 344 LINE",
"134 385 LINE",
"184 434 LINE",
"368 434 LINE",
"418 385 LINE",
"418 290 LINE",
"142 290 LINE",
"60 209 LINE",
"60 82 LINE",
"142 0 LINE"
);
},
{
closed = 1;
nodes = (
"134 103 LINE",
"134 187 LINE",
"174 226 LINE",
"418 226 LINE",
"418 159 LINE",
"323 64 LINE",
"174 64 LINE"
);
},
{
closed = 1;
nodes = (
"751 0 LINE",
"843 92 LINE",
"843 154 LINE",
"769 154 LINE",
"769 115 LINE",
"719 66 LINE",
"542 66 LINE",
"492 115 LINE",
"492 227 LINE",
"843 227 LINE",
"843 406 LINE",
"751 498 LINE",
"510 498 LINE",
"418 406 LINE",
"418 92 LINE",
"510 0 LINE"
);
},
{
closed = 1;
nodes = (
"492 383 LINE",
"542 432 LINE",
"719 432 LINE",
"769 383 LINE",
"769 291 LINE",
"492 291 LINE"
);
}
);
width = 903;
},
{
anchors = (
{
name = bottom;
position = "{452, 0}";
},
{
name = top;
position = "{454, 498}";
}
);
background = {
paths = (
{
closed = 1;
nodes = (
"328 0 LINE",
"420 88 LINE",
"420 100 LINE",
"492 100 LINE",
"492 406 LINE",
"400 498 LINE",
"152 498 LINE",
"60 406 LINE",
"60 344 LINE",
"134 344 LINE",
"134 385 LINE",
"184 434 LINE",
"368 434 LINE",
"418 385 LINE",
"418 290 LINE",
"142 290 LINE",
"60 209 LINE",
"60 82 LINE",
"142 0 LINE"
);
},
{
closed = 1;
nodes = (
"134 103 LINE",
"134 187 LINE",
"174 226 LINE",
"418 226 LINE",
"418 165 LINE",
"313 64 LINE",
"174 64 LINE"
);
},
{
closed = 1;
nodes = (
"761 0 LINE",
"853 92 LINE",
"853 154 LINE",
"779 154 LINE",
"779 115 LINE",
"729 66 LINE",
"542 66 LINE",
"492 115 LINE",
"492 227 LINE",
"853 227 LINE",
"853 406 LINE",
"761 498 LINE",
"510 498 LINE",
"418 406 LINE",
"418 92 LINE",
"510 0 LINE"
);
},
{
closed = 1;
nodes = (
"492 383 LINE",
"542 432 LINE",
"729 432 LINE",
"779 383 LINE",
"779 291 LINE",
"492 291 LINE"
);
}
);
};
layerId = "5CD77783-8DB3-4580-A509-4627B8D22761";
paths = (
{
closed = 1;
nodes = (
"348 0 LINE",
"492 144 LINE",
"492 406 LINE",
"400 498 LINE",
"152 498 LINE",
"60 406 LINE",
"60 344 LINE",
"134 344 LINE",
"134 385 LINE",
"184 434 LINE",
"368 434 LINE",
"418 385 LINE",
"418 290 LINE",
"142 290 LINE",
"60 209 LINE",
"60 82 LINE",
"142 0 LINE"
);
},
{
closed = 1;
nodes = (
"134 103 LINE",
"134 187 LINE",
"174 226 LINE",
"418 226 LINE",
"418 159 LINE",
"323 64 LINE",
"174 64 LINE"
);
},
{
closed = 1;
nodes = (
"751 0 LINE",
"843 92 LINE",
"843 154 LINE",
"769 154 LINE",
"769 115 LINE",
"719 66 LINE",
"542 66 LINE",
"492 115 LINE",
"492 227 LINE",
"843 227 LINE",
"843 406 LINE",
"751 498 LINE",
"510 498 LINE",
"418 406 LINE",
"418 92 LINE",
"510 0 LINE"
);
},
{
closed = 1;
nodes = (
"492 383 LINE",
"542 432 LINE",
"719 432 LINE",
"769 383 LINE",
"769 291 LINE",
"492 291 LINE"
);
}
);
width = 903;
}
);
leftMetricsKey = a;
note = ae;
rightMetricsKey = e;
unicode = 00E6;
},
{
glyphname = eth;
lastChange = "2018-04-17 05:49:00 +0000";
layers = (
{
background = {
paths = (
{
closed = 1;
nodes = (
"212 700 LINE",
"212 638 LINE",
"331 638 LINE",
"447 449 LINE",
"447 367 LINE",
"366 438 LINE",
"157 438 LINE",
"65 346 LINE",
"65 92 LINE",
"157 0 LINE",
"431 0 LINE",
"523 92 LINE",
"523 459 LINE",
"376 700 LINE"
);
},
{
closed = 1;
nodes = (
"397 68 LINE",
"191 68 LINE",
"141 117 LINE",
"141 321 LINE",
"191 370 LINE",
"351 370 LINE",
"447 284 LINE",
"447 117 LINE"
);
},
{
closed = 1;
nodes = (
"310 488 LINE",
"536 619 LINE",
"505 672 LINE",
"279 541 LINE"
);
}
);
};
layerId = "39D11A97-A6D9-4B52-A6F5-15D5E4373676";
paths = (
{
closed = 1;
nodes = (
"212 700 LINE",
"212 638 LINE",
"331 638 LINE",
"447 449 LINE",
"447 367 LINE",
"366 438 LINE",
"157 438 LINE",
"65 346 LINE",
"65 92 LINE",
"157 0 LINE",
"431 0 LINE",
"523 92 LINE",
"523 459 LINE",
"376 700 LINE"
);
},
{
closed = 1;
nodes = (
"397 68 LINE",
"191 68 LINE",
"141 117 LINE",
"141 321 LINE",
"191 370 LINE",
"351 370 LINE",
"447 284 LINE",
"447 117 LINE"
);
},
{
closed = 1;
nodes = (
"309 489 LINE",
"535 620 LINE",
"505 672 LINE",
"279 541 LINE"
);
}
);
width = 580;
},
{
background = {
paths = (
{
closed = 1;
nodes = (
"212 700 LINE",
"212 638 LINE",
"331 638 LINE",
"447 449 LINE",
"447 367 LINE",
"366 438 LINE",
"157 438 LINE",
"65 346 LINE",
"65 92 LINE",
"157 0 LINE",
"431 0 LINE",
"523 92 LINE",
"523 459 LINE",
"376 700 LINE"
);
},
{
closed = 1;
nodes = (
"397 68 LINE",
"191 68 LINE",
"141 117 LINE",
"141 321 LINE",
"191 370 LINE",
"351 370 LINE",
"447 284 LINE",
"447 117 LINE"
);
},
{
closed = 1;
nodes = (
"310 488 LINE",
"536 619 LINE",
"505 672 LINE",
"279 541 LINE"
);
}
);
};
layerId = "5CD77783-8DB3-4580-A509-4627B8D22761";
paths = (
{
closed = 1;
nodes = (
"212 700 LINE",
"212 638 LINE",
"331 638 LINE",
"447 449 LINE",
"447 367 LINE",
"366 438 LINE",
"157 438 LINE",
"65 346 LINE",
"65 92 LINE",
"157 0 LINE",
"431 0 LINE",
"523 92 LINE",
"523 459 LINE",
"376 700 LINE"
);
},
{
closed = 1;
nodes = (
"397 68 LINE",
"191 68 LINE",
"141 117 LINE",
"141 321 LINE",
"191 370 LINE",
"351 370 LINE",
"447 284 LINE",
"447 117 LINE"
);
},
{
closed = 1;
nodes = (
"309 489 LINE",
"535 620 LINE",
"505 672 LINE",
"279 541 LINE"
);
}
);
width = 580;
}
);
note = eth;
unicode = 00F0;
},
{
glyphname = dcroat;
lastChange = "2018-04-17 05:49:00 +0000";
layers = (
{
components = (
{
name = d;
}
);
layerId = "39D11A97-A6D9-4B52-A6F5-15D5E4373676";
paths = (
{
closed = 1;
nodes = (
"585 572 LINE",
"585 632 LINE",
"295 632 LINE",
"295 572 LINE"
);
}
);
width = 590;
},
{
associatedMasterId = "0B1DFD06-3317-40CA-B510-4969A0718C16";
layerId = "8AF6BA7E-4672-4BE4-A9AE-4DB948958C2C";
name = "new Layer";
width = 600;
},
{
associatedMasterId = "0B1DFD06-3317-40CA-B510-4969A0718C16";
layerId = "99A51F82-47E0-43BF-8447-338ADA3FF528";
name = "new Layer";
width = 600;
},
{
associatedMasterId = "0B1DFD06-3317-40CA-B510-4969A0718C16";
layerId = "C575E3BA-6D59-4072-876C-EA40D7930C0D";
name = "new Layer";
width = 600;
},
{
components = (
{
name = d;
}
);
layerId = "5CD77783-8DB3-4580-A509-4627B8D22761";
paths = (
{
closed = 1;
nodes = (
"585 572 LINE",
"585 632 LINE",
"295 632 LINE",
"295 572 LINE"
);
}
);
width = 590;
}
);
note = dcroat;
unicode = 0111;
},
{
glyphname = hbar;
lastChange = "2018-04-17 05:49:00 +0000";
layers = (
{
components = (
{
name = h;
transform = "{1, 0, 0, 1, 15, 0}";
}
);
layerId = "39D11A97-A6D9-4B52-A6F5-15D5E4373676";
paths = (
{
closed = 1;
nodes = (
"304 572 LINE",
"304 632 LINE",
"0 632 LINE",
"0 572 LINE"
);
}
);
width = 584;
},
{
associatedMasterId = "0B1DFD06-3317-40CA-B510-4969A0718C16";
layerId = "8AF6BA7E-4672-4BE4-A9AE-4DB948958C2C";
name = "new Layer";
width = 600;
},
{
associatedMasterId = "0B1DFD06-3317-40CA-B510-4969A0718C16";
layerId = "95E7B70C-3955-4FF0-933E-B9872947184D";
name = "new Layer";
width = 600;
},
{
associatedMasterId = "0B1DFD06-3317-40CA-B510-4969A0718C16";
layerId = "909C3EF5-11EB-4157-886C-15B61D145ECE";
name = "new Layer";
width = 600;
},
{
components = (
{
name = h;
transform = "{1, 0, 0, 1, 15, 0}";
}
);
layerId = "5CD77783-8DB3-4580-A509-4627B8D22761";
paths = (
{
closed = 1;
nodes = (
"304 572 LINE",
"304 632 LINE",
"0 632 LINE",
"0 572 LINE"
);
}
);
width = 584;
}
);
note = hbar;
rightKerningGroup = h;
rightMetricsKey = n;
unicode = 0127;
},
{
glyphname = idotless;
lastChange = "2018-04-17 05:49:00 +0000";
layers = (
{
anchors = (
{
name = bottom;
position = "{122, 0}";
},
{
name = ogonek;
position = "{159, 0}";
},
{
name = top;
position = "{122, 498}";
}
);
layerId = "39D11A97-A6D9-4B52-A6F5-15D5E4373676";
paths = (
{
closed = 1;
nodes = (
"159 0 LINE",
"159 498 LINE",
"85 498 LINE",
"85 0 LINE"
);
}
);
width = 244;
},
{
anchors = (
{
name = bottom;
position = "{122, 0}";
},
{
name = ogonek;
position = "{159, 0}";
},
{
name = top;
position = "{122, 498}";
}
);
layerId = "5CD77783-8DB3-4580-A509-4627B8D22761";
paths = (
{
closed = 1;
nodes = (
"159 0 LINE",
"159 498 LINE",
"85 498 LINE",
"85 0 LINE"
);
}
);
width = 244;
}
);
note = dotlessi;
unicode = 0131;
},
{
glyphname = jdotless;
lastChange = "2018-04-17 05:49:00 +0000";
layers = (
{
anchors = (
{
name = bottom;
position = "{151, 0}";
},
{
name = top;
position = "{132, 498}";
}
);
layerId = "39D11A97-A6D9-4B52-A6F5-15D5E4373676";
paths = (
{
closed = 1;
nodes = (
"78 -218 LINE",
"169 -127 LINE",
"169 498 LINE",
"95 498 LINE",
"95 -103 LINE",
"45 -152 LINE",
"-55 -152 LINE",
"-55 -218 LINE"
);
}
);
width = 254;
},
{
anchors = (
{
name = bottom;
position = "{151, 0}";
},
{
name = top;
position = "{132, 498}";
}
);
layerId = "5CD77783-8DB3-4580-A509-4627B8D22761";
paths = (
{
closed = 1;
nodes = (
"78 -218 LINE",
"169 -127 LINE",
"169 498 LINE",
"95 498 LINE",
"95 -103 LINE",
"45 -152 LINE",
"-55 -152 LINE",
"-55 -218 LINE"
);
}
);
width = 254;
}
);
leftKerningGroup = j;
note = dotlessj;
unicode = 0237;
},
{
glyphname = kgreenlandic;
lastChange = "2018-04-17 05:49:00 +0000";
layers = (
{
background = {
paths = (
{
closed = 0;
nodes = (
"301 282 LINE",
"151 282 LINE"
);
},
{
closed = 0;
nodes = (
"151 214 LINE",
"302 214 LINE"
);
},
{
closed = 0;
nodes = (
"364 250 LINE"
);
}
);
};
layerId = "39D11A97-A6D9-4B52-A6F5-15D5E4373676";
paths = (
{
closed = 1;
nodes = (
"301 282 LINE",
"151 282 LINE",
"151 498 LINE",
"75 498 LINE",
"75 0 LINE",
"151 0 LINE",
"151 214 LINE",
"302 214 LINE",
"456 0 LINE",
"542 0 LINE",
"364 250 LINE",
"527 498 LINE",
"441 498 LINE"
);
}
);
width = 562;
},
{
background = {
paths = (
{
closed = 0;
nodes = (
"301 282 LINE",
"151 282 LINE"
);
},
{
closed = 0;
nodes = (
"151 214 LINE",
"302 214 LINE"
);
},
{
closed = 0;
nodes = (
"364 250 LINE"
);
}
);
};
layerId = "5CD77783-8DB3-4580-A509-4627B8D22761";
paths = (
{
closed = 1;
nodes = (
"301 282 LINE",
"151 282 LINE",
"151 498 LINE",
"75 498 LINE",
"75 0 LINE",
"151 0 LINE",
"151 214 LINE",
"302 214 LINE",
"456 0 LINE",
"542 0 LINE",
"364 250 LINE",
"527 498 LINE",
"441 498 LINE"
);
}
);
width = 562;
}
);
leftMetricsKey = k;
note = kgreenlandic;
rightKerningGroup = k;
unicode = 0138;
},
{
glyphname = lslash;
lastChange = "2018-04-17 05:49:00 +0000";
layers = (
{
background = {
paths = (
{
closed = 1;
nodes = (
"0 226 LINE",
"274 426 LINE",
"274 496 LINE",
"0 296 LINE"
);
}
);
};
components = (
{
name = l;
transform = "{1, 0, 0, 1, 11, 0}";
}
);
layerId = "39D11A97-A6D9-4B52-A6F5-15D5E4373676";
paths = (
{
closed = 1;
nodes = (
"0 228 LINE",
"270 428 LINE",
"270 498 LINE",
"0 298 LINE"
);
}
);
width = 270;
},
{
background = {
paths = (
{
closed = 1;
nodes = (
"0 226 LINE",
"274 426 LINE",
"274 496 LINE",
"0 296 LINE"
);
}
);
};
components = (
{
name = l;
transform = "{1, 0, 0, 1, 11, 0}";
}
);
layerId = "5CD77783-8DB3-4580-A509-4627B8D22761";
paths = (
{
closed = 1;
nodes = (
"0 228 LINE",
"270 428 LINE",
"270 498 LINE",
"0 298 LINE"
);
}
);
width = 270;
}
);
note = lslash;
unicode = 0142;
},
{
glyphname = eng;
lastChange = "2018-04-17 05:49:00 +0000";
layers = (
{
layerId = "39D11A97-A6D9-4B52-A6F5-15D5E4373676";
paths = (
{
closed = 1;
nodes = (
"149 0 LINE",
"149 308 LINE",
"273 432 LINE",
"373 432 LINE",
"423 383 LINE",
"423 0 LINE",
"497 0 LINE",
"497 406 LINE",
"405 498 LINE",
"253 498 LINE",
"147 392 LINE",
"147 498 LINE",
"75 498 LINE",
"75 0 LINE"
);
},
{
closed = 1;
nodes = (
"406 -218 LINE",
"497 -127 LINE",
"497 198 LINE",
"423 198 LINE",
"423 -103 LINE",
"373 -152 LINE",
"273 -152 LINE",
"273 -218 LINE"
);
}
);
width = 572;
},
{
layerId = "5CD77783-8DB3-4580-A509-4627B8D22761";
paths = (
{
closed = 1;
nodes = (
"149 0 LINE",
"149 308 LINE",
"273 432 LINE",
"373 432 LINE",
"423 383 LINE",
"423 0 LINE",
"497 0 LINE",
"497 406 LINE",
"405 498 LINE",
"253 498 LINE",
"147 392 LINE",
"147 498 LINE",
"75 498 LINE",
"75 0 LINE"
);
},
{
closed = 1;
nodes = (
"406 -218 LINE",
"497 -127 LINE",
"497 198 LINE",
"423 198 LINE",
"423 -103 LINE",
"373 -152 LINE",
"273 -152 LINE",
"273 -218 LINE"
);
}
);
width = 572;
}
);
leftKerningGroup = m;
note = eng;
rightKerningGroup = m;
unicode = 014B;
},
{
glyphname = oslash;
lastChange = "2018-04-17 05:49:00 +0000";
layers = (
{
background = {
paths = (
{
closed = 1;
nodes = (
"25 -50 LINE",
"103 -50 LINE",
"643 710 LINE",
"565 710 LINE"
);
}
);
};
components = (
{
name = o;
}
);
layerId = "39D11A97-A6D9-4B52-A6F5-15D5E4373676";
paths = (
{
closed = 1;
nodes = (
"15 -40 LINE",
"93 -40 LINE",
"548 538 LINE",
"470 538 LINE"
);
}
);
width = 570;
},
{
background = {
paths = (
{
closed = 1;
nodes = (
"25 -50 LINE",
"103 -50 LINE",
"643 710 LINE",
"565 710 LINE"
);
}
);
};
components = (
{
name = o;
}
);
layerId = "5CD77783-8DB3-4580-A509-4627B8D22761";
paths = (
{
closed = 1;
nodes = (
"15 -40 LINE",
"93 -40 LINE",
"548 538 LINE",
"470 538 LINE"
);
}
);
width = 570;
}
);
note = oslash;
unicode = 00F8;
},
{
glyphname = oe;
lastChange = "2018-04-17 05:49:00 +0000";
layers = (
{
layerId = "39D11A97-A6D9-4B52-A6F5-15D5E4373676";
paths = (
{
closed = 1;
nodes = (
"413 0 LINE",
"505 92 LINE",
"505 406 LINE",
"413 498 LINE",
"157 498 LINE",
"65 406 LINE",
"65 92 LINE",
"157 0 LINE"
);
},
{
closed = 1;
nodes = (
"139 115 LINE",
"139 383 LINE",
"189 432 LINE",
"381 432 LINE",
"431 383 LINE",
"431 115 LINE",
"381 66 LINE",
"189 66 LINE"
);
},
{
closed = 1;
nodes = (
"764 0 LINE",
"856 92 LINE",
"856 154 LINE",
"782 154 LINE",
"782 115 LINE",
"732 66 LINE",
"555 66 LINE",
"505 115 LINE",
"505 227 LINE",
"856 227 LINE",
"856 406 LINE",
"764 498 LINE",
"523 498 LINE",
"431 406 LINE",
"431 92 LINE",
"523 0 LINE"
);
},
{
closed = 1;
nodes = (
"505 383 LINE",
"555 432 LINE",
"732 432 LINE",
"782 383 LINE",
"782 291 LINE",
"505 291 LINE"
);
}
);
width = 916;
},
{
layerId = "5CD77783-8DB3-4580-A509-4627B8D22761";
paths = (
{
closed = 1;
nodes = (
"413 0 LINE",
"505 92 LINE",
"505 406 LINE",
"413 498 LINE",
"157 498 LINE",
"65 406 LINE",
"65 92 LINE",
"157 0 LINE"
);
},
{
closed = 1;
nodes = (
"139 115 LINE",
"139 383 LINE",
"189 432 LINE",
"381 432 LINE",
"431 383 LINE",
"431 115 LINE",
"381 66 LINE",
"189 66 LINE"
);
},
{
closed = 1;
nodes = (
"764 0 LINE",
"856 92 LINE",
"856 154 LINE",
"782 154 LINE",
"782 115 LINE",
"732 66 LINE",
"555 66 LINE",
"505 115 LINE",
"505 227 LINE",
"856 227 LINE",
"856 406 LINE",
"764 498 LINE",
"523 498 LINE",
"431 406 LINE",
"431 92 LINE",
"523 0 LINE"
);
},
{
closed = 1;
nodes = (
"505 383 LINE",
"555 432 LINE",
"732 432 LINE",
"782 383 LINE",
"782 291 LINE",
"505 291 LINE"
);
}
);
width = 916;
}
);
leftMetricsKey = o;
note = oe;
rightMetricsKey = e;
unicode = 0153;
},
{
glyphname = thorn;
lastChange = "2018-04-17 05:49:00 +0000";
layers = (
{
layerId = "39D11A97-A6D9-4B52-A6F5-15D5E4373676";
paths = (
{
closed = 1;
nodes = (
"147 710 LINE",
"75 710 LINE",
"75 -212 LINE",
"149 -212 LINE",
"149 72 LINE",
"231 0 LINE",
"423 0 LINE",
"515 92 LINE",
"515 406 LINE",
"423 498 LINE",
"236 498 LINE",
"147 409 LINE"
);
},
{
closed = 1;
nodes = (
"256 432 LINE",
"391 432 LINE",
"441 383 LINE",
"441 115 LINE",
"391 66 LINE",
"245 66 LINE",
"149 153 LINE",
"149 325 LINE"
);
}
);
width = 580;
},
{
layerId = "5CD77783-8DB3-4580-A509-4627B8D22761";
paths = (
{
closed = 1;
nodes = (
"147 710 LINE",
"75 710 LINE",
"75 -212 LINE",
"149 -212 LINE",
"149 72 LINE",
"231 0 LINE",
"423 0 LINE",
"515 92 LINE",
"515 406 LINE",
"423 498 LINE",
"236 498 LINE",
"147 409 LINE"
);
},
{
closed = 1;
nodes = (
"256 432 LINE",
"391 432 LINE",
"441 383 LINE",
"441 115 LINE",
"391 66 LINE",
"245 66 LINE",
"149 153 LINE",
"149 325 LINE"
);
}
);
width = 580;
}
);
leftMetricsKey = p;
note = thorn;
rightMetricsKey = p;
unicode = 00FE;
},
{
glyphname = germandbls;
lastChange = "2018-04-17 05:49:00 +0000";
layers = (
{
layerId = "39D11A97-A6D9-4B52-A6F5-15D5E4373676";
paths = (
{
closed = 1;
nodes = (
"434 335 LINE",
"414 355 LINE",
"414 390 LINE",
"495 500 LINE",
"495 609 LINE",
"408 696 LINE",
"167 696 LINE",
"80 609 LINE",
"80 0 LINE",
"154 0 LINE",
"154 588 LINE",
"199 632 LINE",
"376 632 LINE",
"421 588 LINE",
"421 510 LINE",
"340 400 LINE",
"340 332 LINE",
"399 273 LINE",
"476 273 LINE",
"516 233 LINE",
"516 103 LINE",
"476 64 LINE",
"378 64 LINE",
"338 103 LINE",
"338 144 LINE",
"264 144 LINE",
"264 82 LINE",
"346 0 LINE",
"508 0 LINE",
"590 82 LINE",
"590 253 LINE",
"508 335 LINE"
);
}
);
width = 625;
},
{
layerId = "5CD77783-8DB3-4580-A509-4627B8D22761";
paths = (
{
closed = 1;
nodes = (
"434 335 LINE",
"414 355 LINE",
"414 390 LINE",
"495 500 LINE",
"495 609 LINE",
"408 696 LINE",
"167 696 LINE",
"80 609 LINE",
"80 0 LINE",
"154 0 LINE",
"154 588 LINE",
"199 632 LINE",
"376 632 LINE",
"421 588 LINE",
"421 510 LINE",
"340 400 LINE",
"340 332 LINE",
"399 273 LINE",
"476 273 LINE",
"516 233 LINE",
"516 103 LINE",
"476 64 LINE",
"378 64 LINE",
"338 103 LINE",
"338 144 LINE",
"264 144 LINE",
"264 82 LINE",
"346 0 LINE",
"508 0 LINE",
"590 82 LINE",
"590 253 LINE",
"508 335 LINE"
);
}
);
width = 625;
}
);
note = uni00DF;
unicode = 00DF;
},
{
glyphname = tbar;
lastChange = "2018-04-17 05:49:00 +0000";
layers = (
{
components = (
{
name = t;
}
);
layerId = "39D11A97-A6D9-4B52-A6F5-15D5E4373676";
paths = (
{
closed = 1;
nodes = (
"350 212 LINE",
"350 272 LINE",
"30 272 LINE",
"30 212 LINE"
);
}
);
width = 397;
},
{
associatedMasterId = "0B1DFD06-3317-40CA-B510-4969A0718C16";
layerId = "8AF6BA7E-4672-4BE4-A9AE-4DB948958C2C";
name = "new Layer";
width = 600;
},
{
associatedMasterId = "0B1DFD06-3317-40CA-B510-4969A0718C16";
layerId = "26E13327-8330-4649-BEE6-6EB9E5BC37E6";
name = "new Layer";
width = 600;
},
{
associatedMasterId = "0B1DFD06-3317-40CA-B510-4969A0718C16";
layerId = "76AC1F11-46C0-40E2-AD3B-1629C40F4BEF";
name = "new Layer";
width = 600;
},
{
components = (
{
name = t;
}
);
layerId = "5CD77783-8DB3-4580-A509-4627B8D22761";
paths = (
{
closed = 1;
nodes = (
"350 212 LINE",
"350 272 LINE",
"30 272 LINE",
"30 212 LINE"
);
}
);
width = 397;
}
);
leftKerningGroup = t;
note = tbar;
rightKerningGroup = t;
unicode = 0167;
},
{
glyphname = fi;
lastChange = "2018-04-17 05:49:00 +0000";
layers = (
{
background = {
paths = (
{
closed = 1;
nodes = (
"115 589 LINE",
"169 643 LINE",
"261 643 LINE",
"261 701 LINE",
"145 701 LINE",
"57 613 LINE",
"57 0 LINE",
"115 0 LINE",
"115 380 LINE",
"261 380 LINE",
"261 0 LINE",
"320 0 LINE",
"320 438 LINE",
"115 438 LINE"
);
}
);
};
layerId = "39D11A97-A6D9-4B52-A6F5-15D5E4373676";
paths = (
{
closed = 1;
nodes = (
"194 0 LINE",
"194 432 LINE",
"451 432 LINE",
"451 498 LINE",
"194 498 LINE",
"194 601 LINE",
"239 646 LINE",
"351 646 LINE",
"351 710 LINE",
"207 710 LINE",
"120 623 LINE",
"120 498 LINE",
"30 498 LINE",
"30 432 LINE",
"120 432 LINE",
"120 0 LINE"
);
},
{
closed = 1;
nodes = (
"505 0 LINE",
"505 498 LINE",
"431 498 LINE",
"431 0 LINE"
);
}
);
width = 580;
},
{
background = {
paths = (
{
closed = 1;
nodes = (
"115 589 LINE",
"169 643 LINE",
"261 643 LINE",
"261 701 LINE",
"145 701 LINE",
"57 613 LINE",
"57 0 LINE",
"115 0 LINE",
"115 380 LINE",
"261 380 LINE",
"261 0 LINE",
"320 0 LINE",
"320 438 LINE",
"115 438 LINE"
);
}
);
};
layerId = "5CD77783-8DB3-4580-A509-4627B8D22761";
paths = (
{
closed = 1;
nodes = (
"194 0 LINE",
"194 432 LINE",
"451 432 LINE",
"451 498 LINE",
"194 498 LINE",
"194 601 LINE",
"239 646 LINE",
"351 646 LINE",
"351 710 LINE",
"207 710 LINE",
"120 623 LINE",
"120 498 LINE",
"30 498 LINE",
"30 432 LINE",
"120 432 LINE",
"120 0 LINE"
);
},
{
closed = 1;
nodes = (
"505 0 LINE",
"505 498 LINE",
"431 498 LINE",
"431 0 LINE"
);
}
);
width = 580;
}
);
leftMetricsKey = f;
note = fi;
rightMetricsKey = u;
unicode = FB01;
},
{
glyphname = fl;
lastChange = "2018-04-17 05:49:00 +0000";
layers = (
{
layerId = "39D11A97-A6D9-4B52-A6F5-15D5E4373676";
paths = (
{
closed = 1;
nodes = (
"520 0 LINE",
"520 710 LINE",
"446 710 LINE",
"446 0 LINE"
);
},
{
closed = 1;
nodes = (
"194 0 LINE",
"194 432 LINE",
"351 432 LINE",
"351 498 LINE",
"194 498 LINE",
"194 603 LINE",
"239 648 LINE",
"451 648 LINE",
"451 710 LINE",
"207 710 LINE",
"120 623 LINE",
"120 498 LINE",
"30 498 LINE",
"30 432 LINE",
"120 432 LINE",
"120 0 LINE"
);
}
);
width = 600;
},
{
layerId = "5CD77783-8DB3-4580-A509-4627B8D22761";
paths = (
{
closed = 1;
nodes = (
"520 0 LINE",
"520 710 LINE",
"446 710 LINE",
"446 0 LINE"
);
},
{
closed = 1;
nodes = (
"194 0 LINE",
"194 432 LINE",
"351 432 LINE",
"351 498 LINE",
"194 498 LINE",
"194 603 LINE",
"239 648 LINE",
"451 648 LINE",
"451 710 LINE",
"207 710 LINE",
"120 623 LINE",
"120 498 LINE",
"30 498 LINE",
"30 432 LINE",
"120 432 LINE",
"120 0 LINE"
);
}
);
width = 600;
}
);
leftMetricsKey = f;
note = fl;
rightMetricsKey = l;
unicode = FB02;
},
{
color = 0;
glyphname = ordfeminine;
lastChange = "2018-04-17 05:49:00 +0000";
layers = (
{
layerId = "39D11A97-A6D9-4B52-A6F5-15D5E4373676";
paths = (
{
closed = 1;
nodes = (
"54 581 LINE",
"54 529 LINE",
"107 529 LINE",
"107 529 OFFCURVE",
"107 553 OFFCURVE",
"107 558 CURVE",
"110 562 OFFCURVE",
"141 591 OFFCURVE",
"144 594 CURVE",
"149 594 OFFCURVE",
"316 594 OFFCURVE",
"321 594 CURVE",
"323 591 OFFCURVE",
"354 562 OFFCURVE",
"357 558 CURVE",
"357 555 OFFCURVE",
"357 516 OFFCURVE",
"357 508 CURVE",
"346 508 OFFCURVE",
"122 508 OFFCURVE",
"122 508 CURVE",
"54 440 LINE",
"54 338 LINE",
"122 269 LINE",
"278 269 LINE",
"279 271 OFFCURVE",
"342 334 OFFCURVE",
"357 349 CURVE",
"357 329 OFFCURVE",
"357 269 OFFCURVE",
"357 269 CURVE",
"411 269 LINE",
"411 581 LINE",
"342 649 LINE",
"122 649 LINE"
);
},
{
closed = 1;
nodes = (
"357 446 OFFCURVE",
"357 422 OFFCURVE",
"357 419 CURVE",
"354 415 OFFCURVE",
"266 326 OFFCURVE",
"263 323 CURVE",
"258 323 OFFCURVE",
"148 323 OFFCURVE",
"144 323 CURVE",
"141 326 OFFCURVE",
"110 357 OFFCURVE",
"107 360 CURVE",
"107 364 OFFCURVE",
"107 412 OFFCURVE",
"107 417 CURVE",
"110 420 OFFCURVE",
"141 451 OFFCURVE",
"144 453 CURVE",
"149 453 OFFCURVE",
"347 453 OFFCURVE",
"357 453 CURVE"
);
}
);
width = 493;
},
{
layerId = "5CD77783-8DB3-4580-A509-4627B8D22761";
paths = (
{
closed = 1;
nodes = (
"54 581 LINE",
"54 529 LINE",
"107 529 LINE",
"107 529 OFFCURVE",
"107 553 OFFCURVE",
"107 558 CURVE",
"110 562 OFFCURVE",
"141 591 OFFCURVE",
"144 594 CURVE",
"149 594 OFFCURVE",
"316 594 OFFCURVE",
"321 594 CURVE",
"323 591 OFFCURVE",
"354 562 OFFCURVE",
"357 558 CURVE",
"357 555 OFFCURVE",
"357 516 OFFCURVE",
"357 508 CURVE",
"346 508 OFFCURVE",
"122 508 OFFCURVE",
"122 508 CURVE",
"54 440 LINE",
"54 338 LINE",
"122 269 LINE",
"278 269 LINE",
"279 271 OFFCURVE",
"342 334 OFFCURVE",
"357 349 CURVE",
"357 329 OFFCURVE",
"357 269 OFFCURVE",
"357 269 CURVE",
"411 269 LINE",
"411 581 LINE",
"342 649 LINE",
"122 649 LINE"
);
},
{
closed = 1;
nodes = (
"357 446 OFFCURVE",
"357 422 OFFCURVE",
"357 419 CURVE",
"354 415 OFFCURVE",
"266 326 OFFCURVE",
"263 323 CURVE",
"258 323 OFFCURVE",
"148 323 OFFCURVE",
"144 323 CURVE",
"141 326 OFFCURVE",
"110 357 OFFCURVE",
"107 360 CURVE",
"107 364 OFFCURVE",
"107 412 OFFCURVE",
"107 417 CURVE",
"110 420 OFFCURVE",
"141 451 OFFCURVE",
"144 453 CURVE",
"149 453 OFFCURVE",
"347 453 OFFCURVE",
"357 453 CURVE"
);
}
);
width = 493;
}
);
note = ordfeminine;
unicode = 00AA;
},
{
color = 0;
glyphname = ordmasculine;
lastChange = "2018-04-17 05:49:00 +0000";
layers = (
{
layerId = "39D11A97-A6D9-4B52-A6F5-15D5E4373676";
paths = (
{
closed = 1;
nodes = (
"117 641 LINE",
"57 583 LINE",
"57 438 LINE",
"117 380 LINE",
"260 380 LINE",
"320 438 LINE",
"320 583 LINE",
"260 641 LINE"
);
},
{
closed = 1;
nodes = (
"239 430 LINE",
"138 430 LINE",
"107 459 LINE",
"107 560 LINE",
"138 591 LINE",
"239 591 LINE",
"268 560 LINE",
"268 459 LINE"
);
}
);
width = 403;
},
{
layerId = "5CD77783-8DB3-4580-A509-4627B8D22761";
paths = (
{
closed = 1;
nodes = (
"117 641 LINE",
"57 583 LINE",
"57 438 LINE",
"117 380 LINE",
"260 380 LINE",
"320 438 LINE",
"320 583 LINE",
"260 641 LINE"
);
},
{
closed = 1;
nodes = (
"239 430 LINE",
"138 430 LINE",
"107 459 LINE",
"107 560 LINE",
"138 591 LINE",
"239 591 LINE",
"268 560 LINE",
"268 459 LINE"
);
}
);
width = 403;
}
);
note = ordmasculine;
unicode = 00BA;
},
{
color = 0;
glyphname = nmod;
lastChange = "2018-04-17 05:49:00 +0000";
layers = (
{
layerId = "39D11A97-A6D9-4B52-A6F5-15D5E4373676";
paths = (
{
closed = 1;
nodes = (
"410 378 LINE",
"410 397 LINE",
"392 397 LINE SMOOTH",
"368 397 OFFCURVE",
"350 405 OFFCURVE",
"350 424 CURVE SMOOTH",
"350 599 LINE SMOOTH",
"350 660 OFFCURVE",
"323 708 OFFCURVE",
"240 708 CURVE SMOOTH",
"168 708 OFFCURVE",
"128 658 OFFCURVE",
"116 601 CURVE",
"116 548 LINE",
"135 548 LINE",
"135 628 OFFCURVE",
"173 677 OFFCURVE",
"221 677 CURVE SMOOTH",
"266 677 OFFCURVE",
"281 652 OFFCURVE",
"281 595 CURVE SMOOTH",
"281 424 LINE SMOOTH",
"281 405 OFFCURVE",
"264 397 OFFCURVE",
"239 397 CURVE SMOOTH",
"229 397 LINE",
"229 378 LINE"
);
},
{
closed = 1;
nodes = (
"187 378 LINE",
"187 397 LINE",
"177 397 LINE SMOOTH",
"152 397 OFFCURVE",
"135 405 OFFCURVE",
"135 424 CURVE SMOOTH",
"135 706 LINE",
"114 706 LINE",
"17 670 LINE",
"22 652 LINE",
"30 655 OFFCURVE",
"42 659 OFFCURVE",
"50 659 CURVE SMOOTH",
"58 659 OFFCURVE",
"66 656 OFFCURVE",
"66 643 CURVE SMOOTH",
"66 424 LINE SMOOTH",
"66 405 OFFCURVE",
"48 397 OFFCURVE",
"23 397 CURVE SMOOTH",
"6 397 LINE",
"6 378 LINE"
);
}
);
width = 416;
},
{
layerId = "5CD77783-8DB3-4580-A509-4627B8D22761";
paths = (
{
closed = 1;
nodes = (
"410 378 LINE",
"410 397 LINE",
"392 397 LINE SMOOTH",
"368 397 OFFCURVE",
"350 405 OFFCURVE",
"350 424 CURVE SMOOTH",
"350 599 LINE SMOOTH",
"350 660 OFFCURVE",
"323 708 OFFCURVE",
"240 708 CURVE SMOOTH",
"168 708 OFFCURVE",
"128 658 OFFCURVE",
"116 601 CURVE",
"116 548 LINE",
"135 548 LINE",
"135 628 OFFCURVE",
"173 677 OFFCURVE",
"221 677 CURVE SMOOTH",
"266 677 OFFCURVE",
"281 652 OFFCURVE",
"281 595 CURVE SMOOTH",
"281 424 LINE SMOOTH",
"281 405 OFFCURVE",
"264 397 OFFCURVE",
"239 397 CURVE SMOOTH",
"229 397 LINE",
"229 378 LINE"
);
},
{
closed = 1;
nodes = (
"187 378 LINE",
"187 397 LINE",
"177 397 LINE SMOOTH",
"152 397 OFFCURVE",
"135 405 OFFCURVE",
"135 424 CURVE SMOOTH",
"135 706 LINE",
"114 706 LINE",
"17 670 LINE",
"22 652 LINE",
"30 655 OFFCURVE",
"42 659 OFFCURVE",
"50 659 CURVE SMOOTH",
"58 659 OFFCURVE",
"66 656 OFFCURVE",
"66 643 CURVE SMOOTH",
"66 424 LINE SMOOTH",
"66 405 OFFCURVE",
"48 397 OFFCURVE",
"23 397 CURVE SMOOTH",
"6 397 LINE",
"6 378 LINE"
);
}
);
width = 416;
}
);
note = uni207F;
unicode = 207F;
},
{
glyphname = Delta;
lastChange = "2018-04-17 05:49:00 +0000";
layers = (
{
layerId = "39D11A97-A6D9-4B52-A6F5-15D5E4373676";
paths = (
{
closed = 1;
nodes = (
"270 700 LINE",
"35 58 LINE",
"35 0 LINE",
"607 0 LINE",
"607 58 LINE",
"372 700 LINE"
);
},
{
closed = 1;
nodes = (
"318 638 LINE",
"324 638 LINE",
"527 64 LINE",
"113 64 LINE"
);
}
);
width = 642;
},
{
layerId = "5CD77783-8DB3-4580-A509-4627B8D22761";
paths = (
{
closed = 1;
nodes = (
"270 700 LINE",
"35 58 LINE",
"35 0 LINE",
"607 0 LINE",
"607 58 LINE",
"372 700 LINE"
);
},
{
closed = 1;
nodes = (
"318 638 LINE",
"324 638 LINE",
"527 64 LINE",
"113 64 LINE"
);
}
);
width = 642;
}
);
note = Delta;
unicode = 0394;
},
{
glyphname = Omega;
lastChange = "2018-04-17 05:49:00 +0000";
layers = (
{
background = {
paths = (
{
closed = 1;
nodes = (
"501 162 LINE",
"613 274 LINE",
"613 605 LINE",
"518 700 LINE",
"173 700 LINE",
"78 605 LINE",
"78 274 LINE",
"190 162 LINE",
"190 64 LINE",
"60 64 LINE",
"60 0 LINE",
"260 0 LINE",
"260 188 LINE",
"152 296 LINE",
"152 578 LINE",
"208 634 LINE",
"483 634 LINE",
"539 578 LINE",
"539 296 LINE",
"431 188 LINE",
"431 0 LINE",
"631 0 LINE",
"631 64 LINE",
"501 64 LINE"
);
}
);
};
layerId = "39D11A97-A6D9-4B52-A6F5-15D5E4373676";
paths = (
{
closed = 1;
nodes = (
"501 162 LINE",
"613 274 LINE",
"613 605 LINE",
"518 700 LINE",
"173 700 LINE",
"78 605 LINE",
"78 274 LINE",
"190 162 LINE",
"190 64 LINE",
"60 64 LINE",
"60 0 LINE",
"260 0 LINE",
"260 188 LINE",
"152 296 LINE",
"152 578 LINE",
"208 634 LINE",
"483 634 LINE",
"539 578 LINE",
"539 296 LINE",
"431 188 LINE",
"431 0 LINE",
"631 0 LINE",
"631 64 LINE",
"501 64 LINE"
);
}
);
width = 691;
},
{
background = {
paths = (
{
closed = 1;
nodes = (
"501 162 LINE",
"613 274 LINE",
"613 605 LINE",
"518 700 LINE",
"173 700 LINE",
"78 605 LINE",
"78 274 LINE",
"190 162 LINE",
"190 64 LINE",
"60 64 LINE",
"60 0 LINE",
"260 0 LINE",
"260 188 LINE",
"152 296 LINE",
"152 578 LINE",
"208 634 LINE",
"483 634 LINE",
"539 578 LINE",
"539 296 LINE",
"431 188 LINE",
"431 0 LINE",
"631 0 LINE",
"631 64 LINE",
"501 64 LINE"
);
}
);
};
layerId = "5CD77783-8DB3-4580-A509-4627B8D22761";
paths = (
{
closed = 1;
nodes = (
"501 162 LINE",
"613 274 LINE",
"613 605 LINE",
"518 700 LINE",
"173 700 LINE",
"78 605 LINE",
"78 274 LINE",
"190 162 LINE",
"190 64 LINE",
"60 64 LINE",
"60 0 LINE",
"260 0 LINE",
"260 188 LINE",
"152 296 LINE",
"152 578 LINE",
"208 634 LINE",
"483 634 LINE",
"539 578 LINE",
"539 296 LINE",
"431 188 LINE",
"431 0 LINE",
"631 0 LINE",
"631 64 LINE",
"501 64 LINE"
);
}
);
width = 691;
}
);
note = Omega;
unicode = 03A9;
},
{
glyphname = mu;
lastChange = "2018-04-17 05:49:00 +0000";
layers = (
{
layerId = "39D11A97-A6D9-4B52-A6F5-15D5E4373676";
paths = (
{
closed = 1;
nodes = (
"416 498 LINE",
"416 180 LINE",
"302 66 LINE",
"214 66 LINE",
"144 135 LINE",
"144 498 LINE",
"70 498 LINE",
"70 122 LINE",
"192 0 LINE",
"322 0 LINE",
"418 96 LINE",
"418 0 LINE",
"490 0 LINE",
"490 498 LINE"
);
},
{
closed = 1;
nodes = (
"70 -200 LINE",
"144 -200 LINE",
"144 284 LINE",
"70 284 LINE"
);
}
);
width = 565;
},
{
layerId = "5CD77783-8DB3-4580-A509-4627B8D22761";
paths = (
{
closed = 1;
nodes = (
"416 498 LINE",
"416 180 LINE",
"302 66 LINE",
"214 66 LINE",
"144 135 LINE",
"144 498 LINE",
"70 498 LINE",
"70 122 LINE",
"192 0 LINE",
"322 0 LINE",
"418 96 LINE",
"418 0 LINE",
"490 0 LINE",
"490 498 LINE"
);
},
{
closed = 1;
nodes = (
"70 -200 LINE",
"144 -200 LINE",
"144 284 LINE",
"70 284 LINE"
);
}
);
width = 565;
}
);
note = mu;
unicode = 03BC;
},
{
glyphname = pi;
lastChange = "2018-04-17 05:49:00 +0000";
layers = (
{
layerId = "39D11A97-A6D9-4B52-A6F5-15D5E4373676";
paths = (
{
closed = 1;
nodes = (
"655 497 LINE",
"55 498 LINE",
"55 432 LINE",
"465 432 LINE",
"465 82 LINE",
"547 0 LINE",
"655 0 LINE",
"655 65 LINE",
"579 65 LINE",
"539 105 LINE",
"539 431 LINE",
"655 431 LINE"
);
},
{
closed = 1;
nodes = (
"160 0 LINE",
"234 0 LINE",
"234 484 LINE",
"160 484 LINE"
);
}
);
width = 710;
},
{
layerId = "5CD77783-8DB3-4580-A509-4627B8D22761";
paths = (
{
closed = 1;
nodes = (
"655 497 LINE",
"55 498 LINE",
"55 432 LINE",
"465 432 LINE",
"465 82 LINE",
"547 0 LINE",
"655 0 LINE",
"655 65 LINE",
"579 65 LINE",
"539 105 LINE",
"539 431 LINE",
"655 431 LINE"
);
},
{
closed = 1;
nodes = (
"160 0 LINE",
"234 0 LINE",
"234 484 LINE",
"160 484 LINE"
);
}
);
width = 710;
}
);
note = pi;
unicode = 03C0;
},
{
color = 6;
glyphname = "koKai-thai";
lastChange = "2018-04-17 05:49:00 +0000";
layers = (
{
anchors = (
{
name = bottom;
position = "{509, 0}";
},
{
name = top;
position = "{509, 498}";
}
);
background = {
paths = (
{
closed = 1;
nodes = (
"159 0 LINE",
"159 284 LINE",
"220 371 LINE",
"138 457 LINE",
"175 490 LINE",
"392 490 LINE",
"435 447 LINE",
"435 0 LINE",
"509 0 LINE",
"509 477 LINE",
"428 558 LINE",
"151 558 LINE",
"50 457 LINE",
"137 371 LINE",
"85 304 LINE",
"85 0 LINE"
);
}
);
};
layerId = "39D11A97-A6D9-4B52-A6F5-15D5E4373676";
paths = (
{
closed = 1;
nodes = (
"159 0 LINE",
"159 284 LINE",
"220 371 LINE",
"138 457 LINE",
"175 490 LINE",
"392 490 LINE",
"435 447 LINE",
"435 0 LINE",
"509 0 LINE",
"509 477 LINE",
"428 558 LINE",
"151 558 LINE",
"50 457 LINE",
"137 371 LINE",
"85 304 LINE",
"85 0 LINE"
);
}
);
width = 589;
},
{
anchors = (
{
name = bottom;
position = "{509, 0}";
},
{
name = top;
position = "{509, 498}";
}
);
background = {
paths = (
{
closed = 1;
nodes = (
"159 0 LINE",
"159 284 LINE",
"220 371 LINE",
"138 457 LINE",
"175 490 LINE",
"392 490 LINE",
"435 447 LINE",
"435 0 LINE",
"509 0 LINE",
"509 477 LINE",
"428 558 LINE",
"151 558 LINE",
"50 457 LINE",
"137 371 LINE",
"85 304 LINE",
"85 0 LINE"
);
}
);
};
layerId = "5CD77783-8DB3-4580-A509-4627B8D22761";
paths = (
{
closed = 1;
nodes = (
"189 0 LINE",
"189 251 LINE",
"257 347 LINE",
"178 430 LINE",
"188 438 LINE",
"378 438 LINE",
"405 411 LINE",
"405 0 LINE",
"539 0 LINE",
"539 461 LINE",
"442 558 LINE",
"137 558 LINE",
"10 431 LINE",
"99 343 LINE",
"55 286 LINE",
"55 0 LINE"
);
}
);
width = 589;
}
);
note = uni0E01;
unicode = 0E01;
},
{
color = 6;
glyphname = "thoThung-thai";
lastChange = "2018-04-17 05:49:00 +0000";
layers = (
{
anchors = (
{
name = bottom;
position = "{509, 0}";
},
{
name = top;
position = "{509, 498}";
}
);
background = {
paths = (
{
closed = 1;
nodes = (
"221 0 LINE",
"281 59 LINE",
"281 133 LINE",
"221 190 LINE",
"154 190 LINE",
"159 238 LINE",
"159 284 LINE",
"220 371 LINE",
"138 457 LINE",
"175 490 LINE",
"392 490 LINE",
"435 447 LINE",
"435 0 LINE",
"509 0 LINE",
"509 477 LINE",
"428 558 LINE",
"151 558 LINE",
"50 457 LINE",
"137 371 LINE",
"85 304 LINE",
"85 59 LINE",
"145 0 LINE"
);
},
{
closed = 1;
nodes = (
"139 74 LINE",
"139 116 LINE",
"165 140 LINE",
"201 140 LINE",
"227 116 LINE",
"227 74 LINE",
"201 50 LINE",
"165 50 LINE"
);
}
);
};
layerId = "39D11A97-A6D9-4B52-A6F5-15D5E4373676";
paths = (
{
closed = 1;
nodes = (
"217 0 LINE",
"277 59 LINE",
"277 133 LINE",
"217 190 LINE",
"150 190 LINE",
"155 238 LINE",
"155 284 LINE",
"220 371 LINE",
"138 457 LINE",
"175 490 LINE",
"392 490 LINE",
"435 447 LINE",
"435 0 LINE",
"509 0 LINE",
"509 477 LINE",
"428 558 LINE",
"151 558 LINE",
"50 457 LINE",
"137 371 LINE",
"81 304 LINE",
"81 59 LINE",
"141 0 LINE"
);
},
{
closed = 1;
nodes = (
"135 74 LINE",
"135 116 LINE",
"161 140 LINE",
"197 140 LINE",
"223 116 LINE",
"223 74 LINE",
"197 50 LINE",
"161 50 LINE"
);
}
);
width = 589;
},
{
anchors = (
{
name = bottom;
position = "{509, 0}";
},
{
name = top;
position = "{509, 498}";
}
);
background = {
paths = (
{
closed = 1;
nodes = (
"221 0 LINE",
"281 59 LINE",
"281 133 LINE",
"221 190 LINE",
"154 190 LINE",
"159 238 LINE",
"159 284 LINE",
"220 371 LINE",
"138 457 LINE",
"175 490 LINE",
"392 490 LINE",
"435 447 LINE",
"435 0 LINE",
"509 0 LINE",
"509 477 LINE",
"428 558 LINE",
"151 558 LINE",
"50 457 LINE",
"137 371 LINE",
"85 304 LINE",
"85 59 LINE",
"145 0 LINE"
);
},
{
closed = 1;
nodes = (
"139 74 LINE",
"139 116 LINE",
"165 140 LINE",
"201 140 LINE",
"227 116 LINE",
"227 74 LINE",
"201 50 LINE",
"165 50 LINE"
);
}
);
};
layerId = "5CD77783-8DB3-4580-A509-4627B8D22761";
paths = (
{
closed = 1;
nodes = (
"217 0 LINE",
"277 59 LINE",
"277 133 LINE",
"217 190 LINE",
"150 190 LINE",
"155 238 LINE",
"155 284 LINE",
"220 371 LINE",
"138 457 LINE",
"175 490 LINE",
"392 490 LINE",
"435 447 LINE",
"435 0 LINE",
"509 0 LINE",
"509 477 LINE",
"428 558 LINE",
"151 558 LINE",
"50 457 LINE",
"137 371 LINE",
"81 304 LINE",
"81 59 LINE",
"141 0 LINE"
);
},
{
closed = 1;
nodes = (
"135 74 LINE",
"135 116 LINE",
"161 140 LINE",
"197 140 LINE",
"223 116 LINE",
"223 74 LINE",
"197 50 LINE",
"161 50 LINE"
);
}
);
width = 589;
}
);
note = uni0E16;
unicode = 0E16;
},
{
color = 6;
glyphname = "phoSamphao-thai";
lastChange = "2018-04-17 05:49:00 +0000";
layers = (
{
anchors = (
{
name = bottom;
position = "{549, 0}";
},
{
name = top;
position = "{549, 498}";
}
);
background = {
paths = (
{
closed = 1;
nodes = (
"166 0 LINE",
"226 59 LINE",
"226 284 LINE",
"274 371 LINE",
"178 457 LINE",
"215 490 LINE",
"432 490 LINE",
"475 447 LINE",
"475 0 LINE",
"549 0 LINE",
"549 477 LINE",
"468 558 LINE",
"191 558 LINE",
"90 457 LINE",
"193 371 LINE",
"152 304 LINE",
"152 228 LINE",
"157 190 LINE",
"90 190 LINE",
"30 133 LINE",
"30 59 LINE",
"90 0 LINE"
);
},
{
closed = 1;
nodes = (
"84 74 LINE",
"84 116 LINE",
"110 140 LINE",
"146 140 LINE",
"172 116 LINE",
"172 74 LINE",
"146 50 LINE",
"110 50 LINE"
);
}
);
};
layerId = "39D11A97-A6D9-4B52-A6F5-15D5E4373676";
paths = (
{
closed = 1;
nodes = (
"166 0 LINE",
"226 59 LINE",
"226 284 LINE",
"274 371 LINE",
"178 457 LINE",
"215 490 LINE",
"432 490 LINE",
"475 447 LINE",
"475 0 LINE",
"549 0 LINE",
"549 477 LINE",
"468 558 LINE",
"191 558 LINE",
"90 457 LINE",
"193 371 LINE",
"152 304 LINE",
"152 226 LINE",
"157 188 LINE",
"92 188 LINE",
"32 131 LINE",
"32 59 LINE",
"92 0 LINE"
);
},
{
closed = 1;
nodes = (
"86 73 LINE",
"86 115 LINE",
"112 139 LINE",
"148 139 LINE",
"174 115 LINE",
"174 73 LINE",
"148 49 LINE",
"112 49 LINE"
);
}
);
width = 629;
},
{
anchors = (
{
name = bottom;
position = "{549, 0}";
},
{
name = top;
position = "{549, 498}";
}
);
background = {
paths = (
{
closed = 1;
nodes = (
"166 0 LINE",
"226 59 LINE",
"226 284 LINE",
"274 371 LINE",
"178 457 LINE",
"215 490 LINE",
"432 490 LINE",
"475 447 LINE",
"475 0 LINE",
"549 0 LINE",
"549 477 LINE",
"468 558 LINE",
"191 558 LINE",
"90 457 LINE",
"193 371 LINE",
"152 304 LINE",
"152 228 LINE",
"157 190 LINE",
"90 190 LINE",
"30 133 LINE",
"30 59 LINE",
"90 0 LINE"
);
},
{
closed = 1;
nodes = (
"84 74 LINE",
"84 116 LINE",
"110 140 LINE",
"146 140 LINE",
"172 116 LINE",
"172 74 LINE",
"146 50 LINE",
"110 50 LINE"
);
}
);
};
layerId = "5CD77783-8DB3-4580-A509-4627B8D22761";
paths = (
{
closed = 1;
nodes = (
"166 0 LINE",
"226 59 LINE",
"226 284 LINE",
"274 371 LINE",
"178 457 LINE",
"215 490 LINE",
"432 490 LINE",
"475 447 LINE",
"475 0 LINE",
"549 0 LINE",
"549 477 LINE",
"468 558 LINE",
"191 558 LINE",
"90 457 LINE",
"193 371 LINE",
"152 304 LINE",
"152 226 LINE",
"157 188 LINE",
"92 188 LINE",
"32 131 LINE",
"32 59 LINE",
"92 0 LINE"
);
},
{
closed = 1;
nodes = (
"86 73 LINE",
"86 115 LINE",
"112 139 LINE",
"148 139 LINE",
"174 115 LINE",
"174 73 LINE",
"148 49 LINE",
"112 49 LINE"
);
}
);
width = 629;
}
);
note = uni0E20;
unicode = 0E20;
},
{
glyphname = "ru-thai";
lastChange = "2018-04-17 05:49:00 +0000";
layers = (
{
anchors = (
{
name = bottom;
position = "{511, 0}";
},
{
name = top;
position = "{511, 498}";
}
);
background = {
paths = (
{
closed = 1;
nodes = (
"216 0 LINE",
"276 59 LINE",
"276 133 LINE",
"216 190 LINE",
"149 190 LINE",
"154 238 LINE",
"154 284 LINE",
"215 371 LINE",
"133 457 LINE",
"170 490 LINE",
"389 490 LINE",
"432 447 LINE",
"432 -210 LINE",
"506 -210 LINE",
"506 476 LINE",
"425 558 LINE",
"146 558 LINE",
"45 457 LINE",
"132 371 LINE",
"80 304 LINE",
"80 59 LINE",
"140 0 LINE"
);
},
{
closed = 1;
nodes = (
"134 74 LINE",
"134 116 LINE",
"160 140 LINE",
"196 140 LINE",
"222 116 LINE",
"222 74 LINE",
"196 50 LINE",
"160 50 LINE"
);
}
);
};
layerId = "39D11A97-A6D9-4B52-A6F5-15D5E4373676";
paths = (
{
closed = 1;
nodes = (
"221 0 LINE",
"281 59 LINE",
"281 133 LINE",
"221 190 LINE",
"154 190 LINE",
"159 238 LINE",
"159 284 LINE",
"220 371 LINE",
"138 457 LINE",
"175 490 LINE",
"394 490 LINE",
"437 447 LINE",
"437 -210 LINE",
"511 -210 LINE",
"511 477 LINE",
"430 558 LINE",
"151 558 LINE",
"50 457 LINE",
"137 371 LINE",
"85 304 LINE",
"85 59 LINE",
"145 0 LINE"
);
},
{
closed = 1;
nodes = (
"139 74 LINE",
"139 116 LINE",
"165 140 LINE",
"201 140 LINE",
"227 116 LINE",
"227 74 LINE",
"201 50 LINE",
"165 50 LINE"
);
}
);
width = 591;
},
{
anchors = (
{
name = bottom;
position = "{511, 0}";
},
{
name = top;
position = "{511, 498}";
}
);
background = {
paths = (
{
closed = 1;
nodes = (
"216 0 LINE",
"276 59 LINE",
"276 133 LINE",
"216 190 LINE",
"149 190 LINE",
"154 238 LINE",
"154 284 LINE",
"215 371 LINE",
"133 457 LINE",
"170 490 LINE",
"389 490 LINE",
"432 447 LINE",
"432 -210 LINE",
"506 -210 LINE",
"506 476 LINE",
"425 558 LINE",
"146 558 LINE",
"45 457 LINE",
"132 371 LINE",
"80 304 LINE",
"80 59 LINE",
"140 0 LINE"
);
},
{
closed = 1;
nodes = (
"134 74 LINE",
"134 116 LINE",
"160 140 LINE",
"196 140 LINE",
"222 116 LINE",
"222 74 LINE",
"196 50 LINE",
"160 50 LINE"
);
}
);
};
layerId = "5CD77783-8DB3-4580-A509-4627B8D22761";
paths = (
{
closed = 1;
nodes = (
"221 0 LINE",
"281 59 LINE",
"281 133 LINE",
"221 190 LINE",
"154 190 LINE",
"159 238 LINE",
"159 284 LINE",
"220 371 LINE",
"138 457 LINE",
"175 490 LINE",
"394 490 LINE",
"437 447 LINE",
"437 -210 LINE",
"511 -210 LINE",
"511 477 LINE",
"430 558 LINE",
"151 558 LINE",
"50 457 LINE",
"137 371 LINE",
"85 304 LINE",
"85 59 LINE",
"145 0 LINE"
);
},
{
closed = 1;
nodes = (
"139 74 LINE",
"139 116 LINE",
"165 140 LINE",
"201 140 LINE",
"227 116 LINE",
"227 74 LINE",
"201 50 LINE",
"165 50 LINE"
);
}
);
width = 591;
}
);
note = uni0E24;
unicode = 0E24;
},
{
glyphname = "ru-thai.short";
lastChange = "2018-04-17 05:49:00 +0000";
layers = (
{
anchors = (
{
name = bottom;
position = "{511, 0}";
},
{
name = top;
position = "{511, 498}";
}
);
background = {
paths = (
{
closed = 1;
nodes = (
"216 0 LINE",
"276 59 LINE",
"276 133 LINE",
"216 190 LINE",
"149 190 LINE",
"154 238 LINE",
"154 284 LINE",
"215 371 LINE",
"133 457 LINE",
"170 490 LINE",
"389 490 LINE",
"432 447 LINE",
"432 -110 LINE",
"506 -110 LINE",
"506 476 LINE",
"425 558 LINE",
"146 558 LINE",
"45 457 LINE",
"132 371 LINE",
"80 304 LINE",
"80 59 LINE",
"140 0 LINE"
);
},
{
closed = 1;
nodes = (
"134 74 LINE",
"134 116 LINE",
"160 140 LINE",
"196 140 LINE",
"222 116 LINE",
"222 74 LINE",
"196 50 LINE",
"160 50 LINE"
);
}
);
};
layerId = "39D11A97-A6D9-4B52-A6F5-15D5E4373676";
paths = (
{
closed = 1;
nodes = (
"221 0 LINE",
"281 59 LINE",
"281 133 LINE",
"221 190 LINE",
"154 190 LINE",
"159 238 LINE",
"159 284 LINE",
"220 371 LINE",
"138 457 LINE",
"175 490 LINE",
"394 490 LINE",
"437 447 LINE",
"437 -110 LINE",
"511 -110 LINE",
"511 477 LINE",
"430 558 LINE",
"151 558 LINE",
"50 457 LINE",
"137 371 LINE",
"85 304 LINE",
"85 59 LINE",
"145 0 LINE"
);
},
{
closed = 1;
nodes = (
"139 74 LINE",
"139 116 LINE",
"165 140 LINE",
"201 140 LINE",
"227 116 LINE",
"227 74 LINE",
"201 50 LINE",
"165 50 LINE"
);
}
);
width = 591;
},
{
anchors = (
{
name = bottom;
position = "{511, 0}";
},
{
name = top;
position = "{511, 498}";
}
);
background = {
paths = (
{
closed = 1;
nodes = (
"216 0 LINE",
"276 59 LINE",
"276 133 LINE",
"216 190 LINE",
"149 190 LINE",
"154 238 LINE",
"154 284 LINE",
"215 371 LINE",
"133 457 LINE",
"170 490 LINE",
"389 490 LINE",
"432 447 LINE",
"432 -110 LINE",
"506 -110 LINE",
"506 476 LINE",
"425 558 LINE",
"146 558 LINE",
"45 457 LINE",
"132 371 LINE",
"80 304 LINE",
"80 59 LINE",
"140 0 LINE"
);
},
{
closed = 1;
nodes = (
"134 74 LINE",
"134 116 LINE",
"160 140 LINE",
"196 140 LINE",
"222 116 LINE",
"222 74 LINE",
"196 50 LINE",
"160 50 LINE"
);
}
);
};
layerId = "5CD77783-8DB3-4580-A509-4627B8D22761";
paths = (
{
closed = 1;
nodes = (
"221 0 LINE",
"281 59 LINE",
"281 133 LINE",
"221 190 LINE",
"154 190 LINE",
"159 238 LINE",
"159 284 LINE",
"220 371 LINE",
"138 457 LINE",
"175 490 LINE",
"394 490 LINE",
"437 447 LINE",
"437 -110 LINE",
"511 -110 LINE",
"511 477 LINE",
"430 558 LINE",
"151 558 LINE",
"50 457 LINE",
"137 371 LINE",
"85 304 LINE",
"85 59 LINE",
"145 0 LINE"
);
},
{
closed = 1;
nodes = (
"139 74 LINE",
"139 116 LINE",
"165 140 LINE",
"201 140 LINE",
"227 116 LINE",
"227 74 LINE",
"201 50 LINE",
"165 50 LINE"
);
}
);
width = 591;
}
);
note = "ru-thai.short";
},
{
glyphname = "lu-thai";
lastChange = "2018-04-17 05:49:00 +0000";
layers = (
{
anchors = (
{
name = bottom;
position = "{551, 0}";
},
{
name = top;
position = "{551, 498}";
}
);
background = {
paths = (
{
closed = 1;
nodes = (
"142 140 LINE",
"168 116 LINE",
"168 74 LINE",
"142 50 LINE",
"106 50 LINE",
"80 74 LINE",
"80 116 LINE",
"106 140 LINE"
);
},
{
closed = 1;
nodes = (
"221 284 LINE",
"269 371 LINE",
"173 457 LINE",
"210 490 LINE",
"429 490 LINE",
"472 447 LINE",
"472 -210 LINE",
"546 -210 LINE",
"546 476 LINE",
"465 558 LINE",
"186 558 LINE",
"85 457 LINE",
"188 371 LINE",
"147 304 LINE",
"147 228 LINE",
"152 190 LINE",
"85 190 LINE",
"25 133 LINE",
"25 59 LINE",
"85 0 LINE",
"161 0 LINE",
"221 59 LINE"
);
}
);
};
layerId = "39D11A97-A6D9-4B52-A6F5-15D5E4373676";
paths = (
{
closed = 1;
nodes = (
"166 0 LINE",
"226 59 LINE",
"226 284 LINE",
"274 371 LINE",
"178 457 LINE",
"215 490 LINE",
"434 490 LINE",
"477 447 LINE",
"477 -210 LINE",
"551 -210 LINE",
"551 477 LINE",
"470 558 LINE",
"191 558 LINE",
"90 457 LINE",
"193 371 LINE",
"152 304 LINE",
"152 228 LINE",
"157 190 LINE",
"90 190 LINE",
"30 133 LINE",
"30 59 LINE",
"90 0 LINE"
);
},
{
closed = 1;
nodes = (
"84 74 LINE",
"84 116 LINE",
"110 140 LINE",
"146 140 LINE",
"172 116 LINE",
"172 74 LINE",
"146 50 LINE",
"110 50 LINE"
);
}
);
width = 631;
},
{
anchors = (
{
name = bottom;
position = "{551, 0}";
},
{
name = top;
position = "{551, 498}";
}
);
background = {
paths = (
{
closed = 1;
nodes = (
"142 140 LINE",
"168 116 LINE",
"168 74 LINE",
"142 50 LINE",
"106 50 LINE",
"80 74 LINE",
"80 116 LINE",
"106 140 LINE"
);
},
{
closed = 1;
nodes = (
"221 284 LINE",
"269 371 LINE",
"173 457 LINE",
"210 490 LINE",
"429 490 LINE",
"472 447 LINE",
"472 -210 LINE",
"546 -210 LINE",
"546 476 LINE",
"465 558 LINE",
"186 558 LINE",
"85 457 LINE",
"188 371 LINE",
"147 304 LINE",
"147 228 LINE",
"152 190 LINE",
"85 190 LINE",
"25 133 LINE",
"25 59 LINE",
"85 0 LINE",
"161 0 LINE",
"221 59 LINE"
);
}
);
};
layerId = "5CD77783-8DB3-4580-A509-4627B8D22761";
paths = (
{
closed = 1;
nodes = (
"166 0 LINE",
"226 59 LINE",
"226 284 LINE",
"274 371 LINE",
"178 457 LINE",
"215 490 LINE",
"434 490 LINE",
"477 447 LINE",
"477 -210 LINE",
"551 -210 LINE",
"551 477 LINE",
"470 558 LINE",
"191 558 LINE",
"90 457 LINE",
"193 371 LINE",
"152 304 LINE",
"152 228 LINE",
"157 190 LINE",
"90 190 LINE",
"30 133 LINE",
"30 59 LINE",
"90 0 LINE"
);
},
{
closed = 1;
nodes = (
"84 74 LINE",
"84 116 LINE",
"110 140 LINE",
"146 140 LINE",
"172 116 LINE",
"172 74 LINE",
"146 50 LINE",
"110 50 LINE"
);
}
);
width = 631;
}
);
note = uni0E26;
unicode = 0E26;
},
{
glyphname = "lu-thai.short";
lastChange = "2018-04-17 05:49:00 +0000";
layers = (
{
anchors = (
{
name = bottom;
position = "{551, 0}";
},
{
name = top;
position = "{551, 498}";
}
);
background = {
paths = (
{
closed = 1;
nodes = (
"142 140 LINE",
"168 116 LINE",
"168 74 LINE",
"142 50 LINE",
"106 50 LINE",
"80 74 LINE",
"80 116 LINE",
"106 140 LINE"
);
},
{
closed = 1;
nodes = (
"221 284 LINE",
"269 371 LINE",
"173 457 LINE",
"210 490 LINE",
"429 490 LINE",
"472 447 LINE",
"472 -110 LINE",
"546 -110 LINE",
"546 476 LINE",
"465 558 LINE",
"186 558 LINE",
"85 457 LINE",
"188 371 LINE",
"147 304 LINE",
"147 228 LINE",
"152 190 LINE",
"85 190 LINE",
"25 133 LINE",
"25 59 LINE",
"85 0 LINE",
"161 0 LINE",
"221 59 LINE"
);
}
);
};
layerId = "39D11A97-A6D9-4B52-A6F5-15D5E4373676";
paths = (
{
closed = 1;
nodes = (
"166 0 LINE",
"226 59 LINE",
"226 284 LINE",
"274 371 LINE",
"178 457 LINE",
"215 490 LINE",
"434 490 LINE",
"477 447 LINE",
"477 -110 LINE",
"551 -110 LINE",
"551 477 LINE",
"470 558 LINE",
"191 558 LINE",
"90 457 LINE",
"193 371 LINE",
"152 304 LINE",
"152 228 LINE",
"157 190 LINE",
"90 190 LINE",
"30 133 LINE",
"30 59 LINE",
"90 0 LINE"
);
},
{
closed = 1;
nodes = (
"84 74 LINE",
"84 116 LINE",
"110 140 LINE",
"146 140 LINE",
"172 116 LINE",
"172 74 LINE",
"146 50 LINE",
"110 50 LINE"
);
}
);
width = 631;
},
{
anchors = (
{
name = bottom;
position = "{551, 0}";
},
{
name = top;
position = "{551, 498}";
}
);
background = {
paths = (
{
closed = 1;
nodes = (
"142 140 LINE",
"168 116 LINE",
"168 74 LINE",
"142 50 LINE",
"106 50 LINE",
"80 74 LINE",
"80 116 LINE",
"106 140 LINE"
);
},
{
closed = 1;
nodes = (
"221 284 LINE",
"269 371 LINE",
"173 457 LINE",
"210 490 LINE",
"429 490 LINE",
"472 447 LINE",
"472 -110 LINE",
"546 -110 LINE",
"546 476 LINE",
"465 558 LINE",
"186 558 LINE",
"85 457 LINE",
"188 371 LINE",
"147 304 LINE",
"147 228 LINE",
"152 190 LINE",
"85 190 LINE",
"25 133 LINE",
"25 59 LINE",
"85 0 LINE",
"161 0 LINE",
"221 59 LINE"
);
}
);
};
layerId = "5CD77783-8DB3-4580-A509-4627B8D22761";
paths = (
{
closed = 1;
nodes = (
"166 0 LINE",
"226 59 LINE",
"226 284 LINE",
"274 371 LINE",
"178 457 LINE",
"215 490 LINE",
"434 490 LINE",
"477 447 LINE",
"477 -110 LINE",
"551 -110 LINE",
"551 477 LINE",
"470 558 LINE",
"191 558 LINE",
"90 457 LINE",
"193 371 LINE",
"152 304 LINE",
"152 228 LINE",
"157 190 LINE",
"90 190 LINE",
"30 133 LINE",
"30 59 LINE",
"90 0 LINE"
);
},
{
closed = 1;
nodes = (
"84 74 LINE",
"84 116 LINE",
"110 140 LINE",
"146 140 LINE",
"172 116 LINE",
"172 74 LINE",
"146 50 LINE",
"110 50 LINE"
);
}
);
width = 631;
}
);
note = "lu-thai.short";
},
{
glyphname = "doChada-thai";
lastChange = "2018-04-17 05:49:00 +0000";
layers = (
{
anchors = (
{
name = bottom;
position = "{551, -274}";
},
{
name = top;
position = "{551, 498}";
}
);
background = {
paths = (
{
closed = 1;
nodes = (
"379 -274 LINE",
"428 -218 LINE",
"486 -274 LINE",
"546 -274 LINE",
"546 477 LINE",
"465 558 LINE",
"186 558 LINE",
"85 457 LINE",
"188 371 LINE",
"147 304 LINE",
"147 228 LINE",
"152 190 LINE",
"85 190 LINE",
"25 133 LINE",
"25 59 LINE",
"85 0 LINE",
"161 0 LINE",
"221 59 LINE",
"221 284 LINE",
"269 371 LINE",
"173 457 LINE",
"210 490 LINE",
"429 490 LINE",
"472 447 LINE",
"472 -182 LINE",
"372 -77 LINE",
"164 -77 LINE",
"107 -134 LINE",
"107 -216 LINE",
"165 -274 LINE"
);
},
{
closed = 1;
nodes = (
"169 -192 LINE",
"169 -159 LINE",
"195 -133 LINE",
"347 -133 LINE",
"388 -177 LINE",
"353 -218 LINE",
"195 -218 LINE"
);
},
{
closed = 1;
nodes = (
"79 74 LINE",
"79 116 LINE",
"105 140 LINE",
"141 140 LINE",
"167 116 LINE",
"167 74 LINE",
"141 50 LINE",
"105 50 LINE"
);
}
);
};
layerId = "39D11A97-A6D9-4B52-A6F5-15D5E4373676";
paths = (
{
closed = 1;
nodes = (
"384 -274 LINE",
"433 -218 LINE",
"491 -274 LINE",
"551 -274 LINE",
"551 477 LINE",
"470 558 LINE",
"191 558 LINE",
"90 457 LINE",
"193 371 LINE",
"152 304 LINE",
"152 228 LINE",
"157 190 LINE",
"90 190 LINE",
"30 133 LINE",
"30 59 LINE",
"90 0 LINE",
"166 0 LINE",
"226 59 LINE",
"226 284 LINE",
"274 371 LINE",
"178 457 LINE",
"215 490 LINE",
"434 490 LINE",
"477 447 LINE",
"477 -182 LINE",
"377 -77 LINE",
"169 -77 LINE",
"112 -134 LINE",
"112 -216 LINE",
"170 -274 LINE"
);
},
{
closed = 1;
nodes = (
"175 -191 LINE",
"175 -160 LINE",
"201 -134 LINE",
"352 -134 LINE",
"393 -177 LINE",
"358 -217 LINE",
"201 -217 LINE"
);
},
{
closed = 1;
nodes = (
"84 74 LINE",
"84 116 LINE",
"110 140 LINE",
"146 140 LINE",
"172 116 LINE",
"172 74 LINE",
"146 50 LINE",
"110 50 LINE"
);
}
);
width = 631;
},
{
anchors = (
{
name = bottom;
position = "{551, -274}";
},
{
name = top;
position = "{551, 498}";
}
);
background = {
paths = (
{
closed = 1;
nodes = (
"379 -274 LINE",
"428 -218 LINE",
"486 -274 LINE",
"546 -274 LINE",
"546 477 LINE",
"465 558 LINE",
"186 558 LINE",
"85 457 LINE",
"188 371 LINE",
"147 304 LINE",
"147 228 LINE",
"152 190 LINE",
"85 190 LINE",
"25 133 LINE",
"25 59 LINE",
"85 0 LINE",
"161 0 LINE",
"221 59 LINE",
"221 284 LINE",
"269 371 LINE",
"173 457 LINE",
"210 490 LINE",
"429 490 LINE",
"472 447 LINE",
"472 -182 LINE",
"372 -77 LINE",
"164 -77 LINE",
"107 -134 LINE",
"107 -216 LINE",
"165 -274 LINE"
);
},
{
closed = 1;
nodes = (
"169 -192 LINE",
"169 -159 LINE",
"195 -133 LINE",
"347 -133 LINE",
"388 -177 LINE",
"353 -218 LINE",
"195 -218 LINE"
);
},
{
closed = 1;
nodes = (
"79 74 LINE",
"79 116 LINE",
"105 140 LINE",
"141 140 LINE",
"167 116 LINE",
"167 74 LINE",
"141 50 LINE",
"105 50 LINE"
);
}
);
};
layerId = "5CD77783-8DB3-4580-A509-4627B8D22761";
paths = (
{
closed = 1;
nodes = (
"384 -274 LINE",
"433 -218 LINE",
"491 -274 LINE",
"551 -274 LINE",
"551 477 LINE",
"470 558 LINE",
"191 558 LINE",
"90 457 LINE",
"193 371 LINE",
"152 304 LINE",
"152 228 LINE",
"157 190 LINE",
"90 190 LINE",
"30 133 LINE",
"30 59 LINE",
"90 0 LINE",
"166 0 LINE",
"226 59 LINE",
"226 284 LINE",
"274 371 LINE",
"178 457 LINE",
"215 490 LINE",
"434 490 LINE",
"477 447 LINE",
"477 -182 LINE",
"377 -77 LINE",
"169 -77 LINE",
"112 -134 LINE",
"112 -216 LINE",
"170 -274 LINE"
);
},
{
closed = 1;
nodes = (
"175 -191 LINE",
"175 -160 LINE",
"201 -134 LINE",
"352 -134 LINE",
"393 -177 LINE",
"358 -217 LINE",
"201 -217 LINE"
);
},
{
closed = 1;
nodes = (
"84 74 LINE",
"84 116 LINE",
"110 140 LINE",
"146 140 LINE",
"172 116 LINE",
"172 74 LINE",
"146 50 LINE",
"110 50 LINE"
);
}
);
width = 631;
}
);
note = uni0E0E;
unicode = 0E0E;
},
{
glyphname = "doChada-thai.short";
lastChange = "2018-04-17 05:49:00 +0000";
layers = (
{
anchors = (
{
name = bottom;
position = "{551, -224}";
},
{
name = top;
position = "{551, 498}";
}
);
background = {
paths = (
{
closed = 1;
nodes = (
"379 -224 LINE",
"428 -168 LINE",
"486 -224 LINE",
"546 -224 LINE",
"546 477 LINE",
"465 558 LINE",
"186 558 LINE",
"85 457 LINE",
"188 371 LINE",
"147 304 LINE",
"147 228 LINE",
"152 190 LINE",
"85 190 LINE",
"25 133 LINE",
"25 59 LINE",
"85 0 LINE",
"161 0 LINE",
"221 59 LINE",
"221 284 LINE",
"269 371 LINE",
"173 457 LINE",
"210 490 LINE",
"429 490 LINE",
"472 447 LINE",
"472 -132 LINE",
"372 -27 LINE",
"184 -27 LINE",
"127 -84 LINE",
"127 -166 LINE",
"185 -224 LINE"
);
},
{
closed = 1;
nodes = (
"191 -142 LINE",
"191 -109 LINE",
"217 -83 LINE",
"347 -83 LINE",
"388 -127 LINE",
"353 -168 LINE",
"217 -168 LINE"
);
},
{
closed = 1;
nodes = (
"79 74 LINE",
"79 116 LINE",
"105 140 LINE",
"141 140 LINE",
"167 116 LINE",
"167 74 LINE",
"141 50 LINE",
"105 50 LINE"
);
}
);
};
layerId = "39D11A97-A6D9-4B52-A6F5-15D5E4373676";
paths = (
{
closed = 1;
nodes = (
"384 -224 LINE",
"433 -168 LINE",
"491 -224 LINE",
"551 -224 LINE",
"551 477 LINE",
"470 558 LINE",
"191 558 LINE",
"90 457 LINE",
"193 371 LINE",
"152 304 LINE",
"152 228 LINE",
"157 190 LINE",
"90 190 LINE",
"30 133 LINE",
"30 59 LINE",
"90 0 LINE",
"166 0 LINE",
"226 59 LINE",
"226 284 LINE",
"274 371 LINE",
"178 457 LINE",
"215 490 LINE",
"434 490 LINE",
"477 447 LINE",
"477 -132 LINE",
"377 -27 LINE",
"189 -27 LINE",
"132 -84 LINE",
"132 -166 LINE",
"190 -224 LINE"
);
},
{
closed = 1;
nodes = (
"194 -142 LINE",
"194 -109 LINE",
"220 -83 LINE",
"352 -83 LINE",
"393 -127 LINE",
"358 -168 LINE",
"220 -168 LINE"
);
},
{
closed = 1;
nodes = (
"84 74 LINE",
"84 116 LINE",
"110 140 LINE",
"146 140 LINE",
"172 116 LINE",
"172 74 LINE",
"146 50 LINE",
"110 50 LINE"
);
}
);
width = 631;
},
{
anchors = (
{
name = bottom;
position = "{551, -224}";
},
{
name = top;
position = "{551, 498}";
}
);
background = {
paths = (
{
closed = 1;
nodes = (
"379 -224 LINE",
"428 -168 LINE",
"486 -224 LINE",
"546 -224 LINE",
"546 477 LINE",
"465 558 LINE",
"186 558 LINE",
"85 457 LINE",
"188 371 LINE",
"147 304 LINE",
"147 228 LINE",
"152 190 LINE",
"85 190 LINE",
"25 133 LINE",
"25 59 LINE",
"85 0 LINE",
"161 0 LINE",
"221 59 LINE",
"221 284 LINE",
"269 371 LINE",
"173 457 LINE",
"210 490 LINE",
"429 490 LINE",
"472 447 LINE",
"472 -132 LINE",
"372 -27 LINE",
"184 -27 LINE",
"127 -84 LINE",
"127 -166 LINE",
"185 -224 LINE"
);
},
{
closed = 1;
nodes = (
"191 -142 LINE",
"191 -109 LINE",
"217 -83 LINE",
"347 -83 LINE",
"388 -127 LINE",
"353 -168 LINE",
"217 -168 LINE"
);
},
{
closed = 1;
nodes = (
"79 74 LINE",
"79 116 LINE",
"105 140 LINE",
"141 140 LINE",
"167 116 LINE",
"167 74 LINE",
"141 50 LINE",
"105 50 LINE"
);
}
);
};
layerId = "5CD77783-8DB3-4580-A509-4627B8D22761";
paths = (
{
closed = 1;
nodes = (
"384 -224 LINE",
"433 -168 LINE",
"491 -224 LINE",
"551 -224 LINE",
"551 477 LINE",
"470 558 LINE",
"191 558 LINE",
"90 457 LINE",
"193 371 LINE",
"152 304 LINE",
"152 228 LINE",
"157 190 LINE",
"90 190 LINE",
"30 133 LINE",
"30 59 LINE",
"90 0 LINE",
"166 0 LINE",
"226 59 LINE",
"226 284 LINE",
"274 371 LINE",
"178 457 LINE",
"215 490 LINE",
"434 490 LINE",
"477 447 LINE",
"477 -132 LINE",
"377 -27 LINE",
"189 -27 LINE",
"132 -84 LINE",
"132 -166 LINE",
"190 -224 LINE"
);
},
{
closed = 1;
nodes = (
"194 -142 LINE",
"194 -109 LINE",
"220 -83 LINE",
"352 -83 LINE",
"393 -127 LINE",
"358 -168 LINE",
"220 -168 LINE"
);
},
{
closed = 1;
nodes = (
"84 74 LINE",
"84 116 LINE",
"110 140 LINE",
"146 140 LINE",
"172 116 LINE",
"172 74 LINE",
"146 50 LINE",
"110 50 LINE"
);
}
);
width = 631;
}
);
note = "doChada-thai.short";
},
{
glyphname = "toPatak-thai";
lastChange = "2018-04-17 05:49:00 +0000";
layers = (
{
anchors = (
{
name = bottom;
position = "{551, -274}";
},
{
name = top;
position = "{551, 498}";
}
);
background = {
paths = (
{
closed = 1;
nodes = (
"244 -274 LINE",
"307 -216 LINE",
"367 -274 LINE",
"413 -210 LINE",
"481 -274 LINE",
"551 -274 LINE",
"551 477 LINE",
"470 558 LINE",
"191 558 LINE",
"90 457 LINE",
"193 371 LINE",
"152 304 LINE",
"152 228 LINE",
"157 190 LINE",
"90 190 LINE",
"30 133 LINE",
"30 59 LINE",
"90 0 LINE",
"166 0 LINE",
"226 59 LINE",
"226 284 LINE",
"274 371 LINE",
"178 457 LINE",
"215 490 LINE",
"434 490 LINE",
"477 447 LINE",
"477 -192 LINE",
"413 -129 LINE",
"367 -192 LINE",
"252 -78 LINE",
"149 -78 LINE",
"92 -135 LINE",
"92 -217 LINE",
"149 -274 LINE"
);
},
{
closed = 1;
nodes = (
"152 -196 LINE",
"152 -156 LINE",
"176 -132 LINE",
"225 -132 LINE",
"270 -177 LINE",
"225 -220 LINE",
"176 -220 LINE"
);
},
{
closed = 1;
nodes = (
"84 74 LINE",
"84 116 LINE",
"110 140 LINE",
"146 140 LINE",
"172 116 LINE",
"172 74 LINE",
"146 50 LINE",
"110 50 LINE"
);
}
);
};
layerId = "39D11A97-A6D9-4B52-A6F5-15D5E4373676";
paths = (
{
closed = 1;
nodes = (
"244 -274 LINE",
"306 -215 LINE",
"365 -274 LINE",
"416 -210 LINE",
"483 -274 LINE",
"551 -274 LINE",
"551 477 LINE",
"470 558 LINE",
"191 558 LINE",
"90 457 LINE",
"193 371 LINE",
"152 304 LINE",
"152 228 LINE",
"157 190 LINE",
"90 190 LINE",
"30 133 LINE",
"30 59 LINE",
"90 0 LINE",
"166 0 LINE",
"226 59 LINE",
"226 284 LINE",
"274 371 LINE",
"178 457 LINE",
"215 490 LINE",
"434 490 LINE",
"477 447 LINE",
"477 -194 LINE",
"411 -132 LINE",
"364 -194 LINE",
"252 -78 LINE",
"149 -78 LINE",
"92 -135 LINE",
"92 -217 LINE",
"149 -274 LINE"
);
},
{
closed = 1;
nodes = (
"152 -196 LINE",
"152 -156 LINE",
"176 -132 LINE",
"227 -132 LINE",
"270 -176 LINE",
"225 -220 LINE",
"176 -220 LINE"
);
},
{
closed = 1;
nodes = (
"84 74 LINE",
"84 116 LINE",
"110 140 LINE",
"146 140 LINE",
"172 116 LINE",
"172 74 LINE",
"146 50 LINE",
"110 50 LINE"
);
}
);
width = 631;
},
{
anchors = (
{
name = bottom;
position = "{551, -274}";
},
{
name = top;
position = "{551, 498}";
}
);
background = {
paths = (
{
closed = 1;
nodes = (
"244 -274 LINE",
"307 -216 LINE",
"367 -274 LINE",
"413 -210 LINE",
"481 -274 LINE",
"551 -274 LINE",
"551 477 LINE",
"470 558 LINE",
"191 558 LINE",
"90 457 LINE",
"193 371 LINE",
"152 304 LINE",
"152 228 LINE",
"157 190 LINE",
"90 190 LINE",
"30 133 LINE",
"30 59 LINE",
"90 0 LINE",
"166 0 LINE",
"226 59 LINE",
"226 284 LINE",
"274 371 LINE",
"178 457 LINE",
"215 490 LINE",
"434 490 LINE",
"477 447 LINE",
"477 -192 LINE",
"413 -129 LINE",
"367 -192 LINE",
"252 -78 LINE",
"149 -78 LINE",
"92 -135 LINE",
"92 -217 LINE",
"149 -274 LINE"
);
},
{
closed = 1;
nodes = (
"152 -196 LINE",
"152 -156 LINE",
"176 -132 LINE",
"225 -132 LINE",
"270 -177 LINE",
"225 -220 LINE",
"176 -220 LINE"
);
},
{
closed = 1;
nodes = (
"84 74 LINE",
"84 116 LINE",
"110 140 LINE",
"146 140 LINE",
"172 116 LINE",
"172 74 LINE",
"146 50 LINE",
"110 50 LINE"
);
}
);
};
layerId = "5CD77783-8DB3-4580-A509-4627B8D22761";
paths = (
{
closed = 1;
nodes = (
"244 -274 LINE",
"306 -215 LINE",
"365 -274 LINE",
"416 -210 LINE",
"483 -274 LINE",
"551 -274 LINE",
"551 477 LINE",
"470 558 LINE",
"191 558 LINE",
"90 457 LINE",
"193 371 LINE",
"152 304 LINE",
"152 228 LINE",
"157 190 LINE",
"90 190 LINE",
"30 133 LINE",
"30 59 LINE",
"90 0 LINE",
"166 0 LINE",
"226 59 LINE",
"226 284 LINE",
"274 371 LINE",
"178 457 LINE",
"215 490 LINE",
"434 490 LINE",
"477 447 LINE",
"477 -194 LINE",
"411 -132 LINE",
"364 -194 LINE",
"252 -78 LINE",
"149 -78 LINE",
"92 -135 LINE",
"92 -217 LINE",
"149 -274 LINE"
);
},
{
closed = 1;
nodes = (
"152 -196 LINE",
"152 -156 LINE",
"176 -132 LINE",
"227 -132 LINE",
"270 -176 LINE",
"225 -220 LINE",
"176 -220 LINE"
);
},
{
closed = 1;
nodes = (
"84 74 LINE",
"84 116 LINE",
"110 140 LINE",
"146 140 LINE",
"172 116 LINE",
"172 74 LINE",
"146 50 LINE",
"110 50 LINE"
);
}
);
width = 631;
}
);
note = uni0E0F;
unicode = 0E0F;
},
{
glyphname = "toPatak-thai.short";
lastChange = "2018-04-17 05:49:00 +0000";
layers = (
{
anchors = (
{
name = bottom;
position = "{551, -224}";
},
{
name = top;
position = "{551, 498}";
}
);
background = {
paths = (
{
closed = 1;
nodes = (
"248 -224 LINE",
"310 -165 LINE",
"369 -224 LINE",
"418 -160 LINE",
"483 -224 LINE",
"551 -224 LINE",
"551 477 LINE",
"470 558 LINE",
"191 558 LINE",
"90 457 LINE",
"193 371 LINE",
"152 304 LINE",
"152 228 LINE",
"157 190 LINE",
"90 190 LINE",
"30 133 LINE",
"30 59 LINE",
"90 0 LINE",
"166 0 LINE",
"226 59 LINE",
"226 284 LINE",
"274 371 LINE",
"178 457 LINE",
"215 490 LINE",
"434 490 LINE",
"477 447 LINE",
"477 -144 LINE",
"413 -82 LINE",
"368 -144 LINE",
"256 -28 LINE",
"157 -28 LINE",
"100 -85 LINE",
"100 -167 LINE",
"157 -224 LINE"
);
},
{
closed = 1;
nodes = (
"160 -146 LINE",
"160 -106 LINE",
"184 -82 LINE",
"231 -82 LINE",
"274 -126 LINE",
"229 -170 LINE",
"184 -170 LINE"
);
},
{
closed = 1;
nodes = (
"84 74 LINE",
"84 116 LINE",
"110 140 LINE",
"146 140 LINE",
"172 116 LINE",
"172 74 LINE",
"146 50 LINE",
"110 50 LINE"
);
}
);
};
layerId = "39D11A97-A6D9-4B52-A6F5-15D5E4373676";
paths = (
{
closed = 1;
nodes = (
"250 -224 LINE",
"313 -164 LINE",
"371 -224 LINE",
"419 -159 LINE",
"483 -224 LINE",
"551 -224 LINE",
"551 477 LINE",
"470 558 LINE",
"191 558 LINE",
"90 457 LINE",
"193 371 LINE",
"152 304 LINE",
"152 228 LINE",
"157 190 LINE",
"90 190 LINE",
"30 133 LINE",
"30 59 LINE",
"90 0 LINE",
"166 0 LINE",
"226 59 LINE",
"226 284 LINE",
"274 371 LINE",
"178 457 LINE",
"215 490 LINE",
"434 490 LINE",
"477 447 LINE",
"477 -145 LINE",
"414 -82 LINE",
"368 -146 LINE",
"258 -28 LINE",
"159 -28 LINE",
"102 -85 LINE",
"102 -167 LINE",
"159 -224 LINE"
);
},
{
closed = 1;
nodes = (
"162 -146 LINE",
"162 -106 LINE",
"186 -82 LINE",
"233 -82 LINE",
"276 -126 LINE",
"231 -170 LINE",
"186 -170 LINE"
);
},
{
closed = 1;
nodes = (
"84 74 LINE",
"84 116 LINE",
"110 140 LINE",
"146 140 LINE",
"172 116 LINE",
"172 74 LINE",
"146 50 LINE",
"110 50 LINE"
);
}
);
width = 631;
},
{
anchors = (
{
name = bottom;
position = "{551, -224}";
},
{
name = top;
position = "{551, 498}";
}
);
background = {
paths = (
{
closed = 1;
nodes = (
"248 -224 LINE",
"310 -165 LINE",
"369 -224 LINE",
"418 -160 LINE",
"483 -224 LINE",
"551 -224 LINE",
"551 477 LINE",
"470 558 LINE",
"191 558 LINE",
"90 457 LINE",
"193 371 LINE",
"152 304 LINE",
"152 228 LINE",
"157 190 LINE",
"90 190 LINE",
"30 133 LINE",
"30 59 LINE",
"90 0 LINE",
"166 0 LINE",
"226 59 LINE",
"226 284 LINE",
"274 371 LINE",
"178 457 LINE",
"215 490 LINE",
"434 490 LINE",
"477 447 LINE",
"477 -144 LINE",
"413 -82 LINE",
"368 -144 LINE",
"256 -28 LINE",
"157 -28 LINE",
"100 -85 LINE",
"100 -167 LINE",
"157 -224 LINE"
);
},
{
closed = 1;
nodes = (
"160 -146 LINE",
"160 -106 LINE",
"184 -82 LINE",
"231 -82 LINE",
"274 -126 LINE",
"229 -170 LINE",
"184 -170 LINE"
);
},
{
closed = 1;
nodes = (
"84 74 LINE",
"84 116 LINE",
"110 140 LINE",
"146 140 LINE",
"172 116 LINE",
"172 74 LINE",
"146 50 LINE",
"110 50 LINE"
);
}
);
};
layerId = "5CD77783-8DB3-4580-A509-4627B8D22761";
paths = (
{
closed = 1;
nodes = (
"250 -224 LINE",
"313 -164 LINE",
"371 -224 LINE",
"419 -159 LINE",
"483 -224 LINE",
"551 -224 LINE",
"551 477 LINE",
"470 558 LINE",
"191 558 LINE",
"90 457 LINE",
"193 371 LINE",
"152 304 LINE",
"152 228 LINE",
"157 190 LINE",
"90 190 LINE",
"30 133 LINE",
"30 59 LINE",
"90 0 LINE",
"166 0 LINE",
"226 59 LINE",
"226 284 LINE",
"274 371 LINE",
"178 457 LINE",
"215 490 LINE",
"434 490 LINE",
"477 447 LINE",
"477 -145 LINE",
"414 -82 LINE",
"368 -146 LINE",
"258 -28 LINE",
"159 -28 LINE",
"102 -85 LINE",
"102 -167 LINE",
"159 -224 LINE"
);
},
{
closed = 1;
nodes = (
"162 -146 LINE",
"162 -106 LINE",
"186 -82 LINE",
"233 -82 LINE",
"276 -126 LINE",
"231 -170 LINE",
"186 -170 LINE"
);
},
{
closed = 1;
nodes = (
"84 74 LINE",
"84 116 LINE",
"110 140 LINE",
"146 140 LINE",
"172 116 LINE",
"172 74 LINE",
"146 50 LINE",
"110 50 LINE"
);
}
);
width = 631;
}
);
note = "toPatak-thai.short";
},
{
glyphname = "ru_lakkhangyao-thai";
lastChange = "2018-04-17 05:49:00 +0000";
layers = (
{
anchors = (
{
name = bottom;
position = "{841, 0}";
},
{
name = top;
position = "{841, 498}";
}
);
background = {
paths = (
{
closed = 1;
nodes = (
"841 476 LINE",
"760 558 LINE",
"519 558 LINE",
"437 476 LINE",
"437 391 LINE",
"511 391 LINE",
"511 447 LINE",
"554 490 LINE",
"724 490 LINE",
"767 447 LINE",
"767 -210 LINE",
"841 -210 LINE"
);
},
{
closed = 1;
nodes = (
"221 0 LINE",
"281 59 LINE",
"281 133 LINE",
"221 190 LINE",
"154 190 LINE",
"159 238 LINE",
"159 284 LINE",
"220 371 LINE",
"138 457 LINE",
"175 490 LINE",
"394 490 LINE",
"437 447 LINE",
"437 -210 LINE",
"511 -210 LINE",
"511 477 LINE",
"430 558 LINE",
"151 558 LINE",
"50 457 LINE",
"137 371 LINE",
"85 304 LINE",
"85 59 LINE",
"145 0 LINE"
);
},
{
closed = 1;
nodes = (
"139 74 LINE",
"139 116 LINE",
"165 140 LINE",
"201 140 LINE",
"227 116 LINE",
"227 74 LINE",
"201 50 LINE",
"165 50 LINE"
);
}
);
};
layerId = "39D11A97-A6D9-4B52-A6F5-15D5E4373676";
paths = (
{
closed = 1;
nodes = (
"841 476 LINE",
"760 558 LINE",
"523 558 LINE",
"437 472 LINE",
"437 391 LINE",
"511 391 LINE",
"511 447 LINE",
"554 490 LINE",
"724 490 LINE",
"767 447 LINE",
"767 -210 LINE",
"841 -210 LINE"
);
},
{
closed = 1;
nodes = (
"221 0 LINE",
"281 59 LINE",
"281 133 LINE",
"221 190 LINE",
"154 190 LINE",
"159 238 LINE",
"159 284 LINE",
"220 371 LINE",
"138 457 LINE",
"175 490 LINE",
"394 490 LINE",
"437 447 LINE",
"437 -210 LINE",
"511 -210 LINE",
"511 473 LINE",
"426 558 LINE",
"151 558 LINE",
"50 457 LINE",
"137 371 LINE",
"85 304 LINE",
"85 59 LINE",
"145 0 LINE"
);
},
{
closed = 1;
nodes = (
"139 74 LINE",
"139 116 LINE",
"165 140 LINE",
"201 140 LINE",
"227 116 LINE",
"227 74 LINE",
"201 50 LINE",
"165 50 LINE"
);
}
);
width = 921;
},
{
anchors = (
{
name = bottom;
position = "{841, 0}";
},
{
name = top;
position = "{841, 498}";
}
);
background = {
paths = (
{
closed = 1;
nodes = (
"841 476 LINE",
"760 558 LINE",
"519 558 LINE",
"437 476 LINE",
"437 391 LINE",
"511 391 LINE",
"511 447 LINE",
"554 490 LINE",
"724 490 LINE",
"767 447 LINE",
"767 -210 LINE",
"841 -210 LINE"
);
},
{
closed = 1;
nodes = (
"221 0 LINE",
"281 59 LINE",
"281 133 LINE",
"221 190 LINE",
"154 190 LINE",
"159 238 LINE",
"159 284 LINE",
"220 371 LINE",
"138 457 LINE",
"175 490 LINE",
"394 490 LINE",
"437 447 LINE",
"437 -210 LINE",
"511 -210 LINE",
"511 477 LINE",
"430 558 LINE",
"151 558 LINE",
"50 457 LINE",
"137 371 LINE",
"85 304 LINE",
"85 59 LINE",
"145 0 LINE"
);
},
{
closed = 1;
nodes = (
"139 74 LINE",
"139 116 LINE",
"165 140 LINE",
"201 140 LINE",
"227 116 LINE",
"227 74 LINE",
"201 50 LINE",
"165 50 LINE"
);
}
);
};
layerId = "5CD77783-8DB3-4580-A509-4627B8D22761";
paths = (
{
closed = 1;
nodes = (
"841 476 LINE",
"760 558 LINE",
"523 558 LINE",
"437 472 LINE",
"437 391 LINE",
"511 391 LINE",
"511 447 LINE",
"554 490 LINE",
"724 490 LINE",
"767 447 LINE",
"767 -210 LINE",
"841 -210 LINE"
);
},
{
closed = 1;
nodes = (
"221 0 LINE",
"281 59 LINE",
"281 133 LINE",
"221 190 LINE",
"154 190 LINE",
"159 238 LINE",
"159 284 LINE",
"220 371 LINE",
"138 457 LINE",
"175 490 LINE",
"394 490 LINE",
"437 447 LINE",
"437 -210 LINE",
"511 -210 LINE",
"511 473 LINE",
"426 558 LINE",
"151 558 LINE",
"50 457 LINE",
"137 371 LINE",
"85 304 LINE",
"85 59 LINE",
"145 0 LINE"
);
},
{
closed = 1;
nodes = (
"139 74 LINE",
"139 116 LINE",
"165 140 LINE",
"201 140 LINE",
"227 116 LINE",
"227 74 LINE",
"201 50 LINE",
"165 50 LINE"
);
}
);
width = 921;
}
);
note = "ru_lakkhangyao-thai";
},
{
glyphname = "lu_lakkhangyao-thai";
lastChange = "2018-04-17 05:49:00 +0000";
layers = (
{
anchors = (
{
name = bottom;
position = "{881, 0}";
},
{
name = top;
position = "{881, 498}";
}
);
background = {
paths = (
{
closed = 1;
nodes = (
"881 476 LINE",
"800 558 LINE",
"559 558 LINE",
"477 476 LINE",
"477 391 LINE",
"551 391 LINE",
"551 447 LINE",
"594 490 LINE",
"764 490 LINE",
"807 447 LINE",
"807 -210 LINE",
"881 -210 LINE"
);
},
{
closed = 1;
nodes = (
"166 0 LINE",
"226 59 LINE",
"226 284 LINE",
"274 371 LINE",
"178 457 LINE",
"215 490 LINE",
"434 490 LINE",
"477 447 LINE",
"477 -210 LINE",
"551 -210 LINE",
"551 477 LINE",
"470 558 LINE",
"191 558 LINE",
"90 457 LINE",
"193 371 LINE",
"152 304 LINE",
"152 228 LINE",
"157 190 LINE",
"90 190 LINE",
"30 133 LINE",
"30 59 LINE",
"90 0 LINE"
);
},
{
closed = 1;
nodes = (
"84 74 LINE",
"84 116 LINE",
"110 140 LINE",
"146 140 LINE",
"172 116 LINE",
"172 74 LINE",
"146 50 LINE",
"110 50 LINE"
);
}
);
};
layerId = "39D11A97-A6D9-4B52-A6F5-15D5E4373676";
paths = (
{
closed = 1;
nodes = (
"881 476 LINE",
"800 558 LINE",
"563 558 LINE",
"477 472 LINE",
"477 391 LINE",
"551 391 LINE",
"551 447 LINE",
"594 490 LINE",
"764 490 LINE",
"807 447 LINE",
"807 -210 LINE",
"881 -210 LINE"
);
},
{
closed = 1;
nodes = (
"166 0 LINE",
"226 59 LINE",
"226 284 LINE",
"274 371 LINE",
"178 457 LINE",
"215 490 LINE",
"434 490 LINE",
"477 447 LINE",
"477 -210 LINE",
"551 -210 LINE",
"551 473 LINE",
"466 558 LINE",
"191 558 LINE",
"90 457 LINE",
"193 371 LINE",
"152 304 LINE",
"152 228 LINE",
"157 190 LINE",
"90 190 LINE",
"30 133 LINE",
"30 59 LINE",
"90 0 LINE"
);
},
{
closed = 1;
nodes = (
"84 74 LINE",
"84 116 LINE",
"110 140 LINE",
"146 140 LINE",
"172 116 LINE",
"172 74 LINE",
"146 50 LINE",
"110 50 LINE"
);
}
);
width = 961;
},
{
anchors = (
{
name = bottom;
position = "{881, 0}";
},
{
name = top;
position = "{881, 498}";
}
);
background = {
paths = (
{
closed = 1;
nodes = (
"881 476 LINE",
"800 558 LINE",
"559 558 LINE",
"477 476 LINE",
"477 391 LINE",
"551 391 LINE",
"551 447 LINE",
"594 490 LINE",
"764 490 LINE",
"807 447 LINE",
"807 -210 LINE",
"881 -210 LINE"
);
},
{
closed = 1;
nodes = (
"166 0 LINE",
"226 59 LINE",
"226 284 LINE",
"274 371 LINE",
"178 457 LINE",
"215 490 LINE",
"434 490 LINE",
"477 447 LINE",
"477 -210 LINE",
"551 -210 LINE",
"551 477 LINE",
"470 558 LINE",
"191 558 LINE",
"90 457 LINE",
"193 371 LINE",
"152 304 LINE",
"152 228 LINE",
"157 190 LINE",
"90 190 LINE",
"30 133 LINE",
"30 59 LINE",
"90 0 LINE"
);
},
{
closed = 1;
nodes = (
"84 74 LINE",
"84 116 LINE",
"110 140 LINE",
"146 140 LINE",
"172 116 LINE",
"172 74 LINE",
"146 50 LINE",
"110 50 LINE"
);
}
);
};
layerId = "5CD77783-8DB3-4580-A509-4627B8D22761";
paths = (
{
closed = 1;
nodes = (
"881 476 LINE",
"800 558 LINE",
"563 558 LINE",
"477 472 LINE",
"477 391 LINE",
"551 391 LINE",
"551 447 LINE",
"594 490 LINE",
"764 490 LINE",
"807 447 LINE",
"807 -210 LINE",
"881 -210 LINE"
);
},
{
closed = 1;
nodes = (
"166 0 LINE",
"226 59 LINE",
"226 284 LINE",
"274 371 LINE",
"178 457 LINE",
"215 490 LINE",
"434 490 LINE",
"477 447 LINE",
"477 -210 LINE",
"551 -210 LINE",
"551 473 LINE",
"466 558 LINE",
"191 558 LINE",
"90 457 LINE",
"193 371 LINE",
"152 304 LINE",
"152 228 LINE",
"157 190 LINE",
"90 190 LINE",
"30 133 LINE",
"30 59 LINE",
"90 0 LINE"
);
},
{
closed = 1;
nodes = (
"84 74 LINE",
"84 116 LINE",
"110 140 LINE",
"146 140 LINE",
"172 116 LINE",
"172 74 LINE",
"146 50 LINE",
"110 50 LINE"
);
}
);
width = 961;
}
);
note = "lu_lakkhangyao-thai";
},
{
glyphname = "yoYing-thai";
lastChange = "2018-04-17 05:49:00 +0000";
layers = (
{
anchors = (
{
name = bottom;
position = "{780, 0}";
},
{
name = top;
position = "{780, 498}";
}
);
background = {
paths = (
{
closed = 1;
nodes = (
"221 0 LINE",
"281 59 LINE",
"281 133 LINE",
"221 190 LINE",
"154 190 LINE",
"159 238 LINE",
"159 284 LINE",
"220 371 LINE",
"138 457 LINE",
"175 490 LINE",
"382 490 LINE",
"425 447 LINE",
"425 0 LINE",
"698 0 LINE",
"780 82 LINE",
"780 558 LINE",
"706 558 LINE",
"706 108 LINE",
"664 66 LINE",
"499 66 LINE",
"499 477 LINE",
"418 558 LINE",
"151 558 LINE",
"50 457 LINE",
"137 371 LINE",
"85 304 LINE",
"85 59 LINE",
"145 0 LINE"
);
},
{
closed = 1;
nodes = (
"139 74 LINE",
"139 116 LINE",
"165 140 LINE",
"201 140 LINE",
"227 116 LINE",
"227 74 LINE",
"201 50 LINE",
"165 50 LINE"
);
},
{
closed = 1;
nodes = (
"462 -153 LINE",
"462 -117 LINE",
"485 -95 LINE",
"514 -95 LINE",
"537 -117 LINE",
"537 -153 LINE",
"514 -175 LINE",
"485 -175 LINE"
);
},
{
closed = 1;
nodes = (
"692 -221 LINE",
"793 -120 LINE",
"744 -71 LINE",
"660 -155 LINE",
"587 -155 LINE",
"587 -100 LINE",
"536 -49 LINE",
"463 -49 LINE",
"412 -100 LINE",
"412 -170 LINE",
"463 -221 LINE"
);
}
);
};
layerId = "39D11A97-A6D9-4B52-A6F5-15D5E4373676";
paths = (
{
closed = 1;
nodes = (
"221 0 LINE",
"281 59 LINE",
"281 133 LINE",
"221 190 LINE",
"154 190 LINE",
"159 238 LINE",
"159 284 LINE",
"220 371 LINE",
"138 457 LINE",
"175 490 LINE",
"377 490 LINE",
"420 447 LINE",
"420 82 LINE",
"502 0 LINE",
"703 0 LINE",
"785 82 LINE",
"785 558 LINE",
"711 558 LINE",
"711 108 LINE",
"669 66 LINE",
"536 66 LINE",
"494 108 LINE",
"494 477 LINE",
"413 558 LINE",
"151 558 LINE",
"50 457 LINE",
"137 371 LINE",
"85 304 LINE",
"85 59 LINE",
"145 0 LINE"
);
},
{
closed = 1;
nodes = (
"139 74 LINE",
"139 116 LINE",
"165 140 LINE",
"201 140 LINE",
"227 116 LINE",
"227 74 LINE",
"201 50 LINE",
"165 50 LINE"
);
},
{
closed = 1;
nodes = (
"468 -153 LINE",
"468 -117 LINE",
"491 -95 LINE",
"520 -95 LINE",
"543 -117 LINE",
"543 -153 LINE",
"520 -175 LINE",
"491 -175 LINE"
);
},
{
closed = 1;
nodes = (
"698 -221 LINE",
"799 -120 LINE",
"750 -71 LINE",
"666 -155 LINE",
"593 -155 LINE",
"593 -100 LINE",
"542 -49 LINE",
"469 -49 LINE",
"418 -100 LINE",
"418 -170 LINE",
"469 -221 LINE"
);
}
);
width = 865;
},
{
anchors = (
{
name = bottom;
position = "{780, 0}";
},
{
name = top;
position = "{780, 498}";
}
);
background = {
paths = (
{
closed = 1;
nodes = (
"221 0 LINE",
"281 59 LINE",
"281 133 LINE",
"221 190 LINE",
"154 190 LINE",
"159 238 LINE",
"159 284 LINE",
"220 371 LINE",
"138 457 LINE",
"175 490 LINE",
"382 490 LINE",
"425 447 LINE",
"425 0 LINE",
"698 0 LINE",
"780 82 LINE",
"780 558 LINE",
"706 558 LINE",
"706 108 LINE",
"664 66 LINE",
"499 66 LINE",
"499 477 LINE",
"418 558 LINE",
"151 558 LINE",
"50 457 LINE",
"137 371 LINE",
"85 304 LINE",
"85 59 LINE",
"145 0 LINE"
);
},
{
closed = 1;
nodes = (
"139 74 LINE",
"139 116 LINE",
"165 140 LINE",
"201 140 LINE",
"227 116 LINE",
"227 74 LINE",
"201 50 LINE",
"165 50 LINE"
);
},
{
closed = 1;
nodes = (
"462 -153 LINE",
"462 -117 LINE",
"485 -95 LINE",
"514 -95 LINE",
"537 -117 LINE",
"537 -153 LINE",
"514 -175 LINE",
"485 -175 LINE"
);
},
{
closed = 1;
nodes = (
"692 -221 LINE",
"793 -120 LINE",
"744 -71 LINE",
"660 -155 LINE",
"587 -155 LINE",
"587 -100 LINE",
"536 -49 LINE",
"463 -49 LINE",
"412 -100 LINE",
"412 -170 LINE",
"463 -221 LINE"
);
}
);
};
layerId = "5CD77783-8DB3-4580-A509-4627B8D22761";
paths = (
{
closed = 1;
nodes = (
"221 0 LINE",
"281 59 LINE",
"281 133 LINE",
"221 190 LINE",
"154 190 LINE",
"159 238 LINE",
"159 284 LINE",
"220 371 LINE",
"138 457 LINE",
"175 490 LINE",
"377 490 LINE",
"420 447 LINE",
"420 82 LINE",
"502 0 LINE",
"703 0 LINE",
"785 82 LINE",
"785 558 LINE",
"711 558 LINE",
"711 108 LINE",
"669 66 LINE",
"536 66 LINE",
"494 108 LINE",
"494 477 LINE",
"413 558 LINE",
"151 558 LINE",
"50 457 LINE",
"137 371 LINE",
"85 304 LINE",
"85 59 LINE",
"145 0 LINE"
);
},
{
closed = 1;
nodes = (
"139 74 LINE",
"139 116 LINE",
"165 140 LINE",
"201 140 LINE",
"227 116 LINE",
"227 74 LINE",
"201 50 LINE",
"165 50 LINE"
);
},
{
closed = 1;
nodes = (
"468 -153 LINE",
"468 -117 LINE",
"491 -95 LINE",
"520 -95 LINE",
"543 -117 LINE",
"543 -153 LINE",
"520 -175 LINE",
"491 -175 LINE"
);
},
{
closed = 1;
nodes = (
"698 -221 LINE",
"799 -120 LINE",
"750 -71 LINE",
"666 -155 LINE",
"593 -155 LINE",
"593 -100 LINE",
"542 -49 LINE",
"469 -49 LINE",
"418 -100 LINE",
"418 -170 LINE",
"469 -221 LINE"
);
}
);
width = 865;
}
);
note = uni0E0D;
unicode = 0E0D;
},
{
color = 6;
glyphname = "yoYing-thai.less";
lastChange = "2018-04-17 05:49:00 +0000";
layers = (
{
anchors = (
{
name = bottom;
position = "{780, 0}";
},
{
name = top;
position = "{780, 498}";
}
);
background = {
paths = (
{
closed = 1;
nodes = (
"221 0 LINE",
"281 59 LINE",
"281 133 LINE",
"221 190 LINE",
"154 190 LINE",
"159 238 LINE",
"159 284 LINE",
"220 371 LINE",
"138 457 LINE",
"175 490 LINE",
"382 490 LINE",
"425 447 LINE",
"425 0 LINE",
"698 0 LINE",
"780 82 LINE",
"780 558 LINE",
"706 558 LINE",
"706 108 LINE",
"664 66 LINE",
"499 66 LINE",
"499 477 LINE",
"418 558 LINE",
"151 558 LINE",
"50 457 LINE",
"137 371 LINE",
"85 304 LINE",
"85 59 LINE",
"145 0 LINE"
);
},
{
closed = 1;
nodes = (
"139 74 LINE",
"139 116 LINE",
"165 140 LINE",
"201 140 LINE",
"227 116 LINE",
"227 74 LINE",
"201 50 LINE",
"165 50 LINE"
);
}
);
};
layerId = "39D11A97-A6D9-4B52-A6F5-15D5E4373676";
paths = (
{
closed = 1;
nodes = (
"221 0 LINE",
"281 59 LINE",
"281 133 LINE",
"221 190 LINE",
"154 190 LINE",
"159 238 LINE",
"159 284 LINE",
"220 371 LINE",
"138 457 LINE",
"175 490 LINE",
"377 490 LINE",
"420 447 LINE",
"420 82 LINE",
"502 0 LINE",
"703 0 LINE",
"785 82 LINE",
"785 558 LINE",
"711 558 LINE",
"711 108 LINE",
"669 66 LINE",
"536 66 LINE",
"494 108 LINE",
"494 477 LINE",
"413 558 LINE",
"151 558 LINE",
"50 457 LINE",
"137 371 LINE",
"85 304 LINE",
"85 59 LINE",
"145 0 LINE"
);
},
{
closed = 1;
nodes = (
"139 74 LINE",
"139 116 LINE",
"165 140 LINE",
"201 140 LINE",
"227 116 LINE",
"227 74 LINE",
"201 50 LINE",
"165 50 LINE"
);
}
);
width = 865;
},
{
anchors = (
{
name = bottom;
position = "{780, 0}";
},
{
name = top;
position = "{780, 498}";
}
);
background = {
paths = (
{
closed = 1;
nodes = (
"221 0 LINE",
"281 59 LINE",
"281 133 LINE",
"221 190 LINE",
"154 190 LINE",
"159 238 LINE",
"159 284 LINE",
"220 371 LINE",
"138 457 LINE",
"175 490 LINE",
"382 490 LINE",
"425 447 LINE",
"425 0 LINE",
"698 0 LINE",
"780 82 LINE",
"780 558 LINE",
"706 558 LINE",
"706 108 LINE",
"664 66 LINE",
"499 66 LINE",
"499 477 LINE",
"418 558 LINE",
"151 558 LINE",
"50 457 LINE",
"137 371 LINE",
"85 304 LINE",
"85 59 LINE",
"145 0 LINE"
);
},
{
closed = 1;
nodes = (
"139 74 LINE",
"139 116 LINE",
"165 140 LINE",
"201 140 LINE",
"227 116 LINE",
"227 74 LINE",
"201 50 LINE",
"165 50 LINE"
);
}
);
};
layerId = "5CD77783-8DB3-4580-A509-4627B8D22761";
paths = (
{
closed = 1;
nodes = (
"221 0 LINE",
"281 59 LINE",
"281 133 LINE",
"221 190 LINE",
"154 190 LINE",
"159 238 LINE",
"159 284 LINE",
"220 371 LINE",
"138 457 LINE",
"175 490 LINE",
"377 490 LINE",
"420 447 LINE",
"420 82 LINE",
"502 0 LINE",
"703 0 LINE",
"785 82 LINE",
"785 558 LINE",
"711 558 LINE",
"711 108 LINE",
"669 66 LINE",
"536 66 LINE",
"494 108 LINE",
"494 477 LINE",
"413 558 LINE",
"151 558 LINE",
"50 457 LINE",
"137 371 LINE",
"85 304 LINE",
"85 59 LINE",
"145 0 LINE"
);
},
{
closed = 1;
nodes = (
"139 74 LINE",
"139 116 LINE",
"165 140 LINE",
"201 140 LINE",
"227 116 LINE",
"227 74 LINE",
"201 50 LINE",
"165 50 LINE"
);
}
);
width = 865;
}
);
note = "yoYing-thai.less";
},
{
glyphname = "khoKhai-thai";
lastChange = "2018-04-17 05:49:00 +0000";
layers = (
{
anchors = (
{
name = bottom;
position = "{499, 0}";
},
{
name = top;
position = "{499, 498}";
}
);
background = {
paths = (
{
closed = 1;
nodes = (
"94 370 LINE",
"94 410 LINE",
"120 434 LINE",
"156 434 LINE",
"182 408 LINE",
"182 370 LINE",
"156 344 LINE",
"120 344 LINE"
);
},
{
closed = 1;
nodes = (
"316 0 LINE",
"421 0 LINE",
"499 78 LINE",
"499 558 LINE",
"425 558 LINE",
"425 102 LINE",
"389 66 LINE",
"348 66 LINE",
"312 102 LINE",
"312 280 LINE",
"359 398 LINE",
"359 490 LINE",
"281 568 LINE",
"137 568 LINE",
"40 471 LINE",
"40 354 LINE",
"100 294 LINE",
"176 294 LINE",
"236 354 LINE",
"236 422 LINE",
"176 482 LINE",
"121 482 LINE",
"153 510 LINE",
"248 510 LINE",
"291 467 LINE",
"291 406 LINE",
"238 280 LINE",
"238 78 LINE"
);
}
);
};
layerId = "39D11A97-A6D9-4B52-A6F5-15D5E4373676";
paths = (
{
closed = 1;
nodes = (
"94 370 LINE",
"94 410 LINE",
"120 434 LINE",
"156 434 LINE",
"182 408 LINE",
"182 370 LINE",
"156 344 LINE",
"120 344 LINE"
);
},
{
closed = 1;
nodes = (
"316 0 LINE",
"421 0 LINE",
"499 78 LINE",
"499 558 LINE",
"425 558 LINE",
"425 102 LINE",
"389 66 LINE",
"348 66 LINE",
"312 102 LINE",
"312 280 LINE",
"359 398 LINE",
"359 490 LINE",
"281 568 LINE",
"137 568 LINE",
"40 471 LINE",
"40 354 LINE",
"100 294 LINE",
"176 294 LINE",
"236 354 LINE",
"236 422 LINE",
"176 482 LINE",
"121 482 LINE",
"153 510 LINE",
"248 510 LINE",
"291 467 LINE",
"291 406 LINE",
"238 280 LINE",
"238 78 LINE"
);
}
);
width = 579;
},
{
anchors = (
{
name = bottom;
position = "{499, 0}";
},
{
name = top;
position = "{499, 498}";
}
);
background = {
paths = (
{
closed = 1;
nodes = (
"94 370 LINE",
"94 410 LINE",
"120 434 LINE",
"156 434 LINE",
"182 408 LINE",
"182 370 LINE",
"156 344 LINE",
"120 344 LINE"
);
},
{
closed = 1;
nodes = (
"316 0 LINE",
"421 0 LINE",
"499 78 LINE",
"499 558 LINE",
"425 558 LINE",
"425 102 LINE",
"389 66 LINE",
"348 66 LINE",
"312 102 LINE",
"312 280 LINE",
"359 398 LINE",
"359 490 LINE",
"281 568 LINE",
"137 568 LINE",
"40 471 LINE",
"40 354 LINE",
"100 294 LINE",
"176 294 LINE",
"236 354 LINE",
"236 422 LINE",
"176 482 LINE",
"121 482 LINE",
"153 510 LINE",
"248 510 LINE",
"291 467 LINE",
"291 406 LINE",
"238 280 LINE",
"238 78 LINE"
);
}
);
};
layerId = "5CD77783-8DB3-4580-A509-4627B8D22761";
paths = (
{
closed = 1;
nodes = (
"94 370 LINE",
"94 410 LINE",
"120 434 LINE",
"156 434 LINE",
"182 408 LINE",
"182 370 LINE",
"156 344 LINE",
"120 344 LINE"
);
},
{
closed = 1;
nodes = (
"316 0 LINE",
"421 0 LINE",
"499 78 LINE",
"499 558 LINE",
"425 558 LINE",
"425 102 LINE",
"389 66 LINE",
"348 66 LINE",
"312 102 LINE",
"312 280 LINE",
"359 398 LINE",
"359 490 LINE",
"281 568 LINE",
"137 568 LINE",
"40 471 LINE",
"40 354 LINE",
"100 294 LINE",
"176 294 LINE",
"236 354 LINE",
"236 422 LINE",
"176 482 LINE",
"121 482 LINE",
"153 510 LINE",
"248 510 LINE",
"291 467 LINE",
"291 406 LINE",
"238 280 LINE",
"238 78 LINE"
);
}
);
width = 579;
}
);
note = uni0E02;
unicode = 0E02;
},
{
glyphname = "khoKhuat-thai";
lastChange = "2018-04-17 05:49:00 +0000";
layers = (
{
anchors = (
{
name = bottom;
position = "{514, 0}";
},
{
name = top;
position = "{514, 498}";
}
);
background = {
paths = (
{
closed = 1;
nodes = (
"82 362 LINE",
"82 402 LINE",
"107 425 LINE",
"141 425 LINE",
"166 402 LINE",
"166 362 LINE",
"141 339 LINE",
"107 339 LINE"
);
},
{
closed = 1;
nodes = (
"30 347 LINE",
"87 291 LINE",
"161 291 LINE",
"218 347 LINE",
"218 419 LINE",
"161 471 LINE",
"96 471 LINE",
"133 510 LINE",
"178 510 LINE",
"233 452 LINE",
"286 510 LINE",
"298 510 LINE",
"320 488 LINE",
"320 409 LINE",
"248 289 LINE",
"248 77 LINE",
"325 0 LINE",
"432 0 LINE",
"509 77 LINE",
"509 558 LINE",
"435 558 LINE",
"435 105 LINE",
"397 66 LINE",
"360 66 LINE",
"322 105 LINE",
"322 289 LINE",
"386 401 LINE",
"386 506 LINE",
"329 568 LINE",
"274 568 LINE",
"233 518 LINE",
"190 568 LINE",
"116 568 LINE",
"30 470 LINE"
);
}
);
};
layerId = "39D11A97-A6D9-4B52-A6F5-15D5E4373676";
paths = (
{
closed = 1;
nodes = (
"87 364 LINE",
"87 402 LINE",
"112 425 LINE",
"146 425 LINE",
"171 400 LINE",
"171 364 LINE",
"146 339 LINE",
"112 339 LINE"
);
},
{
closed = 1;
nodes = (
"514 558 LINE",
"440 558 LINE",
"440 102 LINE",
"404 66 LINE",
"363 66 LINE",
"327 102 LINE",
"327 289 LINE",
"391 401 LINE",
"391 505 LINE",
"334 568 LINE",
"278 568 LINE",
"238 519 LINE",
"195 568 LINE",
"123 568 LINE",
"35 472 LINE",
"35 348 LINE",
"92 291 LINE",
"166 291 LINE",
"223 348 LINE",
"223 414 LINE",
"166 471 LINE",
"100 471 LINE",
"139 510 LINE",
"183 510 LINE",
"238 453 LINE",
"290 510 LINE",
"304 510 LINE",
"325 487 LINE",
"325 409 LINE",
"253 287 LINE",
"253 78 LINE",
"331 0 LINE",
"436 0 LINE",
"514 78 LINE"
);
}
);
width = 594;
},
{
anchors = (
{
name = bottom;
position = "{514, 0}";
},
{
name = top;
position = "{514, 498}";
}
);
background = {
paths = (
{
closed = 1;
nodes = (
"82 362 LINE",
"82 402 LINE",
"107 425 LINE",
"141 425 LINE",
"166 402 LINE",
"166 362 LINE",
"141 339 LINE",
"107 339 LINE"
);
},
{
closed = 1;
nodes = (
"30 347 LINE",
"87 291 LINE",
"161 291 LINE",
"218 347 LINE",
"218 419 LINE",
"161 471 LINE",
"96 471 LINE",
"133 510 LINE",
"178 510 LINE",
"233 452 LINE",
"286 510 LINE",
"298 510 LINE",
"320 488 LINE",
"320 409 LINE",
"248 289 LINE",
"248 77 LINE",
"325 0 LINE",
"432 0 LINE",
"509 77 LINE",
"509 558 LINE",
"435 558 LINE",
"435 105 LINE",
"397 66 LINE",
"360 66 LINE",
"322 105 LINE",
"322 289 LINE",
"386 401 LINE",
"386 506 LINE",
"329 568 LINE",
"274 568 LINE",
"233 518 LINE",
"190 568 LINE",
"116 568 LINE",
"30 470 LINE"
);
}
);
};
layerId = "5CD77783-8DB3-4580-A509-4627B8D22761";
paths = (
{
closed = 1;
nodes = (
"87 364 LINE",
"87 402 LINE",
"112 425 LINE",
"146 425 LINE",
"171 400 LINE",
"171 364 LINE",
"146 339 LINE",
"112 339 LINE"
);
},
{
closed = 1;
nodes = (
"514 558 LINE",
"440 558 LINE",
"440 102 LINE",
"404 66 LINE",
"363 66 LINE",
"327 102 LINE",
"327 289 LINE",
"391 401 LINE",
"391 505 LINE",
"334 568 LINE",
"278 568 LINE",
"238 519 LINE",
"195 568 LINE",
"123 568 LINE",
"35 472 LINE",
"35 348 LINE",
"92 291 LINE",
"166 291 LINE",
"223 348 LINE",
"223 414 LINE",
"166 471 LINE",
"100 471 LINE",
"139 510 LINE",
"183 510 LINE",
"238 453 LINE",
"290 510 LINE",
"304 510 LINE",
"325 487 LINE",
"325 409 LINE",
"253 287 LINE",
"253 78 LINE",
"331 0 LINE",
"436 0 LINE",
"514 78 LINE"
);
}
);
width = 594;
}
);
note = uni0E03;
unicode = 0E03;
},
{
glyphname = "choChang-thai";
lastChange = "2018-04-17 05:49:00 +0000";
layers = (
{
anchors = (
{
name = bottom;
position = "{509, 0}";
},
{
name = top;
position = "{499, 498}";
}
);
background = {
paths = (
{
closed = 1;
nodes = (
"427 0 LINE",
"504 77 LINE",
"504 440 LINE",
"473 484 LINE",
"593 599 LINE",
"546 649 LINE",
"400 505 LINE",
"400 471 LINE",
"430 428 LINE",
"430 105 LINE",
"392 66 LINE",
"345 66 LINE",
"307 105 LINE",
"307 280 LINE",
"354 398 LINE",
"354 486 LINE",
"276 568 LINE",
"132 568 LINE",
"35 470 LINE",
"35 353 LINE",
"95 294 LINE",
"171 294 LINE",
"231 353 LINE",
"231 427 LINE",
"171 482 LINE",
"116 482 LINE",
"150 510 LINE",
"243 510 LINE",
"286 464 LINE",
"286 406 LINE",
"233 280 LINE",
"233 77 LINE",
"310 0 LINE"
);
},
{
closed = 1;
nodes = (
"89 368 LINE",
"89 410 LINE",
"115 434 LINE",
"151 434 LINE",
"177 410 LINE",
"177 368 LINE",
"151 344 LINE",
"115 344 LINE"
);
}
);
};
layerId = "39D11A97-A6D9-4B52-A6F5-15D5E4373676";
paths = (
{
closed = 1;
nodes = (
"431 0 LINE",
"509 78 LINE",
"509 430 LINE",
"477 471 LINE",
"598 589 LINE",
"551 639 LINE",
"405 493 LINE",
"405 459 LINE",
"435 418 LINE",
"435 102 LINE",
"399 66 LINE",
"348 66 LINE",
"312 102 LINE",
"312 280 LINE",
"359 398 LINE",
"359 490 LINE",
"281 568 LINE",
"137 568 LINE",
"40 471 LINE",
"40 354 LINE",
"100 294 LINE",
"176 294 LINE",
"236 354 LINE",
"236 422 LINE",
"176 482 LINE",
"121 482 LINE",
"153 510 LINE",
"248 510 LINE",
"291 467 LINE",
"291 406 LINE",
"238 280 LINE",
"238 78 LINE",
"316 0 LINE"
);
},
{
closed = 1;
nodes = (
"94 370 LINE",
"94 410 LINE",
"120 434 LINE",
"156 434 LINE",
"182 408 LINE",
"182 370 LINE",
"156 344 LINE",
"120 344 LINE"
);
}
);
width = 598;
},
{
anchors = (
{
name = bottom;
position = "{509, 0}";
},
{
name = top;
position = "{499, 498}";
}
);
background = {
paths = (
{
closed = 1;
nodes = (
"427 0 LINE",
"504 77 LINE",
"504 440 LINE",
"473 484 LINE",
"593 599 LINE",
"546 649 LINE",
"400 505 LINE",
"400 471 LINE",
"430 428 LINE",
"430 105 LINE",
"392 66 LINE",
"345 66 LINE",
"307 105 LINE",
"307 280 LINE",
"354 398 LINE",
"354 486 LINE",
"276 568 LINE",
"132 568 LINE",
"35 470 LINE",
"35 353 LINE",
"95 294 LINE",
"171 294 LINE",
"231 353 LINE",
"231 427 LINE",
"171 482 LINE",
"116 482 LINE",
"150 510 LINE",
"243 510 LINE",
"286 464 LINE",
"286 406 LINE",
"233 280 LINE",
"233 77 LINE",
"310 0 LINE"
);
},
{
closed = 1;
nodes = (
"89 368 LINE",
"89 410 LINE",
"115 434 LINE",
"151 434 LINE",
"177 410 LINE",
"177 368 LINE",
"151 344 LINE",
"115 344 LINE"
);
}
);
};
layerId = "5CD77783-8DB3-4580-A509-4627B8D22761";
paths = (
{
closed = 1;
nodes = (
"431 0 LINE",
"509 78 LINE",
"509 430 LINE",
"477 471 LINE",
"598 589 LINE",
"551 639 LINE",
"405 493 LINE",
"405 459 LINE",
"435 418 LINE",
"435 102 LINE",
"399 66 LINE",
"348 66 LINE",
"312 102 LINE",
"312 280 LINE",
"359 398 LINE",
"359 490 LINE",
"281 568 LINE",
"137 568 LINE",
"40 471 LINE",
"40 354 LINE",
"100 294 LINE",
"176 294 LINE",
"236 354 LINE",
"236 422 LINE",
"176 482 LINE",
"121 482 LINE",
"153 510 LINE",
"248 510 LINE",
"291 467 LINE",
"291 406 LINE",
"238 280 LINE",
"238 78 LINE",
"316 0 LINE"
);
},
{
closed = 1;
nodes = (
"94 370 LINE",
"94 410 LINE",
"120 434 LINE",
"156 434 LINE",
"182 408 LINE",
"182 370 LINE",
"156 344 LINE",
"120 344 LINE"
);
}
);
width = 598;
}
);
note = uni0E0A;
unicode = 0E0A;
},
